<svg xmlns="http://www.w3.org/2000/svg" xmlns:xlink="http://www.w3.org/1999/xlink" viewBox="0 0 440 88"><defs><style>.cls-1{fill:#b06b09;}.cls-2{fill:url(#名称未設定グラデーション_559);}.cls-3{fill:#fff;}.cls-4{fill:#ff8f00;}.cls-5{fill:none;stroke:#fff;stroke-miterlimit:10;stroke-width:2px;}</style><linearGradient id="名称未設定グラデーション_559" y1="40" x2="440" y2="40" gradientUnits="userSpaceOnUse"><stop offset="0" stop-color="#ff8f00"/><stop offset="1" stop-color="#ffd100"/></linearGradient></defs><g id="レイヤー_2" data-name="レイヤー 2"><g id="contents"><path class="cls-1" d="M440,48a40.12,40.12,0,0,1-40,40H40A40.12,40.12,0,0,1,0,48H0A40.12,40.12,0,0,1,40,8H400a40.12,40.12,0,0,1,40,40Z"/><path class="cls-2" d="M440,40a40.12,40.12,0,0,1-40,40H40A40.12,40.12,0,0,1,0,40H0A40.12,40.12,0,0,1,40,0H400a40.12,40.12,0,0,1,40,40Z"/><circle class="cls-3" cx="41" cy="40" r="32.5"/><path class="cls-4" d="M32.83,36.44h6.82V38H24.46V36.44h6.61V33.83H25.92V32.37h5.15V29.89H26.76V28.56a22.71,22.71,0,0,1-2.07,1.33,6.22,6.22,0,0,0-1.06-1.35A20.48,20.48,0,0,0,31,21.84h1.72a21.29,21.29,0,0,0,7.7,6.5,10.15,10.15,0,0,0-1.1,1.48c-.65-.36-1.31-.8-2-1.26v1.33h-4.5v2.48h5.24v1.46H32.83Zm4.29-8a23.23,23.23,0,0,1-5.19-4.91,21.86,21.86,0,0,1-5,4.91Z"/><path class="cls-4" d="M57.44,22.67V38.42H55.66v-.88H44.24v.88H42.55V22.67ZM55.66,36V24.22H44.24V36Zm-.85-2.77v1.39h-9.6V33.22h3.91V30.55H45.93V29.13h3.19V27H45.47V25.48h9V27H50.69v2.18h3.36v1.42H50.69v2.67h2.48a11.22,11.22,0,0,0-1.6-2l1.06-.58a13.71,13.71,0,0,1,1.68,1.87l-1.1.67Z"/><path class="cls-4" d="M30.92,46.92a24.8,24.8,0,0,1-1.49,5.42,22,22,0,0,1,1.92,3L30,56.48a18.11,18.11,0,0,0-1.4-2.43,12.14,12.14,0,0,1-3.89,4.23A9.55,9.55,0,0,0,23.58,57a10.45,10.45,0,0,0,4-4.39,45.31,45.31,0,0,0-3.08-3.75l1.18-1c.86.9,1.76,1.94,2.62,3a23.09,23.09,0,0,0,1-4.18Zm9.31.74h-2v8.58c0,1-.24,1.52-.81,1.82a8.57,8.57,0,0,1-3.1.34,8,8,0,0,0-.54-1.78c1.08,0,2,0,2.36,0s.43-.09.43-.4V47.66H31.82V46.3H24V44.76h3.28V41.91h1.62v2.85h3.47V46h4.16V41.89H38.2V46h2Zm-6.48,6.26A14.91,14.91,0,0,0,31.86,50l1.37-.65a13.71,13.71,0,0,1,2,3.87Z"/><path class="cls-4" d="M44.85,48.66c0,2.81-.27,7-1.83,9.74a8.66,8.66,0,0,0-1.43-.95c1.46-2.56,1.59-6.21,1.59-8.79V44.09h6.48v-2.2h1.75v2.2h6.68v1.62H44.85Zm-.14,7.46a13.56,13.56,0,0,0,1.46-5.44L47.7,51a15.55,15.55,0,0,1-1.5,5.76Zm8.3.45c.65,0,.74-.45.83-3a5.06,5.06,0,0,0,1.47.68c-.16,3-.59,3.82-2.17,3.82H50.79c-1.69,0-2.12-.54-2.12-2.25V49.22h1.64v6.61c0,.63.12.74.74.74Zm0-6.65a22.55,22.55,0,0,0-4.16-2.77L50,46.05a22.22,22.22,0,0,1,4.23,2.63Zm2.9.33a19.28,19.28,0,0,1,2.54,5.85l-1.64.68a20,20,0,0,0-2.38-5.94Z"/><path class="cls-3" d="M116.64,31.76c0,.22,0,.55,0,.9a44.74,44.74,0,0,0,5.57-.59l0,2.53c-1.45.18-3.45.37-5.59.48v2.27c2.23-.11,4.1-.29,5.88-.53l0,2.6c-2,.22-3.7.37-5.81.44,0,.83.09,1.74.15,2.62a17.1,17.1,0,0,1,6.16,3.32l-1.58,2.46a16.87,16.87,0,0,0-4.45-3,7.87,7.87,0,0,1,0,.81c0,1.87-1.43,3.32-4.34,3.32-3.52,0-5.37-1.34-5.37-3.67s2-3.79,5.44-3.79c.46,0,.92,0,1.36.07,0-.68-.06-1.39-.09-2.05h-1.14c-1.28,0-3.79-.11-5.24-.28l0-2.6a39.59,39.59,0,0,0,5.3.42h1.06c0-.73,0-1.52,0-2.27h-.81a52.6,52.6,0,0,1-5.39-.39l-.07-2.51a41.78,41.78,0,0,0,5.44.48h.85v-1a8.67,8.67,0,0,0-.13-1.52h3C116.71,30.64,116.66,31.19,116.64,31.76Zm-4.44,15.1c1.16,0,1.93-.33,1.93-1.61,0-.24,0-.55,0-1a13.38,13.38,0,0,0-1.8-.15c-1.57,0-2.42.62-2.42,1.36S110.68,46.86,112.2,46.86Z"/><path class="cls-3" d="M142.14,32.51l-1.52.64c1.41,0,2.69,0,3.35,0l0,2.61c-1.32-.06-3.41-.13-6.38-.13,0,1.12,0,2.29,0,3.26a5.52,5.52,0,0,1,.84,3.06c0,2.88-1.69,6.51-7.08,8L129,47.6a9.91,9.91,0,0,0,5.39-2.5,5,5,0,0,1-1,.11,3.89,3.89,0,0,1-3.8-4A4.18,4.18,0,0,1,134,37a5.06,5.06,0,0,1,.88.07c0-.49,0-1,0-1.48-3.33,0-6.76.2-9.47.36l-.06-2.67c2.51,0,6.51-.11,9.48-.15a6.45,6.45,0,0,0,0-.68c-.07-.88-.15-1.63-.2-1.92h3.17c-.07.36-.13,1.54-.15,1.9,0,.17,0,.41,0,.68h2.64a26.72,26.72,0,0,0-1.43-2.49l1.81-.75A26.76,26.76,0,0,1,142.14,32.51Zm-8.21,10.28c.93,0,1.72-.71,1.43-2.64a1.58,1.58,0,0,0-1.45-.77,1.64,1.64,0,0,0-1.67,1.73A1.67,1.67,0,0,0,133.93,42.79Zm11.18-10.92-1.85.77a19.22,19.22,0,0,0-1.54-2.59l1.83-.75A24.81,24.81,0,0,1,145.11,31.87Z"/><path class="cls-3" d="M150.59,33a58.89,58.89,0,0,0-1.06,8.52,9.81,9.81,0,0,0,.09,1.43c.28-.77.66-1.52,1-2.27l1.34,1.1c-.62,1.81-1.32,4-1.58,5.24a5.75,5.75,0,0,0-.11,1c0,.22,0,.6,0,.9l-2.49.2a25.93,25.93,0,0,1-.88-7,70,70,0,0,1,.9-9.17c.09-.62.2-1.46.23-2.16l3,.26A14.48,14.48,0,0,0,150.59,33Zm11.11-.77c0,.49,0,1.3-.07,2.27A29.91,29.91,0,0,0,165,34v2.75c-1,.16-2.2.29-3.41.38.05,2.13.16,3.89.24,5.39a14.28,14.28,0,0,1,4.27,2.84l-1.52,2.31a23.24,23.24,0,0,0-2.68-2.23c-.13,2.12-1.32,3.61-4.29,3.61s-4.93-1.27-4.93-3.58,1.89-3.77,4.88-3.77a10.65,10.65,0,0,1,1.43.09c0-1.36-.13-3-.15-4.53-.53,0-1.06,0-1.56,0-1.3,0-2.55,0-3.85-.13V34.49a37.14,37.14,0,0,0,3.85.2c.5,0,1,0,1.54,0,0-1.08,0-2,0-2.45a9.15,9.15,0,0,0-.16-1.45h3.15A12.44,12.44,0,0,0,161.7,32.2Zm-4.36,14.22c1.34,0,1.81-.71,1.81-2V44a6.63,6.63,0,0,0-1.77-.24c-1.25,0-2.09.52-2.09,1.36S156.17,46.42,157.34,46.42Z"/><path class="cls-3" d="M170.65,35.19a14.9,14.9,0,0,1-1.3,1.15,24.94,24.94,0,0,0-2.13-1.72,13.5,13.5,0,0,0,4.55-5.26l2.55.75a11.07,11.07,0,0,1-.85,1.54h13.2V34H184.6v2.82h2.86v2.33H184.6v2.8h2.55v2.33H168V41.91h2.62v-2.8h-3V36.78h3Zm-3.17,13.73A10.8,10.8,0,0,0,170,44.7l2.53.62A12.16,12.16,0,0,1,170,49.94ZM173,36.78h1.58V34H173Zm0,5.13h1.58v-2.8H173Zm3.34,3.27a27.78,27.78,0,0,1,.55,4.12l-2.55.37a27,27,0,0,0-.42-4.2Zm2-8.4V34h-1.63v2.82Zm-1.63,2.33v2.8h1.63v-2.8Zm4,6A25.1,25.1,0,0,1,182,49.19l-2.62.5a23.06,23.06,0,0,0-1.12-4.18ZM182.2,34h-1.67v2.82h1.67Zm0,5.15h-1.67v2.8h1.67Zm2.91,5.5a29.71,29.71,0,0,1,2.77,4.4l-2.69.9a28.3,28.3,0,0,0-2.59-4.51Z"/><path class="cls-3" d="M196.76,45a29.06,29.06,0,0,0-1.58-2.87v7.73h-2.42V42.08a22.19,22.19,0,0,1-2.53,5.41,15.08,15.08,0,0,0-1.19-2.7,20.6,20.6,0,0,0,2.91-5.7h-2.51V36.65h3.32v-7.2h2.42v7.2h3.26v2.44h-3.26v.15c.64.64,2.73,3.11,3.19,3.72Zm-6.35-8.74a22.38,22.38,0,0,0-1-5.08l1.82-.49a22.29,22.29,0,0,1,1.12,5Zm8.42-5.19c-.57,1.76-1.21,3.85-1.76,5.12l-1.65-.46a40.37,40.37,0,0,0,1.21-5.15ZM207.37,44v5.94h-2.46v-5.5l-6.14,1.1-.4-2.44,6.54-1.17V29.34h2.46v12.1l2.24-.42.4,2.45Zm-7.53-8a18.65,18.65,0,0,1,3.7,2.53l-1.32,2.09a18.48,18.48,0,0,0-3.61-2.75Zm3.2-.79a18.19,18.19,0,0,0-3.42-2.86l1.26-1.76a17,17,0,0,1,3.5,2.66Z"/><path class="cls-3" d="M217.27,37.68c.77.84,2.64,3.1,3.08,3.65l-1.5,2.14c-.33-.71-1-1.74-1.58-2.73v9.15h-2.51V41.2a18.57,18.57,0,0,1-2.49,4.95A12.57,12.57,0,0,0,211,43.69a21.34,21.34,0,0,0,3.41-7.35h-2.84V33.87h3.15V29.36h2.51v4.51H220v2.47h-2.75Zm13.84-7.13v19h-2.64V48.46H223.3v1.26h-2.51V30.55ZM223.3,33v2.72h5.17V33Zm0,5.08v2.79h5.17V38.1Zm5.17,8V43.27H223.3v2.82Z"/><path class="cls-3" d="M241.64,35.06h-8.36V33h8.36Zm-.7,13.69h-4.49v.86h-2.2V42.1h6.69Zm0-10.7h-6.6v-2h6.6Zm-6.6,1h6.6v2h-6.6Zm6.53-7h-6.47v-2h6.47Zm-4.4,12.14V46.7h2.27V44.17Zm13-.31A7.44,7.44,0,0,0,254,47.71a19.77,19.77,0,0,0-1.5,2.23,8.15,8.15,0,0,1-4.75-4.84,8.78,8.78,0,0,1-5.24,4.84,10.8,10.8,0,0,0-1.43-2.14c4.2-1.47,5.33-4.35,5.33-5.83V38.65H249V42a4.68,4.68,0,0,0,.42,1.85A23.79,23.79,0,0,0,251.19,40l2.58.8a44.18,44.18,0,0,1-2.31,3.78Zm-8.3.18a7,7,0,0,0,1.91-3.87l2.29.46a8.37,8.37,0,0,1-2,4.49ZM252,39.57a33.16,33.16,0,0,0-4.4-3.19,8.31,8.31,0,0,1-4.71,3.37,6.31,6.31,0,0,0-1.45-2.07c4.57-1.43,4.93-3.94,5.1-8.29h2.53a22.23,22.23,0,0,1-.55,4.79,46,46,0,0,1,5.22,3.41Zm-6.56-8.47a7.82,7.82,0,0,1-1.74,4.07l-2-.88a7.11,7.11,0,0,0,1.65-3.63Zm8.1.22c-.73,1.28-1.52,2.62-2.13,3.54l-1.94-.74a19.48,19.48,0,0,0,1.58-3.59Z"/><path class="cls-3" d="M261.09,33.48c-.09,2.37-.26,7.3-.26,10,0,2.22,1.32,3,3,3,3.64,0,5.95-2.09,7.53-4.49l2,2.42a11.39,11.39,0,0,1-9.55,5.06c-3.61,0-5.94-1.58-5.94-5.34,0-3,.22-8.74.22-10.63a14.55,14.55,0,0,0-.28-3l3.54,0C261.25,31.48,261.14,32.6,261.09,33.48Z"/><path class="cls-3" d="M276,32.75c1.83-.15,5.46-.48,9.49-.83,2.26-.18,4.68-.33,6.22-.38l0,2.82a25.16,25.16,0,0,0-4.25.28,6.71,6.71,0,0,0-4.64,6.19c0,3.61,3.39,4.93,7.1,5.12l-1,3c-4.6-.31-9-2.8-9-7.55a8.87,8.87,0,0,1,3.26-6.8c-2.07.22-6.56.71-9.11,1.26l-.28-3C274.67,32.84,275.52,32.8,276,32.75Z"/><path class="cls-3" d="M299,31.45c1.26,0,3.59-.11,4.62-.19a5.08,5.08,0,0,0,1.5-.31l1.76,1.36a5.36,5.36,0,0,0-.75.93,46.25,46.25,0,0,0-2.2,4.73,19.44,19.44,0,0,1,4.78,1.41c0-.27,0-.51.06-.75a13.69,13.69,0,0,0,0-2.4l2.89.33a36.22,36.22,0,0,1-.42,4.07c.92.53,1.71,1,2.35,1.47l-1.27,3.06a23.52,23.52,0,0,0-1.9-1.54,11,11,0,0,1-5.59,6l-2.33-1.91A9.5,9.5,0,0,0,308,42.15a15.33,15.33,0,0,0-5.21-1.79,43.9,43.9,0,0,1-2.49,5.29,3.83,3.83,0,0,1-3.43,1.93A3.29,3.29,0,0,1,293.52,44c0-3.41,3.1-6,7.52-6.21.62-1.45,1.26-3,1.76-4-.88,0-2.77.11-3.78.18-.44,0-1.21.08-1.78.17l-.11-2.84A17.5,17.5,0,0,0,299,31.45ZM297,44.7c.44,0,.75-.22,1.14-.77a23.93,23.93,0,0,0,1.78-3.59c-2.46.38-3.85,1.87-3.85,3.26C296.09,44.33,296.51,44.7,297,44.7Z"/><path class="cls-3" d="M320.21,31.34c1.16,0,5.87-.08,7.13-.19A9.43,9.43,0,0,0,329,30.9l1.43,2c-.51.33-1,.64-1.54,1-1.19.84-3.5,2.78-4.89,3.88a8.46,8.46,0,0,1,2.09-.25c3.74,0,6.58,2.34,6.58,5.55,0,3.48-2.64,6.23-8,6.23-3.06,0-5.37-1.41-5.37-3.61a3.68,3.68,0,0,1,3.94-3.43A4.39,4.39,0,0,1,328,46a3.19,3.19,0,0,0,1.83-3c0-2-2-3.33-4.58-3.33-3.36,0-5.56,1.78-7.92,4.47l-2-2.07c1.56-1.25,4.22-3.5,5.52-4.58s3.52-2.86,4.6-3.8c-1.12,0-4.16.15-5.32.22-.6,0-1.3.11-1.81.17l-.09-2.86A15,15,0,0,0,320.21,31.34Zm4,15.43a10,10,0,0,0,1.27-.07c-.13-1.43-.94-2.35-2.13-2.35-.84,0-1.37.5-1.37,1C321.94,46.22,322.85,46.77,324.17,46.77Z"/><polyline class="cls-5" points="399 50.2 409 40.2 399 30.2"/></g></g></svg>