<svg xmlns="http://www.w3.org/2000/svg" xmlns:xlink="http://www.w3.org/1999/xlink" viewBox="0 0 569.36 218.9"><defs><style>.cls-1{fill:#141414;}.cls-2{fill:#fc641d;}.cls-3{fill:url(#名称未設定グラデーション_12);}.cls-4{fill:url(#名称未設定グラデーション_12-2);}.cls-5{fill:url(#名称未設定グラデーション_12-3);}.cls-6{fill:url(#名称未設定グラデーション_12-4);}.cls-7{fill:url(#名称未設定グラデーション_12-5);}.cls-8{fill:url(#名称未設定グラデーション_12-6);}.cls-9{fill:url(#名称未設定グラデーション_12-7);}.cls-10{fill:url(#名称未設定グラデーション_12-8);}.cls-11{fill:url(#名称未設定グラデーション_12-9);}.cls-12{fill:url(#名称未設定グラデーション_12-10);}.cls-13{fill:url(#名称未設定グラデーション_12-11);}.cls-14{fill:url(#名称未設定グラデーション_12-12);}.cls-15{fill:url(#名称未設定グラデーション_12-13);}.cls-16{fill:url(#名称未設定グラデーション_12-14);}.cls-17{fill:url(#名称未設定グラデーション_12-15);}.cls-18{fill:url(#名称未設定グラデーション_12-16);}.cls-19{fill:url(#名称未設定グラデーション_12-17);}.cls-20{fill:url(#名称未設定グラデーション_12-18);}.cls-21{fill:url(#名称未設定グラデーション_12-19);}.cls-22{fill:url(#名称未設定グラデーション_12-20);}.cls-23{fill:url(#名称未設定グラデーション_12-21);}.cls-24{fill:url(#名称未設定グラデーション_12-22);}.cls-25{fill:url(#名称未設定グラデーション_12-23);}.cls-26{fill:url(#名称未設定グラデーション_12-24);}.cls-27{fill:url(#名称未設定グラデーション_12-25);}.cls-28{fill:url(#名称未設定グラデーション_12-26);}.cls-29{fill:url(#名称未設定グラデーション_12-27);}.cls-30{fill:url(#名称未設定グラデーション_12-28);}.cls-31{fill:url(#名称未設定グラデーション_12-29);}.cls-32{fill:url(#名称未設定グラデーション_12-30);}.cls-33{fill:url(#名称未設定グラデーション_12-31);}.cls-34{fill:url(#名称未設定グラデーション_12-32);}.cls-35{fill:url(#名称未設定グラデーション_12-33);}.cls-36{fill:url(#名称未設定グラデーション_12-34);}.cls-37{fill:url(#名称未設定グラデーション_12-35);}.cls-38{fill:url(#名称未設定グラデーション_12-36);}.cls-39{fill:url(#名称未設定グラデーション_12-37);}.cls-40{fill:url(#名称未設定グラデーション_12-38);}.cls-41{fill:url(#名称未設定グラデーション_12-39);}.cls-42{fill:url(#名称未設定グラデーション_12-40);}.cls-43{fill:url(#名称未設定グラデーション_12-41);}.cls-44{fill:url(#名称未設定グラデーション_12-42);}.cls-45{fill:url(#名称未設定グラデーション_12-43);}.cls-46{fill:url(#名称未設定グラデーション_12-44);}.cls-47{fill:url(#名称未設定グラデーション_12-45);}.cls-48{fill:url(#名称未設定グラデーション_12-46);}.cls-49{fill:url(#名称未設定グラデーション_12-47);}.cls-50{fill:url(#名称未設定グラデーション_12-48);}.cls-51{fill:url(#名称未設定グラデーション_12-49);}.cls-52{fill:url(#名称未設定グラデーション_12-50);}.cls-53{fill:url(#名称未設定グラデーション_12-51);}.cls-54{fill:url(#名称未設定グラデーション_12-52);}.cls-55{fill:url(#名称未設定グラデーション_12-53);}.cls-56{fill:url(#名称未設定グラデーション_12-54);}.cls-57{fill:url(#名称未設定グラデーション_12-55);}.cls-58{fill:url(#名称未設定グラデーション_12-56);}.cls-59{fill:url(#名称未設定グラデーション_12-57);}.cls-60{fill:url(#名称未設定グラデーション_12-58);}.cls-61{fill:url(#名称未設定グラデーション_12-59);}.cls-62{fill:url(#名称未設定グラデーション_12-60);}.cls-63{fill:url(#名称未設定グラデーション_12-61);}.cls-64{fill:url(#名称未設定グラデーション_12-62);}.cls-65{fill:url(#名称未設定グラデーション_12-63);}.cls-66{fill:url(#名称未設定グラデーション_12-64);}.cls-67{fill:url(#名称未設定グラデーション_12-65);}.cls-68{fill:url(#名称未設定グラデーション_12-66);}.cls-69{fill:url(#名称未設定グラデーション_12-67);}.cls-70{fill:url(#名称未設定グラデーション_12-68);}.cls-71{fill:url(#名称未設定グラデーション_12-69);}.cls-72{fill:url(#名称未設定グラデーション_12-70);}.cls-73{fill:url(#名称未設定グラデーション_12-71);}.cls-74{fill:url(#名称未設定グラデーション_12-72);}.cls-75{fill:url(#名称未設定グラデーション_12-73);}.cls-76{fill:url(#名称未設定グラデーション_12-74);}.cls-77{fill:url(#名称未設定グラデーション_12-75);}.cls-78{fill:url(#名称未設定グラデーション_12-76);}.cls-79{fill:url(#名称未設定グラデーション_12-77);}.cls-80{fill:url(#名称未設定グラデーション_12-78);}.cls-81{fill:url(#名称未設定グラデーション_12-79);}.cls-82{fill:url(#名称未設定グラデーション_12-80);}.cls-83{fill:url(#名称未設定グラデーション_12-81);}.cls-84{fill:url(#名称未設定グラデーション_12-82);}.cls-85{fill:url(#名称未設定グラデーション_12-83);}.cls-86{fill:url(#名称未設定グラデーション_12-84);}</style><linearGradient id="名称未設定グラデーション_12" x1="158.27" y1="61.03" x2="158.27" y2="11" gradientUnits="userSpaceOnUse"><stop offset="0" stop-color="#a87f4a"/><stop offset="1" stop-color="#edb154"/></linearGradient><linearGradient id="名称未設定グラデーション_12-2" x1="157.51" y1="61.03" x2="157.51" y2="11" xlink:href="#名称未設定グラデーション_12"/><linearGradient id="名称未設定グラデーション_12-3" x1="163.12" y1="61.03" x2="163.12" y2="11" xlink:href="#名称未設定グラデーション_12"/><linearGradient id="名称未設定グラデーション_12-4" x1="162.93" y1="61.03" x2="162.93" y2="11" xlink:href="#名称未設定グラデーション_12"/><linearGradient id="名称未設定グラデーション_12-5" x1="170.39" y1="61.03" x2="170.39" y2="11" xlink:href="#名称未設定グラデーション_12"/><linearGradient id="名称未設定グラデーション_12-6" x1="173.89" y1="61.03" x2="173.89" y2="11" xlink:href="#名称未設定グラデーション_12"/><linearGradient id="名称未設定グラデーション_12-7" x1="165.87" y1="61.03" x2="165.87" y2="11" xlink:href="#名称未設定グラデーション_12"/><linearGradient id="名称未設定グラデーション_12-8" x1="174.12" y1="61.03" x2="174.12" y2="11" xlink:href="#名称未設定グラデーション_12"/><linearGradient id="名称未設定グラデーション_12-9" x1="165.95" y1="61.03" x2="165.95" y2="11" xlink:href="#名称未設定グラデーション_12"/><linearGradient id="名称未設定グラデーション_12-10" x1="170.6" y1="61.03" x2="170.6" y2="11" xlink:href="#名称未設定グラデーション_12"/><linearGradient id="名称未設定グラデーション_12-11" x1="163.76" y1="61.03" x2="163.76" y2="11" xlink:href="#名称未設定グラデーション_12"/><linearGradient id="名称未設定グラデーション_12-12" x1="156.71" y1="61.03" x2="156.71" y2="11" xlink:href="#名称未設定グラデーション_12"/><linearGradient id="名称未設定グラデーション_12-13" x1="159.22" y1="61.03" x2="159.22" y2="11" xlink:href="#名称未設定グラデーション_12"/><linearGradient id="名称未設定グラデーション_12-14" x1="164.46" y1="61.03" x2="164.46" y2="11" xlink:href="#名称未設定グラデーション_12"/><linearGradient id="名称未設定グラデーション_12-15" x1="19.24" y1="61.03" x2="19.24" y2="11" xlink:href="#名称未設定グラデーション_12"/><linearGradient id="名称未設定グラデーション_12-16" x1="14.39" y1="61.03" x2="14.39" y2="11" xlink:href="#名称未設定グラデーション_12"/><linearGradient id="名称未設定グラデーション_12-17" x1="20" y1="61.03" x2="20" y2="11" xlink:href="#名称未設定グラデーション_12"/><linearGradient id="名称未設定グラデーション_12-18" x1="7.12" y1="61.03" x2="7.12" y2="11" xlink:href="#名称未設定グラデーション_12"/><linearGradient id="名称未設定グラデーション_12-19" x1="14.54" y1="61.03" x2="14.54" y2="11" xlink:href="#名称未設定グラデーション_12"/><linearGradient id="名称未設定グラデーション_12-20" x1="3.63" y1="61.03" x2="3.63" y2="11" xlink:href="#名称未設定グラデーション_12"/><linearGradient id="名称未設定グラデーション_12-21" x1="11.6" y1="61.03" x2="11.6" y2="11" xlink:href="#名称未設定グラデーション_12"/><linearGradient id="名称未設定グラデーション_12-22" x1="3.37" y1="61.03" x2="3.37" y2="11" xlink:href="#名称未設定グラデーション_12"/><linearGradient id="名称未設定グラデーション_12-23" x1="11.61" y1="61.03" x2="11.61" y2="11" xlink:href="#名称未設定グラデーション_12"/><linearGradient id="名称未設定グラデーション_12-24" x1="6.85" y1="61.03" x2="6.85" y2="11" xlink:href="#名称未設定グラデーション_12"/><linearGradient id="名称未設定グラデーション_12-25" x1="13.72" y1="61.03" x2="13.72" y2="11" xlink:href="#名称未設定グラデーション_12"/><linearGradient id="名称未設定グラデーション_12-26" x1="20.79" y1="61.03" x2="20.79" y2="11" xlink:href="#名称未設定グラデーション_12"/><linearGradient id="名称未設定グラデーション_12-27" x1="18.23" y1="61.03" x2="18.23" y2="11" xlink:href="#名称未設定グラデーション_12"/><linearGradient id="名称未設定グラデーション_12-28" x1="13.06" y1="61.03" x2="13.06" y2="11" xlink:href="#名称未設定グラデーション_12"/><linearGradient id="名称未設定グラデーション_12-29" x1="347.27" y1="61.03" x2="347.27" y2="11" xlink:href="#名称未設定グラデーション_12"/><linearGradient id="名称未設定グラデーション_12-30" x1="346.51" y1="61.03" x2="346.51" y2="11" xlink:href="#名称未設定グラデーション_12"/><linearGradient id="名称未設定グラデーション_12-31" x1="352.12" y1="61.03" x2="352.12" y2="11" xlink:href="#名称未設定グラデーション_12"/><linearGradient id="名称未設定グラデーション_12-32" x1="351.93" y1="61.03" x2="351.93" y2="11" xlink:href="#名称未設定グラデーション_12"/><linearGradient id="名称未設定グラデーション_12-33" x1="359.39" y1="61.03" x2="359.39" y2="11" xlink:href="#名称未設定グラデーション_12"/><linearGradient id="名称未設定グラデーション_12-34" x1="362.89" y1="61.03" x2="362.89" y2="11" xlink:href="#名称未設定グラデーション_12"/><linearGradient id="名称未設定グラデーション_12-35" x1="354.87" y1="61.03" x2="354.87" y2="11" xlink:href="#名称未設定グラデーション_12"/><linearGradient id="名称未設定グラデーション_12-36" x1="363.12" y1="61.03" x2="363.12" y2="11" xlink:href="#名称未設定グラデーション_12"/><linearGradient id="名称未設定グラデーション_12-37" x1="354.95" y1="61.03" x2="354.95" y2="11" xlink:href="#名称未設定グラデーション_12"/><linearGradient id="名称未設定グラデーション_12-38" x1="359.6" y1="61.03" x2="359.6" y2="11" xlink:href="#名称未設定グラデーション_12"/><linearGradient id="名称未設定グラデーション_12-39" x1="352.76" y1="61.03" x2="352.76" y2="11" xlink:href="#名称未設定グラデーション_12"/><linearGradient id="名称未設定グラデーション_12-40" x1="345.71" y1="61.03" x2="345.71" y2="11" xlink:href="#名称未設定グラデーション_12"/><linearGradient id="名称未設定グラデーション_12-41" x1="348.22" y1="61.03" x2="348.22" y2="11" xlink:href="#名称未設定グラデーション_12"/><linearGradient id="名称未設定グラデーション_12-42" x1="353.46" y1="61.03" x2="353.46" y2="11" xlink:href="#名称未設定グラデーション_12"/><linearGradient id="名称未設定グラデーション_12-43" x1="208.24" y1="61.03" x2="208.24" y2="11" xlink:href="#名称未設定グラデーション_12"/><linearGradient id="名称未設定グラデーション_12-44" x1="203.39" y1="61.03" x2="203.39" y2="11" xlink:href="#名称未設定グラデーション_12"/><linearGradient id="名称未設定グラデーション_12-45" x1="209" y1="61.03" x2="209" y2="11" xlink:href="#名称未設定グラデーション_12"/><linearGradient id="名称未設定グラデーション_12-46" x1="196.12" y1="61.03" x2="196.12" y2="11" xlink:href="#名称未設定グラデーション_12"/><linearGradient id="名称未設定グラデーション_12-47" x1="203.54" y1="61.03" x2="203.54" y2="11" xlink:href="#名称未設定グラデーション_12"/><linearGradient id="名称未設定グラデーション_12-48" x1="192.63" y1="61.03" x2="192.63" y2="11" xlink:href="#名称未設定グラデーション_12"/><linearGradient id="名称未設定グラデーション_12-49" x1="200.6" y1="61.03" x2="200.6" y2="11" xlink:href="#名称未設定グラデーション_12"/><linearGradient id="名称未設定グラデーション_12-50" x1="192.37" y1="61.03" x2="192.37" y2="11" xlink:href="#名称未設定グラデーション_12"/><linearGradient id="名称未設定グラデーション_12-51" x1="200.61" y1="61.03" x2="200.61" y2="11" xlink:href="#名称未設定グラデーション_12"/><linearGradient id="名称未設定グラデーション_12-52" x1="195.85" y1="61.03" x2="195.85" y2="11" xlink:href="#名称未設定グラデーション_12"/><linearGradient id="名称未設定グラデーション_12-53" x1="202.72" y1="61.03" x2="202.72" y2="11" xlink:href="#名称未設定グラデーション_12"/><linearGradient id="名称未設定グラデーション_12-54" x1="209.79" y1="61.03" x2="209.79" y2="11" xlink:href="#名称未設定グラデーション_12"/><linearGradient id="名称未設定グラデーション_12-55" x1="207.23" y1="61.03" x2="207.23" y2="11" xlink:href="#名称未設定グラデーション_12"/><linearGradient id="名称未設定グラデーション_12-56" x1="202.06" y1="61.03" x2="202.06" y2="11" xlink:href="#名称未設定グラデーション_12"/><linearGradient id="名称未設定グラデーション_12-57" x1="536.27" y1="61.03" x2="536.27" y2="11" xlink:href="#名称未設定グラデーション_12"/><linearGradient id="名称未設定グラデーション_12-58" x1="535.51" y1="61.03" x2="535.51" y2="11" xlink:href="#名称未設定グラデーション_12"/><linearGradient id="名称未設定グラデーション_12-59" x1="541.12" y1="61.03" x2="541.12" y2="11" xlink:href="#名称未設定グラデーション_12"/><linearGradient id="名称未設定グラデーション_12-60" x1="540.93" y1="61.03" x2="540.93" y2="11" xlink:href="#名称未設定グラデーション_12"/><linearGradient id="名称未設定グラデーション_12-61" x1="548.39" y1="61.03" x2="548.39" y2="11" xlink:href="#名称未設定グラデーション_12"/><linearGradient id="名称未設定グラデーション_12-62" x1="551.89" y1="61.03" x2="551.89" y2="11" xlink:href="#名称未設定グラデーション_12"/><linearGradient id="名称未設定グラデーション_12-63" x1="543.87" y1="61.03" x2="543.87" y2="11" xlink:href="#名称未設定グラデーション_12"/><linearGradient id="名称未設定グラデーション_12-64" x1="552.12" y1="61.03" x2="552.12" y2="11" xlink:href="#名称未設定グラデーション_12"/><linearGradient id="名称未設定グラデーション_12-65" x1="543.95" y1="61.03" x2="543.95" y2="11" xlink:href="#名称未設定グラデーション_12"/><linearGradient id="名称未設定グラデーション_12-66" x1="548.6" y1="61.03" x2="548.6" y2="11" xlink:href="#名称未設定グラデーション_12"/><linearGradient id="名称未設定グラデーション_12-67" x1="541.76" y1="61.03" x2="541.76" y2="11" xlink:href="#名称未設定グラデーション_12"/><linearGradient id="名称未設定グラデーション_12-68" x1="534.71" y1="61.03" x2="534.71" y2="11" xlink:href="#名称未設定グラデーション_12"/><linearGradient id="名称未設定グラデーション_12-69" x1="537.22" y1="61.03" x2="537.22" y2="11" xlink:href="#名称未設定グラデーション_12"/><linearGradient id="名称未設定グラデーション_12-70" x1="542.46" y1="61.03" x2="542.46" y2="11" xlink:href="#名称未設定グラデーション_12"/><linearGradient id="名称未設定グラデーション_12-71" x1="397.24" y1="61.03" x2="397.24" y2="11" xlink:href="#名称未設定グラデーション_12"/><linearGradient id="名称未設定グラデーション_12-72" x1="392.39" y1="61.03" x2="392.39" y2="11" xlink:href="#名称未設定グラデーション_12"/><linearGradient id="名称未設定グラデーション_12-73" x1="398" y1="61.03" x2="398" y2="11" xlink:href="#名称未設定グラデーション_12"/><linearGradient id="名称未設定グラデーション_12-74" x1="385.12" y1="61.03" x2="385.12" y2="11" xlink:href="#名称未設定グラデーション_12"/><linearGradient id="名称未設定グラデーション_12-75" x1="392.54" y1="61.03" x2="392.54" y2="11" xlink:href="#名称未設定グラデーション_12"/><linearGradient id="名称未設定グラデーション_12-76" x1="381.63" y1="61.03" x2="381.63" y2="11" xlink:href="#名称未設定グラデーション_12"/><linearGradient id="名称未設定グラデーション_12-77" x1="389.6" y1="61.03" x2="389.6" y2="11" xlink:href="#名称未設定グラデーション_12"/><linearGradient id="名称未設定グラデーション_12-78" x1="381.37" y1="61.03" x2="381.37" y2="11" xlink:href="#名称未設定グラデーション_12"/><linearGradient id="名称未設定グラデーション_12-79" x1="389.61" y1="61.03" x2="389.61" y2="11" xlink:href="#名称未設定グラデーション_12"/><linearGradient id="名称未設定グラデーション_12-80" x1="384.85" y1="61.03" x2="384.85" y2="11" xlink:href="#名称未設定グラデーション_12"/><linearGradient id="名称未設定グラデーション_12-81" x1="391.72" y1="61.03" x2="391.72" y2="11" xlink:href="#名称未設定グラデーション_12"/><linearGradient id="名称未設定グラデーション_12-82" x1="398.79" y1="61.03" x2="398.79" y2="11" xlink:href="#名称未設定グラデーション_12"/><linearGradient id="名称未設定グラデーション_12-83" x1="396.23" y1="61.03" x2="396.23" y2="11" xlink:href="#名称未設定グラデーション_12"/><linearGradient id="名称未設定グラデーション_12-84" x1="391.06" y1="61.03" x2="391.06" y2="11" xlink:href="#名称未設定グラデーション_12"/></defs><g id="レイヤー_2" data-name="レイヤー 2"><g id="contents"><path class="cls-1" d="M26,105.68c-.17.28-.42.42-1.06.28a44,44,0,0,1-8.18,6.16c1.76,4.51,5,7.53,10.58,9.52l-.05.31a3.05,3.05,0,0,0-2.61,2.52c-7-3.28-9.29-9-10.13-17.7-.48,7.81-2.52,13.81-13.3,17.73L1,124c11.48-5.82,10.81-13.89,10.83-25.37l3.95.39c0,.42-.33.7-1,.82v.44a39.45,39.45,0,0,0,1.85,11.34,46.1,46.1,0,0,0,5.94-8.12ZM6.89,103.52c1.79,4.76.53,7.79-1,9.1-.95,1-2.38,1-2.94.09a1.68,1.68,0,0,1,.68-2.24c1.54-1,3-3.7,2.82-6.92Z"/><path class="cls-1" d="M52.67,112.51c-.17.28-.42.42-1.07.28a41.58,41.58,0,0,1-6.35,4.2c1.84,2.24,4.92,3.75,9.94,4.68l0,.33a2.71,2.71,0,0,0-2.49,2.52c-7.06-2-9.27-5.93-10.06-11.64-.47,5-2.32,9-13.27,11.62l-.25-.42c10.75-3.67,10.7-8.57,10.78-15.07l3.86.37c-.08.39-.33.64-.95.72a13.19,13.19,0,0,0,2.13,6.44,37.4,37.4,0,0,0,4.51-6.13ZM37.52,99.8c-.14.28-.42.42-.9.31-.92.75-3.47,2.57-5,3.61,8.09,2.38,5.4,7,3,5.43a10.91,10.91,0,0,0-3.8-5.32,52.48,52.48,0,0,0,3.27-5.35Zm-1.85,11.09c.92,3.47-.56,5.63-2,6.33a1.67,1.67,0,0,1-2.43-.54,1.56,1.56,0,0,1,1-1.84,4.74,4.74,0,0,0,3-4Zm9.46-11c-.14.26-.42.4-.89.28-1,.73-3.61,2.47-5.15,3.45,8.31,2.18,5.68,6.8,3.22,5.29a11.23,11.23,0,0,0-4.09-5.21,51.33,51.33,0,0,0,3.55-5.21Zm8,.06c-.14.25-.42.39-.93.28-.95.73-3.81,2.49-5.46,3.47,8.68,2.24,6.08,7,3.56,5.43a11.94,11.94,0,0,0-4.4-5.32,59.43,59.43,0,0,0,3.89-5.32Z"/><path class="cls-1" d="M62.94,107v16.68a3,3,0,0,1-2.15.82h-.48v-15A22.51,22.51,0,0,1,57,113l-.37-.25a46.13,46.13,0,0,0,5.8-14.31l3.86,1.24c-.11.33-.47.56-1.12.56a35,35,0,0,1-2.6,5.74l1.23.44C63.7,106.72,63.45,106.88,62.94,107Zm20.13,5.65c-.08.31-.36.45-.78.45H75.21A18.07,18.07,0,0,0,83.47,120l-.06.31a2.89,2.89,0,0,0-2.16,2.29,18.34,18.34,0,0,1-6.35-8.79v9.94c0,.2-.87.81-2.19.81h-.47v-8.23A22.26,22.26,0,0,1,64,122.9l-.28-.36a22.41,22.41,0,0,0,7.14-9.44H64.15l-.23-.81h8.32v-3.92h-2.8v.95c0,.25-1.15.87-2.27.87h-.36v-11l2.8,1.15H77.5l1.35-1.46,2.85,2.16a2,2,0,0,1-1.23.59v7.28a4.3,4.3,0,0,1-2.21.67h-.45v-1.23H74.9v3.92h3.61l1.6-2.07S82,111.62,83.07,112.65ZM69.44,101.17v6.39h8.37v-6.39Z"/><path class="cls-1" d="M86.24,99.18l2.91,1.18h2.38L93,98.9l2.74,2.61c-.22.25-.59.33-1.26.36a62.52,62.52,0,0,1-4.06,6.53,8.56,8.56,0,0,1,4,6.86c0,2.66-1,4.17-3.9,4.25a5,5,0,0,0-.33-2.07,2.66,2.66,0,0,0-1.32-.62v-.36h1.74a.92.92,0,0,0,.64-.17c.42-.22.67-.78.67-1.76a9.35,9.35,0,0,0-2.18-6c.62-1.82,1.46-5.12,2-7.34H88.79v22.54c0,.23-.82.87-2.08.87h-.47V99.18Zm17.55,7,1.26-1.68s1.46,1.17,2.33,2c-.09.31-.34.45-.73.45h-3.16v2.69h3.16l1.15-1.35,2.38,1.79a1.52,1.52,0,0,1-1,.48v5.77a3.07,3.07,0,0,1-2,.56h-.4v-1.37h-3.24c.84,2.57,3.13,4.84,8,6.16l0,.33a2.38,2.38,0,0,0-2.16,2.44c-4-1.77-5.57-5.18-6.24-8.32-.84,3.33-3.28,6.39-9.94,8.35l-.23-.37c5.27-2.41,7.2-5.32,7.84-8.59h-3v1.14c0,.2-.72.65-1.93.65h-.39v-8.74l2.63,1.07H101V107H97.61l-.23-.81h6.41Zm-6.41,0a22.28,22.28,0,0,1-4.23,2.4l-.19-.33c3.3-2.27,6.69-6.61,7.5-9.69l3.92.87c0,.31-.33.45-1.09.5,1.71,2.52,5.24,4.09,8.32,5l0,.36a2.94,2.94,0,0,0-1.93,2.41,14.2,14.2,0,0,1-6.72-7.45A18.48,18.48,0,0,1,97.38,106.16Zm3.61,6.21v-1.93H97.77v4.28h3.08A15,15,0,0,0,101,112.37Zm5.74,2.35v-4.28h-3.24v1.9a17.18,17.18,0,0,1-.14,2.38Z"/><path class="cls-1" d="M116.62,100.72a5,5,0,0,1,1.87.87c.76.51,2.19,2,2.19,3.42,0,.7-.42,1.23-1.1,2.69a18,18,0,0,0-2,7.44,5.69,5.69,0,0,0,.39,2.36c.17.36.45.42.7,0,.65-1,2.16-4.32,2.86-5.74l.64.3c-.53,1.49-1.6,4.4-1.9,5.41a10.21,10.21,0,0,0-.39,2.07c0,.92.47,1.85.47,2.63s-.42,1.26-1.15,1.26a2.21,2.21,0,0,1-1.65-1.17,12.39,12.39,0,0,1-1.71-6.81,31.13,31.13,0,0,1,1.29-7.67,13.58,13.58,0,0,0,.67-3.53,5.16,5.16,0,0,0-1.51-3.22Zm12,.82a5.19,5.19,0,0,1,2.32-.84c1.6,0,3.22.86,3.22,1.59s-.28.84-.45,2a15,15,0,0,0-.25,2l.7-.26c1.65-.56,2.24-1,2.46-1,.82,0,1.85.42,1.85,1.15s-.42,1-1.56,1.43a26.54,26.54,0,0,1-3.56.92v.62c0,2.63.22,5,.39,6.8a10.6,10.6,0,0,1,4.65,2.58,2.49,2.49,0,0,1,.92,1.73c0,.79-.39,1.24-1,1.24s-.93-.4-1.68-1.12a12.89,12.89,0,0,0-2.66-2v.45c0,2.43-1.54,3.89-5.15,3.89-2.52,0-4.65-1.26-4.65-3.5,0-2.61,2.66-3.75,5.82-3.75a13.71,13.71,0,0,1,1.6.08c-.09-1.85-.23-4.34-.25-6.44v-.25a26.27,26.27,0,0,1-2.89.19c-1.76,0-3.08-.3-4.51-3l.37-.34a6.43,6.43,0,0,0,3.83,1.35,19.25,19.25,0,0,0,3.2-.28v-3.22c0-1-.17-1.07-.65-1.24a8.62,8.62,0,0,0-2-.36Zm.08,15.62c-1.62,0-3.33.7-3.33,1.93s1.23,1.63,2.71,1.63c2.92,0,3.56-1,3.56-3.11v-.09A10.87,10.87,0,0,0,128.74,117.16Z"/><path class="cls-1" d="M151.23,99.66a1,1,0,0,1-1.13.56,36.42,36.42,0,0,1-2.77,5.94l1.26.44c-.08.28-.33.45-.84.54v16.54a2.94,2.94,0,0,1-2.13.82h-.47v-15a24.62,24.62,0,0,1-3.3,3.56l-.4-.26a45.42,45.42,0,0,0,5.94-14.28Zm9.43-.76c-.06.4-.28.68-1,.79v2.94h3.53l1.68-2.16s1.85,1.49,3,2.49c-.08.31-.39.45-.78.45h-7.45v3h3.61l1.32-1.4,2.74,2.07a2,2,0,0,1-1.14.59v6.24a3.74,3.74,0,0,1-2.19.76h-.45v-1.46h-3.95a11.3,11.3,0,0,1-2,6,26.13,26.13,0,0,0,10.55,2.27v.31a3.18,3.18,0,0,0-2.18,2.66c-4.15-.59-7.34-1.77-9.72-3.73-1.79,1.66-4.42,2.89-8.09,3.76l-.2-.4c3.28-1.2,5.52-2.71,6.95-4.64a14.14,14.14,0,0,1-2.63-4.37l.36-.2a10,10,0,0,0,3.08,3.25,11.76,11.76,0,0,0,1.26-4.93h-4v.87c0,.22-1.12.81-2.18.81h-.36v-9.6l2.71,1.12h3.84v-3H150l-.22-.78h7.31V98.57Zm-3.61,13.5v-5.18h-4v5.18Zm6.52-5.18h-3.89v5.18h3.89Z"/><path class="cls-1" d="M174.38,110.55a3.55,3.55,0,0,1-2.66-2.32,3.47,3.47,0,0,1-.08-1.32l.42-.17c.47.76.87,1.18,1.45,1.18a20.66,20.66,0,0,0,4.65-1.74c.2-1.82.37-3.33.37-4.08a.89.89,0,0,0-.68-1,8,8,0,0,0-1.65-.53v-.51a5.38,5.38,0,0,1,2-.45c1.42,0,3.08,1.43,3.08,2.38,0,.54-.37,1-.65,2a14,14,0,0,0-.44,1.63l.14.05c.56.28,1.17.87,1.17,1.24s-.28.64-.67,1.06-.92,1-1.4,1.57v.08a15.71,15.71,0,0,1,8.12-2.66c3.75,0,7.28,2.61,7.28,6.61s-2.8,7.78-11.09,9.46l-.25-.56c7.14-2.8,8.48-6.6,8.48-9.63a4.61,4.61,0,0,0-4.93-4.81,12.91,12.91,0,0,0-7.78,3.27,57.3,57.3,0,0,0,.28,7.45c.08,1,.2,1.48.2,2.21,0,1.35-.65,2.77-1.57,2.77s-1.12-.42-1.26-1.17a10.17,10.17,0,0,0-.56-2.07,14.59,14.59,0,0,0-1.6-2.78l-1.26,1.82c-.42.65-.75,1.21-1.34,1.21s-1-.48-1-1.32a2.34,2.34,0,0,1,.76-1.76,68.23,68.23,0,0,0,5.91-7.53l.17-1.82c-.85.47-1.68.95-2.22,1.28S174.94,110.55,174.38,110.55Zm.81,6.5,1.82,2c.31.31.51.25.54-.25,0-1.1,0-3.2,0-5.32Z"/><path class="cls-1" d="M204.59,100.19a5.76,5.76,0,0,1,2-.47,4.19,4.19,0,0,1,2.35.64c.56.36.31,1.09-.59,4,2.3-.75,2.94-1.34,3.39-1.34a1.19,1.19,0,0,1,1.26,1.12c0,.56-.5.92-.9,1.2a17.27,17.27,0,0,1-4.53,1.52,50.6,50.6,0,0,1-5,11.17c-.59.89-1,1.48-1.7,1.48s-1.21-.75-1.21-1.54a2.45,2.45,0,0,1,.62-1.62,30.28,30.28,0,0,0,5.12-9.16,17.13,17.13,0,0,1-2.07.14c-2.24,0-3.25-.73-4.06-3.36l.42-.31a5.28,5.28,0,0,0,3.83,1.6,12.41,12.41,0,0,0,2.52-.31,15.21,15.21,0,0,0,.4-2.6,1.14,1.14,0,0,0-.65-1.18,5.7,5.7,0,0,0-1.26-.56ZM214.81,105a7.89,7.89,0,0,1,4.15.08c1.82.59,2.88,1.79,2.88,3.16,0,.82-.31,1.35-1,1.35-.93,0-1.54-.7-2.95-.65a3.35,3.35,0,0,0-2.32,1,3.7,3.7,0,0,0-.42,2.61c.09.81.36,2.35.62,3.92a13.84,13.84,0,0,1,3.86,1.65c1.6.92,2.55,1.9,2.55,2.94,0,.87-.48,1.26-1,1.26s-1.09-.65-2-1.43a11.57,11.57,0,0,0-3.16-2.16l0,1.1c0,2.4-1.84,3.75-4.9,3.75s-4.73-1.51-4.73-3.42c0-2.18,2.24-4.06,6.16-4.06l1,0c-.06-1-.14-2-.14-2.94a5.12,5.12,0,0,1,1.23-3.78,9.82,9.82,0,0,1,3.25-2.1c.34-.22.22-.53-.14-.84a5.5,5.5,0,0,0-3-.9Zm-3.58,12.74c-2.41,0-3.59,1.06-3.59,2s.84,1.68,2.83,1.68c2.33,0,3.22-1.09,3.22-2.71V118A11.14,11.14,0,0,0,211.23,117.78Z"/><path class="cls-1" d="M227.69,103.19l.2-.37a7.09,7.09,0,0,1,2.27.4c1.23.56,2.82,2,2.82,3.22s-1.25,3-1.25,6.21c0,2.91,1.42,4.54,2.46,5a.74.74,0,0,0,1-.22,43.5,43.5,0,0,0,2.79-5l.65.28a40.26,40.26,0,0,0-1.46,5.35c-.14,1.48.31,1.51.31,2.27,0,1.06-1.06,1.62-2.58,1-2.23-1-4.95-3.41-5.17-8.28-.12-2.13.11-4.37.11-6S229.4,104.48,227.69,103.19Zm15.46,2.27a8.83,8.83,0,0,1,5.82,2.71,9.1,9.1,0,0,1,2.47,6.19c0,1.48-.51,2.24-1.6,2.24a1.23,1.23,0,0,1-1.2-1,22.22,22.22,0,0,0-1.29-5.32A8,8,0,0,0,243,106Z"/><path class="cls-1" d="M259,100.33c1.62,0,3.25,1.15,3.25,2,0,.53-.2,1-.17,1.71a14.47,14.47,0,0,0,.53,3.84,3.7,3.7,0,0,0,1.43,1.9c2-1.23,4.51-2.55,5.32-3,.36-.23.45-.45.31-.82a3.18,3.18,0,0,0-1.26-1.2l.19-.36a6.39,6.39,0,0,1,2.35.44,3.76,3.76,0,0,1,2,2.55c0,.62-.59.9-1.85,1.35a41.8,41.8,0,0,0-7.31,3.27c-2.38,1.4-4.92,3.53-4.92,5.83,0,1.68,1.59,2.71,5.4,2.71a34.84,34.84,0,0,0,6.75-.81c1.4,0,2.6.31,2.6,1.46,0,.5-.5,1-1.17,1.26a27.46,27.46,0,0,1-7.17.72c-4.87,0-8.12-1.62-8.12-4.78s3.05-5.94,5.09-7.45a4.49,4.49,0,0,1-1.68-2.1,27.45,27.45,0,0,1-1.23-5.77,1.4,1.4,0,0,0-.84-1.18,10.3,10.3,0,0,0-1.59-.56l0-.5A6.61,6.61,0,0,1,259,100.33Z"/><path class="cls-1" d="M281.54,111.56v-5.74H278l-.22-.81h3.78V98.48l3.58.37c-.08.39-.36.67-1,.78V105h.5l1.29-1.93s1.51,1.37,2.38,2.29c-.09.31-.37.45-.76.45h-3.41v5l3.8-1.12.12.36c-1,.65-2.36,1.43-3.92,2.33v8.79c0,1.9-.4,3-3.36,3.28a3.27,3.27,0,0,0-.56-1.85,3.14,3.14,0,0,0-2.05-.87v-.42s2.35.17,2.86.17.56-.14.56-.51v-7.16l-2.38,1.26a1.05,1.05,0,0,1-.7.72l-1.07-3.24C278.23,112.43,279.72,112.06,281.54,111.56Zm13.66,9.55c-.19.25-.45.36-1.06.22a22.26,22.26,0,0,1-8.93,3.19l-.23-.39a19,19,0,0,0,7.14-5Zm-6.52-14.73,2.69,1.12h8.12l1.26-1.34,2.63,2a1.8,1.8,0,0,1-1,.51v10a3.74,3.74,0,0,1-2.18.73h-.42v-1H291.2v.56c0,.25-1.07.84-2.13.84h-.39V106.38Zm.73-7.48,2.66,1.12h6.83l1.23-1.34,2.66,2a1.8,1.8,0,0,1-1,.5v4.12a3.52,3.52,0,0,1-2.15.75h-.45v-1h-7.22v.53c0,.22-1.12.78-2.16.78h-.36V98.9Zm10.33,11.93v-2.52H291.2v2.52Zm-8.54,3.36h8.54v-2.55H291.2Zm0,3.33h8.54V115H291.2Zm7.95-13.27v-3.41h-7.22v3.41Zm2.63,20.19a24.31,24.31,0,0,0-5.46-4.65l.25-.25C305.34,120,304.69,125.34,301.78,124.44Z"/><path class="cls-1" d="M310.43,120.69a1.89,1.89,0,0,1,3.78,0,1.89,1.89,0,0,1-3.78,0Zm1.07-9.86a64.36,64.36,0,0,1-.9-8.17,1.74,1.74,0,0,1,1.74-2c1,0,1.73.67,1.73,2a60,60,0,0,1-.89,8.17l-.42,5.07h-.84Z"/><path class="cls-1" d="M17.46,170.69c1.37.83,2.2,1.85,2.2,2.75S19.25,175,18,175c-.89,0-1.82-.77-3-1.73a33.14,33.14,0,0,0-11-5.19l.16-.64C9.17,167.65,14.64,169,17.46,170.69Zm-3-10.53c1.37.61,2.33,1.38,2.33,2.59a1.33,1.33,0,0,1-1.37,1.41c-.71,0-1.25-.38-2.34-1.12a37,37,0,0,0-8-3.87l.16-.61A25.63,25.63,0,0,1,14.45,160.16Zm3.45-3.26c-.92,0-1.34-.45-2.46-1.31a26.41,26.41,0,0,0-9-4.2l.13-.6c3.71.16,7.77.67,10.11,1.76,1.92.89,2.53,1.82,2.53,3A1.39,1.39,0,0,1,17.9,156.9Z"/><path class="cls-1" d="M29.36,166.75a3.88,3.88,0,0,0,2.88,1.54c1.25,0,5-.35,8.93-.74.13-2.17.19-5.18.19-6.78a4.85,4.85,0,0,0-.8-3c-2.14.29-3.65.61-4.54.61a3.2,3.2,0,0,1-2.27-1.47,7,7,0,0,1-1.25-2.31l.45-.32a5.32,5.32,0,0,0,3.36,1.51,50.59,50.59,0,0,0,7-.71c4.51-.7,4.35-1.6,5.15-1.6,1.53,0,3.84,1,3.84,1.86,0,.67-.36,1.22-1.41,1.31-1.22.13-4.51.42-7.84.8,1.09.48,1.95,1.09,1.95,1.76a22,22,0,0,1-.61,2.15c-.22,1.37-.44,3.8-.57,6,2.24-.23,4.38-.39,6-.48a17.1,17.1,0,0,0,2.53-.51c1.54,0,4.42,1.53,4.42,2.75a1.18,1.18,0,0,1-1.25,1.25c-1.09,0-3.81-.93-7.74-1a57.16,57.16,0,0,0-12.26,1.28,16.67,16.67,0,0,1-3.13.93c-1.12,0-2.82-1.7-3.24-2.59a5.58,5.58,0,0,1-.38-2Z"/><path class="cls-1" d="M68.53,155.81a6,6,0,0,1,2.21-.42c1.34.07,4,1.48,4,2.63,0,.77-.68,1.21-.84,2a20.75,20.75,0,0,1-10.65,14.08l-.48-.57c5-4.23,8.13-11,8.13-15.27,0-1-1.38-1.53-2.34-1.85Zm9-4.13c1.54,0,3.94,1.44,3.94,2.37,0,.77-.74.86-.87,2-.22,1.7-.44,9.28-.41,11.62,0,.45.22.58.61.41a40.46,40.46,0,0,0,11.77-8.12l.58.45a38.64,38.64,0,0,1-11.43,10.75c-.73.48-1.24,1.47-2,1.47-1,0-2.63-2-2.63-2.82,0-.64.39-1,.52-2.24.12-1.66.28-10,.09-13.12,0-.86-.9-1.31-2.46-1.56l0-.58A5,5,0,0,1,77.52,151.68Z"/><path class="cls-1" d="M100.08,161.19a3.61,3.61,0,0,0,2.37,1.18c1.54,0,5.31-.58,8.29-1v-3.07a3.49,3.49,0,0,0-.8-2.31h-.07c-1.12.13-2.36.55-3.32.55a3.8,3.8,0,0,1-2.69-2,7.29,7.29,0,0,1-.58-1.57l.45-.19a4.15,4.15,0,0,0,2.59,1.25,65.17,65.17,0,0,0,8.61-1.06c2.27-.48,3.36-1.15,3.81-1.15,2,0,3.39.87,3.39,1.67,0,.57-.35,1.05-1.6,1.24l-8.51,1c1.25.48,2.08,1.15,2.08,1.6,0,.64-.42.92-.52,1.6s-.16,1.28-.22,2.11l6.56-.9c1.79-.29,2.43-.61,3-.61,1.15,0,3.61.87,3.61,2a1.09,1.09,0,0,1-1.21,1.22c-1.19,0-3.3-.35-5.16-.35a62.61,62.61,0,0,0-6.94.6c-.1,2.15-.16,4.42-.13,5.67,0,1.6.55,2.14,3.14,2.14a21.88,21.88,0,0,0,5.44-.61c1.85,0,2.91.93,2.91,1.67s-.58,1.15-1.57,1.37a33.38,33.38,0,0,1-6.33.51c-4.77,0-6-1.28-6-4.15,0-1.32,0-3.84.06-6.24a40.17,40.17,0,0,0-5,1.08c-1.6.52-2.14,1-3,1s-2.36-1.28-2.81-2.44a4.09,4.09,0,0,1-.19-1.72Z"/><path class="cls-1" d="M149.23,156.61a16.39,16.39,0,0,1-1,5.44c-1.38,4-5,9.95-8.64,9.95-2.4,0-4.71-3.68-4.71-7.77a12.56,12.56,0,0,1,4.52-9.28,14.07,14.07,0,0,1,9.56-3.4c7,0,12.19,4.77,12.19,11.43,0,5.73-3.87,11-14.46,11.55l-.13-.67c8-1.67,11.33-6,11.33-11.62s-4-9.5-9.21-9.5c-.39,0-.8,0-1.22.06A6.5,6.5,0,0,1,149.23,156.61Zm-9-.26a10.13,10.13,0,0,0-3,7.08c0,2.78,1.22,5.11,2.53,5.11,2,0,4.83-4.67,6-7.23a14.61,14.61,0,0,0,1.32-5.4,5.4,5.4,0,0,0-.93-2.85A12.09,12.09,0,0,0,140.27,156.35Z"/><path class="cls-1" d="M196.66,155.33c-.2.32-.48.48-1.22.32a50.81,50.81,0,0,1-9.34,7c2,5.15,5.66,8.61,12.09,10.88l-.06.35a3.51,3.51,0,0,0-3,2.88c-8-3.74-10.62-10.3-11.58-20.22-.54,8.93-2.88,15.77-15.2,20.25l-.32-.54c13.12-6.66,12.35-15.87,12.38-29l4.52.45c-.07.48-.39.8-1.16.92v.52a45,45,0,0,0,2.12,13,53.8,53.8,0,0,0,6.78-9.28Zm-21.86-2.46c2,5.44.61,8.89-1.09,10.4-1.08,1.08-2.72,1.12-3.36.09a1.92,1.92,0,0,1,.77-2.56c1.76-1.18,3.46-4.22,3.23-7.9Z"/><path class="cls-1" d="M230.32,163.14c-.19.32-.48.48-1.22.32a47.56,47.56,0,0,1-7.26,4.8c2.11,2.56,5.63,4.28,11.36,5.34l0,.38a3.1,3.1,0,0,0-2.85,2.88c-8.06-2.27-10.59-6.78-11.49-13.31-.54,5.67-2.65,10.31-15.16,13.28l-.29-.48c12.29-4.19,12.22-9.79,12.32-17.21l4.41.41c-.09.45-.38.74-1.09.84a15.23,15.23,0,0,0,2.44,7.36,43.35,43.35,0,0,0,5.15-7ZM213,148.61c-.16.32-.48.48-1,.35-1.06.87-4,2.95-5.7,4.13,9.25,2.72,6.18,8,3.42,6.21a12.48,12.48,0,0,0-4.35-6.08,62.29,62.29,0,0,0,3.75-6.11Zm-2.11,12.67c1,4-.64,6.43-2.31,7.23-1.08.58-2.4.39-2.78-.61a1.79,1.79,0,0,1,1.18-2.11,5.4,5.4,0,0,0,3.43-4.54Zm10.81-12.57c-.16.28-.48.44-1,.32-1.09.83-4.13,2.81-5.89,3.93,9.5,2.5,6.5,7.78,3.68,6a12.75,12.75,0,0,0-4.67-5.95,60.22,60.22,0,0,0,4.06-5.95Zm9.09.06c-.16.29-.48.45-1.06.32-1.08.83-4.35,2.85-6.24,4,9.92,2.56,6.95,7.93,4.07,6.21a13.46,13.46,0,0,0-5-6.08,72.56,72.56,0,0,0,4.45-6.08Z"/><path class="cls-1" d="M245.27,156.83V175.9a3.44,3.44,0,0,1-2.47.93h-.54V159.68a25.45,25.45,0,0,1-3.78,4.07l-.41-.29a53,53,0,0,0,6.62-16.35l4.41,1.4c-.12.39-.54.64-1.27.64a40.2,40.2,0,0,1-3,6.56l1.41.52C246.13,156.51,245.84,156.71,245.27,156.83Zm23,6.47c-.09.35-.41.51-.89.51h-8.1a20.72,20.72,0,0,0,9.44,7.87l-.06.35a3.31,3.31,0,0,0-2.47,2.63,21,21,0,0,1-7.26-10V176a3,3,0,0,1-2.5.93h-.54v-9.41a25.46,25.46,0,0,1-9.41,7.52l-.32-.42a25.58,25.58,0,0,0,8.16-10.78h-7.68l-.25-.93h9.5V158.4h-3.2v1.09c0,.29-1.31,1-2.59,1h-.42V147.94l3.2,1.31h9l1.54-1.66,3.26,2.46a2.28,2.28,0,0,1-1.4.67V159a5,5,0,0,1-2.53.77h-.51V158.4h-3.33v4.48h4.13l1.82-2.37S267,162.11,268.27,163.3Zm-15.58-13.12v7.29h9.57v-7.29Z"/><path class="cls-1" d="M275.09,147.91l3.33,1.34h2.72l1.66-1.66,3.14,3c-.26.29-.67.39-1.44.42a71.83,71.83,0,0,1-4.64,7.45c3.23,2.31,4.54,5.28,4.54,7.84,0,3-1.12,4.77-4.45,4.87a5.52,5.52,0,0,0-.38-2.37,3.08,3.08,0,0,0-1.5-.71v-.41h2a1.08,1.08,0,0,0,.74-.19c.48-.26.76-.9.76-2a10.67,10.67,0,0,0-2.49-6.91c.7-2.08,1.66-5.86,2.24-8.38H278V175.9c0,.26-.93,1-2.37,1h-.54v-29Zm20.06,8,1.44-1.92s1.67,1.35,2.66,2.34c-.1.35-.39.51-.83.51H294.8v3.07h3.62l1.31-1.53,2.72,2a1.85,1.85,0,0,1-1.15.54v6.59a3.49,3.49,0,0,1-2.34.64h-.45v-1.57H294.8c1,2.95,3.58,5.54,9.15,7l0,.39a2.71,2.71,0,0,0-2.46,2.78c-4.58-2-6.37-5.92-7.14-9.5-1,3.8-3.74,7.29-11.36,9.53l-.25-.41c6-2.76,8.22-6.08,9-9.83h-3.4v1.31c0,.23-.83.74-2.2.74h-.45v-10l3,1.21H292V156.8h-3.87l-.25-.93h7.32Zm-7.32,0a26.3,26.3,0,0,1-4.84,2.76l-.22-.39c3.78-2.59,7.65-7.55,8.58-11.07l4.47,1c-.06.35-.38.51-1.24.58,1.95,2.88,6,4.67,9.5,5.69l0,.42a3.38,3.38,0,0,0-2.21,2.75,16.23,16.23,0,0,1-7.68-8.51A21.15,21.15,0,0,1,287.83,155.87ZM292,163v-2.21h-3.68v4.9h3.52A18.18,18.18,0,0,0,292,163Zm6.56,2.69v-4.9H294.8V163a19.18,19.18,0,0,1-.16,2.72Z"/><path class="cls-1" d="M311.89,151.27l3.36,1.4h6.85v-5.53l4.35.45c-.06.44-.32.76-1.18.89v4.19h7l1.54-1.69,3.23,2.49a2.25,2.25,0,0,1-1.31.68v14.08a4.64,4.64,0,0,1-2.63.86h-.51v-2.43h-7.32v9c0,.38-1.35,1.18-2.53,1.18h-.64v-10.2H315v1.88c0,.32-1.31,1.06-2.62,1.06h-.48V151.27Zm3.1,2.33v5.57h7.11V153.6Zm7.11,6.5H315v5.66h7.11Zm3.17-.93h7.32V153.6h-7.32Zm7.32,6.59V160.1h-7.32v5.66Z"/><path class="cls-1" d="M352.56,153.44l1.54-2s1.76,1.41,2.81,2.4c-.06.35-.38.51-.83.51H344.21l-.22-.93Zm-1.53-4,1.53-2s1.76,1.4,2.82,2.4c-.1.35-.39.51-.83.51h-8.8l-.26-.93Zm.38,8.16,1.44-1.89s1.66,1.35,2.66,2.31c-.1.32-.39.48-.84.48h-8.92l-.26-.9Zm0,4.13,1.44-1.89s1.66,1.34,2.66,2.3c-.1.32-.39.48-.84.48h-8.92l-.26-.89Zm-5.89,3L348.4,166h3.46l1.34-1.5,2.95,2.24a2.45,2.45,0,0,1-1.25.61v7.48c0,.26-1.38.84-2.31.84h-.44v-1.8h-3.91v2.12c0,.28-1.18.89-2.33.89h-.39V164.71Zm2.72,2.14v6.05h3.91v-6.05Zm19.07-19.17c0,.45-.32.77-1.15.87v1.88h2.69l1.63-2.08s1.86,1.44,3,2.5c-.1.35-.39.51-.84.51h-6.46V154h2.18l1.53-1.95s1.76,1.38,2.82,2.37c-.07.35-.38.51-.83.51h-5.7v2.79h3.33l1.66-2.12s1.86,1.48,3,2.5c-.06.35-.38.51-.83.51H356.27l-.25-.89h7.17v-2.79H358l-.26-.93h5.48v-2.59h-6.12l-.22-.93h6.34V147.3Zm-9,12,3.07,1.32h6.88l1.35-1.57,3.2,2.33a2.5,2.5,0,0,1-1.25.61v10.72c0,2.14-.42,3.39-3.81,3.71a4.36,4.36,0,0,0-.57-2.17,3.53,3.53,0,0,0-2.21-1v-.48s2.46.16,3,.16.61-.16.61-.57v-2.91h-7.36v5.88c0,.32-1.21,1-2.43,1h-.48V159.71Zm10.27,5.22v-3h-7.36v3Zm-7.36,4h7.36v-3.07h-7.36Z"/><path class="cls-1" d="M380.08,157.15c.77,1,1.31,1.7,2.18,1.7,1.15,0,4-.32,5.95-.51a38.25,38.25,0,0,0-.22-4.61c-.16-.74-.87-1-2.31-1.31l0-.55a5.86,5.86,0,0,1,2.21-.6c1.18,0,3.42,1,3.42,2.14,0,.7-.45.74-.54,1.86,0,.57-.07,1.69-.07,2.78l6.24-.64a48.26,48.26,0,0,0-.16-5.76c-.09-.77-.86-1-2.33-1.25v-.57a5.79,5.79,0,0,1,2.33-.71c1.64,0,3.75,1.41,3.75,2.34,0,.73-.64.57-.74,2.17l-.09,3.52c3.16-.32,3.52-.57,4.19-.57,1.63,0,3.61.77,3.61,2,0,.83-.41,1-1.15,1-1,0-2.46-.42-5.34-.42l-1.31,0c-.13,4.22-.39,8-2.28,10.65s-5,4.67-9.15,5.92l-.35-.61a17.15,17.15,0,0,0,7.17-6.08c1.41-2.27,1.82-6,1.85-9.72-2.14.12-4.44.35-6.24.57v6.27c0,1.28-.38,1.86-1.28,1.86s-1.76-1.7-1.76-2.82a39,39,0,0,0,.58-5,29.19,29.19,0,0,0-3.49.71,9.82,9.82,0,0,1-2.24.73c-1.05,0-2.33-1.69-2.65-2.4a5.52,5.52,0,0,1-.23-2.05Z"/><path class="cls-1" d="M415.6,156.9c.71.93,1.28,1.57,2.11,1.53,1.48,0,6.37-.57,8.93-.86a38.34,38.34,0,0,0-.25-4.51c-.23-.87-1-1.12-2.47-1.38l0-.61a7.54,7.54,0,0,1,2.72-.64c1.5,0,3.49,1.19,3.49,2.08,0,.68-.61.84-.71,1.73-.09.74-.16,1.86-.19,3,6.24-.83,6.5-1.31,7.3-1.31,1.31,0,3.32.83,3.32,2,0,.8-.44,1.12-1.31,1.12-1.08,0-2.11-.16-3.77-.16-1.25,0-3.49.2-5.6.39v2.75c0,2.91.22,9,.22,10.14,0,1.54-1,3.33-2.46,3.33-1.15,0-1.12-.64-1.89-1.79a8.3,8.3,0,0,0-2.53-2.21l.29-.61a27.48,27.48,0,0,0,3.23.77c.35.06.58,0,.61-.45.13-1.56.13-6.49.1-9.21l0-2.43a58.87,58.87,0,0,0-6,1c-1.25.25-1.73.89-2.56.89s-2.18-1.12-2.72-2.3a6,6,0,0,1-.29-2Zm6,6.49c-.1,3.71-2.12,8.67-4.8,8.67a1.44,1.44,0,0,1-1.51-1.53c0-1.15.74-1.34,2.08-2.43a9.91,9.91,0,0,0,3.49-4.83Zm11.07.07L433,163c3.65,1.05,7.23,3.45,7.58,6.46.13,1.09-.41,1.89-1.44,1.89s-1.57-1.12-2.11-2.18A15.71,15.71,0,0,0,432.66,163.46Zm5.18-15.71a3.5,3.5,0,1,1-3.52,3.48A3.5,3.5,0,0,1,437.84,147.75Zm0,5.82a2.32,2.32,0,1,0-2.3-2.34A2.3,2.3,0,0,0,437.84,153.57Z"/><path class="cls-1" d="M452.82,162c3.17,0,13.47-.67,15.23-.8,2.14-.16,3.36-.42,4.16-.42,1.6,0,3.2.83,3.2,2,0,.76-.61,1.18-1.82,1.18s-2.34-.1-4.49-.1-10.17.48-12.6.77c-2.11.23-2.53.83-3.62.83s-2.88-1.85-3.42-3.2a4.83,4.83,0,0,1-.16-2.17l.57-.19C450.71,161.09,451.25,162,452.82,162Z"/><path class="cls-1" d="M488.75,149.31c1.51,0,4.07,1.41,4.07,2.34s-.64,1.06-.8,2.18c-.16,1.34-.23,3.32-.29,5.18a23.06,23.06,0,0,1,8,2.53,3.48,3.48,0,0,1,2.11,3,1.49,1.49,0,0,1-1.5,1.6c-1.6,0-1.86-1.48-4.1-3.4a20.76,20.76,0,0,0-4.48-2.56c-.06,2.82,0,7.46,0,10.5,0,1.57.1,2.59.1,3.07,0,1.31-.35,1.86-1.38,1.86-1.37,0-2.14-1.76-2.14-3.59,0-.77.29-1.44.41-2.78.26-2.37.29-7.07.29-9.22a76.09,76.09,0,0,0-.29-7.9c-.16-1.06-1-1.34-2.49-1.57l0-.57A8.06,8.06,0,0,1,488.75,149.31Z"/><path class="cls-1" d="M517.87,149.06a6.38,6.38,0,0,1,2.31-.55,4.73,4.73,0,0,1,2.68.74c.64.42.36,1.25-.67,4.58,2.63-.87,3.36-1.54,3.87-1.54a1.36,1.36,0,0,1,1.44,1.28c0,.64-.57,1.06-1,1.38a19.91,19.91,0,0,1-5.18,1.72,57.89,57.89,0,0,1-5.67,12.77c-.67,1-1.18,1.7-2,1.7s-1.37-.87-1.37-1.76a2.84,2.84,0,0,1,.7-1.86,34.26,34.26,0,0,0,5.85-10.46,22.45,22.45,0,0,1-2.36.16c-2.56,0-3.71-.83-4.64-3.84l.48-.35c1.37,1.08,2.27,1.82,4.38,1.82a14.63,14.63,0,0,0,2.88-.35,17.16,17.16,0,0,0,.45-3,1.28,1.28,0,0,0-.74-1.34,6.6,6.6,0,0,0-1.44-.64Zm11.68,5.53a9,9,0,0,1,4.74.1c2.08.67,3.29,2.05,3.29,3.62,0,.92-.35,1.53-1.18,1.53-1.06,0-1.76-.8-3.36-.73a3.77,3.77,0,0,0-2.66,1.15,4.22,4.22,0,0,0-.48,3c.1.93.42,2.69.71,4.48A16,16,0,0,1,535,169.6c1.83,1.06,2.92,2.18,2.92,3.36,0,1-.55,1.44-1.19,1.44-.8,0-1.25-.74-2.24-1.63a13.42,13.42,0,0,0-3.61-2.47l.06,1.25c0,2.75-2.11,4.29-5.6,4.29s-5.41-1.73-5.41-3.9c0-2.5,2.56-4.64,7-4.64l1.19,0c-.07-1.15-.16-2.34-.16-3.36a5.88,5.88,0,0,1,1.4-4.32,11.13,11.13,0,0,1,3.72-2.4c.38-.26.25-.61-.16-1a6.17,6.17,0,0,0-3.43-1Zm-4.09,14.56c-2.76,0-4.1,1.22-4.1,2.27s1,1.92,3.23,1.92c2.66,0,3.68-1.24,3.68-3.1v-.8A13,13,0,0,0,525.46,169.15Z"/><path class="cls-1" d="M552.27,149.19c3.11,0,5,.6,6.18,1.37a4.25,4.25,0,0,1,2.4,3.75c0,.86-.38,1.34-1.28,1.34s-1.51-.29-2.94-.35a25.17,25.17,0,0,0-4.58.48c-.54.09-.7.35-.7.64s.44,1.25.48,2.05a10.66,10.66,0,0,1-.36,2.68,20.8,20.8,0,0,0-.6,4c0,.35.16.38.41.22,2.82-2.11,6.72-4.32,10.66-4.32,5,0,7.42,3.33,7.42,6.69,0,6-8.93,8.48-16.67,7.87l-.1-.74a31.72,31.72,0,0,0,6.31-1.21c5.69-1.83,7.32-4.39,7.32-6.88a4.36,4.36,0,0,0-4.57-4.48c-3.59,0-7.39,3.42-9.5,6-.68.87-1.06,2-2,2a2,2,0,0,1-1.5-.9,2.72,2.72,0,0,1-.77-1.79,23.19,23.19,0,0,1,.39-2.34c.22-1.66.76-4.67,1-6.2a14.36,14.36,0,0,0,.09-2.53,1.63,1.63,0,0,1,1.41-1.79,46,46,0,0,0,5.73-1.6c.41-.2.44-.48.06-.93-.83-1.19-2.46-1.86-4.45-2.5Z"/><path class="cls-2" d="M24,191.7l2-2.4s2.24,1.63,3.62,2.81c-.1.36-.42.52-.87.52H17.58v13.24h7.78l2-2.46s2.28,1.66,3.65,2.88c-.1.35-.45.51-.89.51H17.58v11.1c0,.26-1,1-2.59,1h-.54V206.8h-13l-.26-.93H14.45V192.63H3l-.25-.93ZM8.18,203.09c-.1-2.75-1.48-6.05-2.69-8.42l.35-.19C14.22,199.31,11.19,206,8.18,203.09ZM27.86,196c-.13.35-.52.61-1.22.54a34.32,34.32,0,0,1-6.27,7.62l-.42-.29a63.24,63.24,0,0,0,3.68-9.47Z"/><path class="cls-2" d="M40.31,208.75V199H36.66l-.26-.92h3.91v-8.29l4.16.41c-.07.45-.36.77-1.19.87v7h.54l1.51-2.37s1.44,1.41,2.37,2.46a35.79,35.79,0,0,0,3.32-9l4.29,1.28a1.14,1.14,0,0,1-1.18.64,28.25,28.25,0,0,1-2.05,4H61.9l1.73-1.83,3,2.69a2.07,2.07,0,0,1-1.41.58c-.51,11.26-1.56,18.59-3.58,20.63A5.9,5.9,0,0,1,57,218.77a3,3,0,0,0-.74-2.24,10,10,0,0,0-3.81-1.28l.07-.51c1.76.16,4.45.38,5.34.38a1.81,1.81,0,0,0,1.44-.48c1.51-1.28,2.43-8.7,2.95-18.69H51.5a21.7,21.7,0,0,1-5.63,5.89l-.38-.32A19.38,19.38,0,0,0,47.25,199h-4v8.68l5.41-2,.13.35c-2.28,1.63-5.63,4-10.31,6.82a1.27,1.27,0,0,1-.7.89l-1.76-3.55C37,209.9,38.45,209.39,40.31,208.75Zm19.26-3.16.09.41c-2.33,1.41-5.79,3.39-10.62,5.86a1.44,1.44,0,0,1-.7.86l-1.89-3.49C48.69,208.75,54.06,207.22,59.57,205.59Zm-5-4.26L56.27,199s1.95,1.64,3.11,2.76c-.1.32-.42.48-.87.48h-10l-.25-.9Z"/><path class="cls-2" d="M81.43,193.14l.47.35-.12,5.09v10.11l.06,6.05,4.64.48v.92H73.2v-.92l4.9-.48.06-6.05V195.44l-4.35.58V195Z"/><path class="cls-2" d="M108.72,204.85c0,8.32-3.62,11.81-7.62,11.81s-7.61-3.49-7.61-11.81S97.1,193,101.1,193,108.72,196.5,108.72,204.85ZM101.1,215.6c2.15,0,4.16-2.46,4.16-10.75s-2-10.85-4.16-10.85S97,196.5,97,204.85,99,215.6,101.1,215.6Z"/><path class="cls-2" d="M130.19,204.85c0,8.32-3.61,11.81-7.61,11.81S115,213.17,115,204.85,118.58,193,122.58,193,130.19,196.5,130.19,204.85Zm-7.61,10.75c2.14,0,4.16-2.46,4.16-10.75s-2-10.85-4.16-10.85-4.13,2.5-4.13,10.85S120.43,215.6,122.58,215.6Z"/><path class="cls-2" d="M160.14,192.85l2-2.46s2.18,1.69,3.56,2.88c-.07.32-.42.48-.9.48H149.58a69.12,69.12,0,0,1-.48,6.91h8.1l1.69-1.7,3,2.56a2.18,2.18,0,0,1-1.34.55c-.51,7.83-1.54,13.31-3.33,14.91a6.25,6.25,0,0,1-4.42,1.37,2.66,2.66,0,0,0-.73-2.14,10,10,0,0,0-3.84-1.25l0-.51c1.76.19,4.61.41,5.44.41a1.77,1.77,0,0,0,1.34-.41c1.16-1,2-6.14,2.44-12.86h-8.55c-1,6.46-3.84,12.57-12.38,17.31l-.38-.52c9.5-7.45,9.82-16.35,9.92-24.63h-9.6l-.26-.9Z"/><path class="cls-2" d="M173.58,190.58l3.33,1.41h18.4l1.47-1.73,3.3,2.53a2.61,2.61,0,0,1-1.35.67V214.8c0,2.14-.54,3.46-4.73,3.81a2.85,2.85,0,0,0-1-2.08,8,8,0,0,0-3.52-1.09V215s4.38.29,5.25.29c.67,0,.86-.26.86-.8v-10h-19v13.15c0,.38-1.19,1.15-2.53,1.15h-.55V190.58Zm10.88,13V192.91h-7.8v10.63Zm3.07-10.63v10.63h8.1V192.91Z"/><path class="cls-2" d="M222.83,198.61a16.17,16.17,0,0,1-1.06,5.44c-1.37,4-5,9.95-8.63,9.95-2.4,0-4.71-3.68-4.71-7.77a12.54,12.54,0,0,1,4.51-9.28,14.11,14.11,0,0,1,9.57-3.4c7,0,12.19,4.77,12.19,11.43,0,5.73-3.87,11-14.46,11.55l-.13-.67c8-1.67,11.33-6,11.33-11.62s-4-9.5-9.22-9.5c-.38,0-.8,0-1.21.06A6.5,6.5,0,0,1,222.83,198.61Zm-9-.26a10.13,10.13,0,0,0-3,7.08c0,2.78,1.22,5.11,2.53,5.11,1.95,0,4.83-4.67,5.95-7.23a14.59,14.59,0,0,0,1.31-5.4,5.32,5.32,0,0,0-.93-2.85A12.1,12.1,0,0,0,213.87,198.35Z"/><path class="cls-2" d="M253.45,202.26c2.15,2.53.16,4.93-1.56,3.33a9,9,0,0,0-.45-2.05l-1.83.51v14c0,.19-.89.83-2.3.83h-.48V208.37a1,1,0,0,1-1.09.67,18.89,18.89,0,0,1-3.77,7.33l-.51-.26a31.13,31.13,0,0,0,1.88-8.57l3.49.8v-3.55l-3.17.76a1.23,1.23,0,0,1-.86.71l-1.15-3,3.52-.1c1.85-3.07,3.87-7,5.18-9.82l3.78,1.5c-.16.39-.61.61-1.32.48a69.68,69.68,0,0,1-6.46,7.78l4.83-.26a17.36,17.36,0,0,0-1.31-2.59l.35-.16a9.22,9.22,0,0,1,2.85,1.82c3.23-3.16,6.72-8.83,7.52-12.73l4.13.89c-.1.36-.42.52-1.19.58a19.74,19.74,0,0,0,8.52,8.45l0,.38a3,3,0,0,0-2.08,2.37A21.34,21.34,0,0,1,263.09,191,26.77,26.77,0,0,1,253.45,202.26Zm-8.7-6.88c.77-1.73,1.63-4.13,2.34-6.27l3.93,1.44a1.14,1.14,0,0,1-1.25.57,33.87,33.87,0,0,1-4.25,4.74c2.72,2,1,4.73-1,3.33a10,10,0,0,0-2.78-4.52l.32-.22A8.86,8.86,0,0,1,244.75,195.38Zm7.1,17.88a17.44,17.44,0,0,0-1.56-6l.41-.13C256.75,210.8,254.06,215.44,251.85,213.26Zm3.81-8.63,3.27,1.31h6.94l1.47-1.7,2.91,2.27a1.77,1.77,0,0,1-1.21.55v10.65a3.79,3.79,0,0,1-2.53.74H266v-2.18h-7.43v1.63c0,.26-.92.8-2.43.8h-.48V204.63Zm7.78-3.78,1.57-2.14s1.79,1.47,2.88,2.56c-.1.35-.42.51-.87.51H257l-.26-.93ZM266,215.34v-8.47h-7.43v8.47Z"/><path class="cls-2" d="M288.08,190.45c-.13.42-.55.7-1.25.67a43.59,43.59,0,0,1-3.36,7.07l1.63.58c-.09.29-.38.51-1,.61v18.56a3.81,3.81,0,0,1-2.52.92h-.55V201.71a27.45,27.45,0,0,1-3.93,4.16l-.42-.28a51,51,0,0,0,7-16.48Zm14.56-.48c-.1.48-.39.77-1.19.86v6.69h.9l1.7-2.46s1.95,1.73,3.07,2.88c-.1.32-.42.48-.87.48h-4.8v16.19c0,2.33-.54,3.74-4.92,4.19a3.37,3.37,0,0,0-1.06-2.34,8.36,8.36,0,0,0-3.78-1.21v-.45s4.77.32,5.7.32c.7,0,.9-.22.9-.77V198.42H286.13l-.26-.9h12.42v-8Zm-10.95,19.3c-.44-2.5-2.33-5.54-3.9-7.59l.35-.19C297.2,205.27,294.73,211.6,291.69,209.27Z"/><path class="cls-2" d="M312,203.79l-.2-.41c5.38-3.27,11.65-9.89,13.19-14.43l5,1.24c-.07.42-.51.61-1.47.68,2.91,3.93,8.6,6.65,13.79,8.38l-.07.51a3.82,3.82,0,0,0-2.62,2.88c-4.93-2.56-9.54-6.46-11.65-11.36C324.85,196,318.22,201.2,312,203.79Zm13.15,13.09v-9.95H314.51l-.29-.9h10.95v-4.89h-5.86l-.25-.93h10.71l1.73-2.11s1.92,1.47,3.14,2.53c-.1.35-.42.51-.87.51H328.3V206h6.56l1.86-2.33s2.08,1.6,3.36,2.72c-.1.35-.42.51-.87.51H328.3v9.95h7.62l1.95-2.56s2.24,1.73,3.65,2.94c-.1.36-.45.52-.93.52H312.94l-.25-.9Zm-5.63-2a15.12,15.12,0,0,0-2-6.49l.39-.16C325.49,211.82,322.19,217.52,319.54,214.86Zm17.72-5.24c-.13.35-.54.61-1.25.54a34.63,34.63,0,0,1-5.31,5.66l-.45-.28A60.89,60.89,0,0,0,333,208Z"/><path class="cls-1" d="M356.27,192.15a5.65,5.65,0,0,1,2.56-.61c1.41,0,4.1,1.18,4.1,2.17,0,.8-.8,1.25-1.19,2.21l-1.15,2.79a16.17,16.17,0,0,1,2.37-.23c2.46,0,4,1.47,4,5.51s-1.05,8.54-3.23,11a5.26,5.26,0,0,1-4,2c-1.19,0-1.54-.48-1.92-1.8-.19-.57-.42-.89-2.05-2.49l.29-.48c1.66.93,3,1.63,3.77,1.63a2.53,2.53,0,0,0,2.34-1.38c1.31-1.75,2.33-6,2.33-9.4,0-2-.54-2.91-2.14-2.91a11.61,11.61,0,0,0-2.56.44c-.9,2.12-1.92,4.48-2.81,6.37-1.6,3.36-3.43,7.07-4.68,9.06-.6,1-1.05,1.28-1.76,1.28a1.48,1.48,0,0,1-1.31-1.64,2.52,2.52,0,0,1,.64-1.82A42.59,42.59,0,0,0,354.8,206c.7-1.38,1.38-2.91,2-4.42-1,.36-1.82.71-2.46,1a6.67,6.67,0,0,1-2.59.87c-.9,0-2.24-1.47-2.5-2.66a3.93,3.93,0,0,1,.26-2.05l.51-.12c.48,1,.8,1.82,1.66,1.82a48.33,48.33,0,0,0,6-1.12,22.34,22.34,0,0,0,1.47-5,.87.87,0,0,0-.48-.9,8.66,8.66,0,0,0-2.4-.64Zm12.61,6.27a8.85,8.85,0,0,1,5.73,2.46,8.57,8.57,0,0,1,2.3,6.15c0,1.66-.58,2.91-1.79,2.91-1,0-1-1-2-1.25a15.34,15.34,0,0,0-3.61-.23l-.16-.63a31.65,31.65,0,0,0,3.55-1,1.2,1.2,0,0,0,.89-1.44,7.33,7.33,0,0,0-1.18-3.72,6.12,6.12,0,0,0-4-2.65Zm1-4.87.38-.51a11.37,11.37,0,0,1,4,2.05,2.46,2.46,0,0,1,1,1.86,1,1,0,0,1-1,1c-.55,0-.93-.58-1.51-1.34A13,13,0,0,0,369.87,193.55Zm3-2.14.32-.48a11.64,11.64,0,0,1,4,1.66,2.49,2.49,0,0,1,1.16,2,.9.9,0,0,1-.93,1c-.58,0-.93-.64-1.6-1.41A14,14,0,0,0,372.85,191.41Z"/><path class="cls-1" d="M401.9,202.77c-.06.42-.38.77-1.09.86-.06,1.16-.16,2.21-.25,3.24h6.49l1.76-2.21s2,1.53,3.17,2.62c-.09.35-.41.51-.86.51H400.94c1.12,3.65,4.32,6.37,11.84,7.78V216a2.91,2.91,0,0,0-2.72,2.88c-6.69-2.11-8.83-6.33-9.66-10.87-.83,5.18-3.27,8.6-13.25,10.84l-.25-.57c7.48-2.63,9.63-5.76,10.33-10.47h-7.9A16.7,16.7,0,0,1,383,218.7l-.35-.28c3.68-5.09,4.16-11.36,4.16-16.93v-7.62l3.49,1.35h15.67l1.44-1.6,3.17,2.33a2.15,2.15,0,0,1-1.25.68v5.79a5,5,0,0,1-2.56.77h-.51v-1.67H389.77a40.8,40.8,0,0,1-.31,5.35h7.9c.13-1.38.19-2.85.22-4.48Zm5.47-11.71L409.1,189s1.95,1.47,3.17,2.52c-.06.36-.42.52-.86.52H384.18l-.29-.93Zm-17.6,5.05v4.48h16.45v-4.48Z"/><path class="cls-1" d="M420.75,205.55a3.54,3.54,0,0,0,1.57-.48c2.81-1.24,6.49-3.58,10.46-3.58,4.45,0,7.14,3,7.14,6.18s-1.92,5.24-4.42,6.52-6.78,1.73-10.37,1.47l-.06-.6c6.34-.61,12-2.88,12-7.81a4.15,4.15,0,0,0-4.35-4.38c-3.2,0-6.5,3-7.94,4.09s-2.11,1.7-2.91,1.7a3.76,3.76,0,0,1-2.85-2.08,4.5,4.5,0,0,1-.22-1.79l.35-.16A2.32,2.32,0,0,0,420.75,205.55Z"/><path class="cls-1" d="M447.76,195.6c.51.83,1.28,1.63,2.05,1.63,1.82,0,7.13-1.5,12.61-2.78A50.89,50.89,0,0,1,470,193a6.33,6.33,0,0,1,2.52.44c.77.36,1.28.84,1.28,1.54s-.57,1.15-1.44,1.15-1.76-.09-2.81-.09a9.42,9.42,0,0,0-5.22,1.28c-1.28.83-4.19,3.61-4.19,9.44,0,3.61,1.54,4.92,2.75,5.63,1.92,1,4.64.89,5.7.89s2.21.83,2.21,1.86c0,1.18-1.28,1.5-2.75,1.5-2.21,0-4.9-.22-7-1.66s-3.39-3.52-3.39-7.39A13.28,13.28,0,0,1,463,196.59c.26-.19.23-.38-.13-.28a52.13,52.13,0,0,0-10.08,3.42c-.67.35-1.31,1-2.11,1-1.37,0-3.29-1.82-3.48-3.17a6.45,6.45,0,0,1,.09-1.79Z"/><path class="cls-1" d="M490.16,190.26a6.73,6.73,0,0,1,2.37.61c1.53.8,2.91,2.43,2.91,3.42,0,.83-.8,1.09-2.08,2a94.15,94.15,0,0,0-7.55,6.4c-.9.89-1.15,1.28-1.15,1.66s.44.86,1.12,1.38c3.16,2.36,6.4,4.44,8.64,7.26a5.74,5.74,0,0,1,1.53,3.42,1.69,1.69,0,0,1-1.79,1.86,1.83,1.83,0,0,1-1.57-1c-.38-.68-.7-1.44-1.57-2.79-1.37-2.11-3.77-4.51-7.58-7.74a2.9,2.9,0,0,1-1.22-2.08,3,3,0,0,1,.93-1.89c1.67-2,6.31-6.72,7.65-8.41.51-.64.7-1,.7-1.38,0-.64-.6-1.38-1.69-2.24Z"/><path class="cls-1" d="M521.55,192.72c1-.32,1.06-.73,1.63-.73,1.28,0,3.49,1.72,3.49,2.88,0,.76-1,1-2,1.79a72.79,72.79,0,0,0-7.29,6.46c-.29.29-.13.55.16.42a16.17,16.17,0,0,1,5.44-1.09c4.22,0,7.8,2.72,7.74,7.36,0,4.16-3.74,7.55-10.11,7.55-3.68,0-6.3-1.57-6.3-4.13,0-1.95,1.72-3.29,4-3.29a5.42,5.42,0,0,1,5.4,4.48,5.75,5.75,0,0,0,4.23-5.48c.06-2.81-1.92-5.24-5.73-5.24-4.45,0-7.58,3-10.3,6.53-.64.86-1,1.08-1.6,1.05s-1.19-.7-1.12-1.73c0-.76.44-1.34,1.37-2.24,3.94-4,10.27-10,11.78-12.22.44-.58.16-.77-.29-.7a25.57,25.57,0,0,0-4.7,1.88c-.61.32-1.12.84-1.73.84-1.6,0-2.91-1.86-3.07-2.88a5.08,5.08,0,0,1,.12-2l.52-.06c.48,1,1.12,1.92,2,1.92A35.08,35.08,0,0,0,521.55,192.72Zm-4,18.59c-1.18,0-2,.64-2,1.63,0,1.19,1.41,2.05,4.12,2.05.52,0,1,0,1.48-.06C520.75,212.62,519.34,211.31,517.55,211.31Z"/><path class="cls-1" d="M552.37,191.7l.54.54-6.16,6.16,6.16,6.16-.54.54-6.16-6.16L540,205.12l-.54-.55,6.18-6.17-6.16-6.16.54-.54,6.16,6.16Zm-12.88,6.7a1.4,1.4,0,1,1,1.4,1.4A1.41,1.41,0,0,1,539.49,198.4Zm6.72-6.72a1.4,1.4,0,1,1-1.4,1.4A1.4,1.4,0,0,1,546.21,191.68Zm0,13.44a1.4,1.4,0,1,1,1.4-1.4A1.42,1.42,0,0,1,546.21,205.12Zm6.72-6.72a1.4,1.4,0,1,1-1.4-1.4A1.42,1.42,0,0,1,552.93,198.4Z"/><path class="cls-1" d="M563.78,192.07l.28.21-.07,3v5.9l0,3.53,2.7.28v.54H559V205l2.85-.28,0-3.53v-7.73l-2.54.34v-.62Z"/><path class="cls-1" d="M37.89,34.72c-.06.1-.15.15-.38.1A15.74,15.74,0,0,1,34.59,37a5.69,5.69,0,0,0,3.78,3.4l0,.11a1.09,1.09,0,0,0-.93.9c-2.49-1.17-3.32-3.22-3.62-6.32-.17,2.79-.9,4.93-4.75,6.33l-.1-.17c4.1-2.08,3.86-5,3.87-9.06l1.41.14c0,.15-.12.25-.36.29v.16a14,14,0,0,0,.66,4.05A16.56,16.56,0,0,0,36.65,34ZM31.06,34c.64,1.7.19,2.78-.34,3.25a.68.68,0,0,1-1,0,.6.6,0,0,1,.24-.8,2.85,2.85,0,0,0,1-2.47Z"/><path class="cls-1" d="M47.41,37.16c-.06.1-.15.15-.38.1a14.88,14.88,0,0,1-2.27,1.5,5.7,5.7,0,0,0,3.55,1.67v.12a1,1,0,0,0-.89.9,4.39,4.39,0,0,1-3.59-4.16c-.17,1.77-.83,3.22-4.74,4.15L39,41.29c3.84-1.31,3.82-3.06,3.85-5.38l1.38.13c0,.14-.12.23-.34.26a4.72,4.72,0,0,0,.76,2.3,13.36,13.36,0,0,0,1.61-2.19ZM42,32.62c0,.1-.15.15-.32.11-.33.27-1.24.92-1.78,1.29,2.89.85,1.93,2.49,1.07,1.94a3.9,3.9,0,0,0-1.36-1.9,19.12,19.12,0,0,0,1.17-1.91Zm-.66,4a1.84,1.84,0,0,1-.72,2.26.6.6,0,0,1-.87-.19.56.56,0,0,1,.37-.66,1.69,1.69,0,0,0,1.07-1.42Zm3.38-3.93c0,.09-.15.14-.32.1-.34.26-1.29.88-1.84,1.23,3,.78,2,2.43,1.15,1.89A4,4,0,0,0,42.25,34a18.92,18.92,0,0,0,1.27-1.86Zm2.84,0c-.05.09-.15.14-.33.1-.34.26-1.36.89-1.95,1.24,3.1.8,2.17,2.48,1.27,1.94A4.24,4.24,0,0,0,45,34.05a22.71,22.71,0,0,0,1.39-1.9Z"/><path class="cls-1" d="M51.08,35.19v6a1.07,1.07,0,0,1-.77.29h-.17V36.08A8,8,0,0,1,49,37.35l-.13-.09a16.47,16.47,0,0,0,2.07-5.11l1.38.44c0,.12-.17.2-.4.2A12.39,12.39,0,0,1,51,34.84l.44.16C51.35,35.09,51.26,35.15,51.08,35.19Zm7.19,2c0,.11-.13.16-.28.16H55.46a6.48,6.48,0,0,0,2.95,2.46l0,.11a1,1,0,0,0-.77.82,6.55,6.55,0,0,1-2.27-3.14v3.55a.92.92,0,0,1-.78.29H54.4V38.52a7.94,7.94,0,0,1-2.94,2.35l-.1-.13a8,8,0,0,0,2.55-3.37h-2.4l-.08-.29h3v-1.4h-1V36c0,.09-.41.31-.81.31h-.13V32.41l1,.41h2.82l.48-.52,1,.77a.72.72,0,0,1-.44.21v2.6a1.54,1.54,0,0,1-.79.24h-.16v-.44h-1v1.4h1.29l.57-.74S57.87,36.84,58.27,37.21Zm-4.87-4.1v2.28h3V33.11Z"/><path class="cls-1" d="M59.4,32.4l1,.42h.85l.52-.52,1,.93c-.08.09-.21.12-.45.13a22.11,22.11,0,0,1-1.45,2.33,3.06,3.06,0,0,1,1.42,2.45c0,1-.35,1.49-1.39,1.52a1.74,1.74,0,0,0-.12-.74.93.93,0,0,0-.47-.22v-.13H61a.33.33,0,0,0,.23-.06c.15-.08.24-.28.24-.63a3.33,3.33,0,0,0-.78-2.16c.22-.65.52-1.83.7-2.62h-1v8c0,.08-.29.31-.74.31H59.4V32.4Zm6.27,2.49.45-.6s.52.42.83.73c0,.11-.12.16-.26.16H65.56v1h1.13l.41-.48.85.64a.55.55,0,0,1-.36.17v2.06a1.09,1.09,0,0,1-.73.2h-.14v-.49H65.56c.3.92,1.12,1.73,2.86,2.2v.12a.85.85,0,0,0-.77.87,3.91,3.91,0,0,1-2.23-3c-.3,1.19-1.17,2.28-3.55,3l-.08-.13c1.88-.86,2.57-1.9,2.8-3.07H63.52v.41c0,.07-.26.23-.69.23h-.14V35.76l.94.38h1v-1H63.46l-.08-.29h2.29Zm-2.29,0a8.14,8.14,0,0,1-1.51.86l-.07-.12a7.39,7.39,0,0,0,2.68-3.46l1.4.31c0,.11-.12.16-.39.18a5.47,5.47,0,0,0,3,1.78v.13a1.06,1.06,0,0,0-.69.86,5.08,5.08,0,0,1-2.4-2.66A6.59,6.59,0,0,1,63.38,34.89Zm1.29,2.22v-.69H63.52V38h1.1A5.75,5.75,0,0,0,64.67,37.11Zm2,.84V36.42H65.56v.68a6.06,6.06,0,0,1,0,.85Z"/><path class="cls-1" d="M69.9,33.45l1,.44h2.14V32.16l1.36.14c0,.14-.1.24-.37.28v1.31h2.19l.48-.53,1,.78a.71.71,0,0,1-.41.21v4.4a1.44,1.44,0,0,1-.82.27h-.16v-.76H74.08v2.82c0,.12-.42.37-.79.37h-.2V38.26H70.87v.59c0,.1-.41.33-.82.33H69.9V33.45Zm1,.73v1.74h2.22V34.18Zm2.22,2H70.87V38h2.22Zm1-.29h2.29V34.18H74.08ZM76.37,38V36.21H74.08V38Z"/><path class="cls-1" d="M81.61,34.13l.48-.62s.55.44.88.75c0,.11-.12.16-.26.16H79l-.07-.29Zm-.48-1.26.48-.62s.55.44.88.75c0,.11-.12.16-.26.16H79.48l-.08-.29Zm.12,2.55.45-.59s.52.42.83.72c0,.1-.12.15-.26.15H79.48l-.08-.28Zm0,1.29.45-.59s.52.42.83.72c0,.1-.12.15-.26.15H79.48l-.08-.28Zm-1.84.94.9.39h1.08l.42-.47.92.7a.74.74,0,0,1-.39.19V40.8a1.12,1.12,0,0,1-.72.26h-.14V40.5H80.26v.66c0,.09-.37.28-.73.28h-.12V37.65Zm.85.67v1.89h1.22V38.32Zm6-6c0,.14-.1.24-.36.27v.59h.84l.51-.65s.58.45.93.78c0,.11-.12.16-.26.16h-2v.81h.68l.48-.61s.55.43.88.74c0,.11-.12.16-.26.16H85.86v.87h1l.52-.66s.58.46.94.78c0,.11-.12.16-.26.16H82.77l-.08-.28h2.24v-.87H83.3l-.08-.29h1.71v-.81H83L83,33.19h2v-1Zm-2.81,3.76,1,.41h2.15l.42-.49,1,.73a.78.78,0,0,1-.39.19v3.35c0,.67-.13,1.06-1.19,1.16a1.39,1.39,0,0,0-.18-.68,1.08,1.08,0,0,0-.69-.31V40.3l.94.05c.15,0,.19-.05.19-.18v-.91h-2.3V41.1c0,.1-.38.32-.76.32h-.15V36.09Zm3.21,1.63v-.93h-2.3v.93ZM84.32,39h2.3V38h-2.3Z"/><path class="cls-1" d="M89.21,35.29c.24.3.41.53.68.53s1.26-.1,1.86-.16a12,12,0,0,0-.07-1.44c-.05-.23-.27-.31-.72-.41v-.17a1.84,1.84,0,0,1,.69-.19c.37,0,1.07.32,1.07.67s-.14.23-.17.58c0,.18,0,.53,0,.87l2-.2a15,15,0,0,0,0-1.8c0-.24-.27-.31-.73-.39V33a1.84,1.84,0,0,1,.73-.22c.51,0,1.17.44,1.17.73s-.2.18-.23.68l0,1.1c1-.1,1.1-.18,1.31-.18.51,0,1.13.24,1.13.64s-.13.32-.36.32-.77-.13-1.67-.13h-.41a6.1,6.1,0,0,1-.71,3.33,5.25,5.25,0,0,1-2.86,1.85l-.11-.19A5.38,5.38,0,0,0,93.89,39a6.35,6.35,0,0,0,.58-3c-.67,0-1.39.11-2,.18v2c0,.4-.12.58-.4.58s-.55-.53-.55-.88a12.68,12.68,0,0,0,.18-1.56,9,9,0,0,0-1.09.22,3,3,0,0,1-.7.23c-.33,0-.73-.53-.83-.75a1.77,1.77,0,0,1-.07-.64Z"/><path class="cls-1" d="M99.31,35.21c.22.29.4.49.66.48.46,0,2-.18,2.79-.27a11.47,11.47,0,0,0-.08-1.41c-.07-.27-.31-.35-.77-.43v-.19a2.36,2.36,0,0,1,.85-.2c.47,0,1.09.37,1.09.65s-.19.26-.22.54-.05.58-.06.95c2-.26,2-.41,2.28-.41.41,0,1,.26,1,.62s-.14.35-.41.35-.66,0-1.18,0-1.09.06-1.75.12v.86c0,.91.07,2.83.07,3.17s-.32,1-.77,1-.35-.2-.59-.56a2.62,2.62,0,0,0-.79-.69l.09-.19a8.36,8.36,0,0,0,1,.24c.11,0,.18,0,.19-.14,0-.49,0-2,0-2.88v-.76c-.63.08-1.39.19-1.88.31s-.54.28-.8.28a1.24,1.24,0,0,1-.85-.72,1.91,1.91,0,0,1-.09-.64Zm1.87,2c0,1.16-.66,2.71-1.5,2.71a.45.45,0,0,1-.47-.48c0-.36.23-.42.65-.76A3.09,3.09,0,0,0,101,37.2Zm3.46,0,.11-.16c1.14.33,2.26,1.08,2.37,2,0,.34-.13.59-.45.59s-.49-.35-.66-.68A4.88,4.88,0,0,0,104.64,37.26Zm1.62-4.91a1.1,1.1,0,1,1-1.1,1.09A1.09,1.09,0,0,1,106.26,32.35Zm0,1.82a.73.73,0,1,0-.72-.73A.72.72,0,0,0,106.26,34.17Z"/><path class="cls-1" d="M109.94,36.81c1,0,4.21-.21,4.76-.25s1-.13,1.3-.13c.5,0,1,.26,1,.62s-.19.37-.57.37-.73,0-1.4,0-3.18.15-3.94.24-.79.26-1.13.26-.9-.58-1.07-1a1.56,1.56,0,0,1,0-.68l.18-.06C109.28,36.52,109.45,36.81,109.94,36.81Z"/><path class="cls-1" d="M120.17,32.84c.47,0,1.27.44,1.27.73s-.2.33-.25.68-.07,1-.09,1.62a7.22,7.22,0,0,1,2.49.79,1.09,1.09,0,0,1,.66.94.46.46,0,0,1-.47.5c-.5,0-.58-.46-1.28-1.06a6.32,6.32,0,0,0-1.4-.8c0,.88,0,2.33,0,3.28,0,.49,0,.81,0,1,0,.41-.11.58-.43.58s-.67-.55-.67-1.12c0-.24.09-.45.13-.87.08-.74.09-2.21.09-2.88a24.37,24.37,0,0,0-.09-2.47c0-.33-.32-.42-.78-.49v-.18A2.51,2.51,0,0,1,120.17,32.84Z"/><path class="cls-1" d="M125.7,36.49l-.07-.12a9.78,9.78,0,0,0,4.05-4.28l1.59.38c0,.14-.16.2-.46.22a8.66,8.66,0,0,0,4.26,2.54l0,.16a1.22,1.22,0,0,0-.82.93,7.26,7.26,0,0,1-3.59-3.51A10.7,10.7,0,0,1,125.7,36.49Zm2.35,3.66a22,22,0,0,0,.85-2.44h-2.65l-.09-.28h6.7l.61-.76s.7.52,1.12.89c0,.1-.13.15-.28.15h-4.15a21.06,21.06,0,0,1-1.66,2.42l4-.23a9.25,9.25,0,0,0-1.2-1.44l.1-.08c3.65,1.26,2.92,3.7,1.78,2.9a4.46,4.46,0,0,0-.53-1.14c-1.28.28-3,.61-5.41,1a.41.41,0,0,1-.28.22l-.58-1.17Zm3.12-4.49.57-.72s.65.49,1.06.84c0,.11-.13.16-.27.16h-4.59l-.08-.28Z"/><path class="cls-1" d="M137.25,34.14V32.22l1.26.11c0,.14-.11.24-.37.28v1.53h.26l.56-.53.82.88a.74.74,0,0,1-.45.12,7.33,7.33,0,0,1-1.09,1.6c2.08.54,1.5,2,.73,1.49a3.85,3.85,0,0,0-.79-1.22v4.66a.9.9,0,0,1-.76.3h-.18V37.2a8.33,8.33,0,0,1-1.63,1.1l-.1-.1a9.66,9.66,0,0,0,2.83-3.78h-2.5l-.09-.28Zm4.13,1.57V32.24l1.35.13c0,.15-.1.25-.36.28v3.06h.89l.55-.74s.62.51,1,.87c0,.11-.13.16-.27.16h-2.17v4.71h1.1L144,40s.65.53,1,.89c0,.11-.12.16-.26.16h-5.93l-.08-.29h2.59V36h-1.84l-.08-.29Z"/><path class="cls-2" d="M59.1,8.82l.19,9.11v6.32l3.23.32v.84H55.59v-.84l2.52-.32V7.33L58,7.12l-2.37-.19V6.12h5.33l10.24,15L71.1,14.2V7.25l-3.31-.32V6.12h6.93v.81l-2.57.32V25.54H70.57Z"/><path class="cls-2" d="M76.29,18.45c0-4.67,3.23-7.29,6.88-7.29s6.9,2.6,6.9,7.29-3,7.38-6.9,7.38S76.29,23.15,76.29,18.45Zm10.6.06c0-4.28-1.39-6.49-3.72-6.49s-3.7,2.21-3.7,6.49S80.86,25,83.17,25,86.89,22.78,86.89,18.51Z"/><path class="cls-2" d="M93,23.91A1.87,1.87,0,0,1,94.92,22a1.89,1.89,0,0,1,1.92,1.91,1.93,1.93,0,0,1-1.92,1.92A1.91,1.91,0,0,1,93,23.91Z"/><path class="cls-2" d="M111.36,0l.53.39L111.75,6V17.18l.07,6.67,5.13.53v1H102.28v-1l5.41-.53.07-6.67V2.54L103,3.18V2Z"/><path class="cls-3" d="M165.11,50a25.24,25.24,0,0,0,4-23.72,20.67,20.67,0,0,0-4.6-7.84c.05.27,0,.3.06.31a23.81,23.81,0,0,1,5.16,13,24.65,24.65,0,0,1-1.52,11.11A21.77,21.77,0,0,1,155.62,56,23,23,0,0,1,147,57.74c-.51,0-1,.12-.87.78s.51.62,1,.56c1.44-.19,2.9-.3,4.32-.59A22.23,22.23,0,0,0,165.11,50Z"/><path class="cls-4" d="M157.15,47.56a6,6,0,0,0-1,7.26c1.82-.89,3.19-2.15,3.49-4.15a22.09,22.09,0,0,0,0-3.9,11.81,11.81,0,0,0-.27-1.52C158.49,46.14,157.79,46.83,157.15,47.56Z"/><path class="cls-5" d="M158.14,57.17a5.85,5.85,0,0,0,4.91,2.11,14,14,0,0,0,5-1.79c-.9-.49-1.68-1-2.5-1.36C162.66,54.72,160.52,55,158.14,57.17Z"/><path class="cls-6" d="M162.4,39.62c-.4,1.24-.85,2.41-1.15,3.61a5.39,5.39,0,0,0,2,5.72C165.61,46.5,165.21,41.87,162.4,39.62Z"/><path class="cls-7" d="M166,50.75c3.22,1.74,6.06.52,8.77-2.89C171,46.87,167.61,47.2,166,50.75Z"/><path class="cls-8" d="M170.27,42.05c3.21,1,5.74-1.23,7.24-4.93C173.52,37.37,170.92,38.44,170.27,42.05Z"/><path class="cls-9" d="M167.62,41.5c1.25-2.88-.63-6.74-3.8-7.83C163.41,37.54,164.21,40.29,167.62,41.5Z"/><path class="cls-10" d="M171.35,33.29c3,.11,5.83-3.24,5.56-6.52C172.88,28,171,30.16,171.35,33.29Z"/><path class="cls-11" d="M163.1,27.37c.59,4,2.4,6.22,5.63,6.32C169.2,30.66,167.2,28.4,163.1,27.37Z"/><path class="cls-12" d="M172,16.67c-3,2.65-4.12,5.37-2.27,8.13C172.39,23.25,172.87,21.57,172,16.67Z"/><path class="cls-13" d="M160.3,21c1.65,3.65,4,5.4,6.93,4.53C166.79,22.58,164.35,21,160.3,21Z"/><path class="cls-14" d="M160.06,14.37c-.76-3-3.59-3.88-6.7-3.52C155.08,14.05,157.54,15.34,160.06,14.37Z"/><path class="cls-15" d="M155.54,17.08c2.6,2.49,5.22,2.94,7.36,1.31C161.64,16.29,159.43,15.6,155.54,17.08Z"/><path class="cls-16" d="M164.42,16.87c2-1.68,2-4.43.09-7.48C162.48,12.45,162.47,15.19,164.42,16.87Z"/><path class="cls-17" d="M30.65,57.78c-1.2-.1-2.4-.15-3.59-.35a21.31,21.31,0,0,1-14.17-8.24A24.73,24.73,0,0,1,8.1,29.72a24.48,24.48,0,0,1,5.06-11.41c-.12.12-.26.23-.37.36a22.85,22.85,0,0,0-5.64,14,24.64,24.64,0,0,0,.91,8.66A23.39,23.39,0,0,0,19.38,56a25.19,25.19,0,0,0,11.21,3.1c.44,0,.78-.06.8-.59S31.09,57.82,30.65,57.78Z"/><path class="cls-18" d="M14.52,55.31a13,13,0,0,0-5,2.12l-.06.27a32.16,32.16,0,0,0,4.36,1.51,5.42,5.42,0,0,0,5.54-2.1A5.89,5.89,0,0,0,14.52,55.31Z"/><path class="cls-19" d="M18.35,45.42l-.35.13c-.07,1.38-.21,2.76-.2,4.13a5.47,5.47,0,0,0,3.62,5.06c1-2,1.17-4-.12-5.83A44.26,44.26,0,0,0,18.35,45.42Z"/><path class="cls-20" d="M7.89,47.55a12.66,12.66,0,0,0-5.23.22c2.56,3.29,5.44,4.86,8.92,3A5.45,5.45,0,0,0,7.89,47.55Z"/><path class="cls-21" d="M14.92,39.7c-2.67,3.54-3.13,6.5-.7,9.24C17.2,46.57,17,43.25,14.92,39.7Z"/><path class="cls-22" d="M7.26,42c-.59-3.89-4-4.83-7.26-4.9C1.51,40.93,4.17,43.08,7.26,42Z"/><path class="cls-23" d="M13.72,33.62c-3.4,1.51-5.3,5.54-3.77,7.88C13.08,40.32,14,38.32,13.72,33.62Z"/><path class="cls-24" d="M6.12,33.28c.54-3.21-1.76-5.43-5.59-6.5C1,30.54,2.72,33.31,6.12,33.28Z"/><path class="cls-25" d="M14.52,27.34c-4.09,1-6.33,3.38-5.72,6.4C12.76,33.48,13.79,30.6,14.52,27.34Z"/><path class="cls-26" d="M7.86,24.83c1.77-2.89.58-5.67-2.25-8.09C4.54,20.19,4.69,23.09,7.86,24.83Z"/><path class="cls-27" d="M10.23,25.56c2.95.83,5.41-.8,7-4.58C13,21.08,11,22.37,10.23,25.56Z"/><path class="cls-28" d="M24.16,10.78c-3.39-.18-5.81.48-6.74,3.6C20.27,15.33,22.43,14,24.16,10.78Z"/><path class="cls-29" d="M21.9,17.1c-3.21-1.33-5.58-1.22-7.34,1.28C16.9,20.08,19.34,19.56,21.9,17.1Z"/><path class="cls-30" d="M13.11,16.86C15,15.14,15,12.52,13,9.42,11.06,12.27,11.1,15.22,13.11,16.86Z"/><path class="cls-1" d="M226.89,34.72c-.06.1-.15.15-.38.1a15.74,15.74,0,0,1-2.92,2.2,5.69,5.69,0,0,0,3.78,3.4l0,.11a1.09,1.09,0,0,0-.93.9c-2.49-1.17-3.32-3.22-3.62-6.32-.17,2.79-.9,4.93-4.75,6.33l-.1-.17c4.1-2.08,3.86-5,3.87-9.06l1.41.14c0,.15-.12.25-.36.29v.16a14,14,0,0,0,.66,4.05,16.56,16.56,0,0,0,2.12-2.9ZM220.06,34c.64,1.7.19,2.78-.34,3.25a.68.68,0,0,1-1.05,0,.6.6,0,0,1,.24-.8,2.85,2.85,0,0,0,1-2.47Z"/><path class="cls-1" d="M236.41,37.16c-.06.1-.15.15-.38.1a14.88,14.88,0,0,1-2.27,1.5,5.7,5.7,0,0,0,3.55,1.67v.12a1,1,0,0,0-.89.9,4.39,4.39,0,0,1-3.59-4.16c-.17,1.77-.83,3.22-4.74,4.15l-.09-.15c3.84-1.31,3.82-3.06,3.85-5.38l1.38.13c0,.14-.12.23-.34.26a4.72,4.72,0,0,0,.76,2.3,13.36,13.36,0,0,0,1.61-2.19ZM231,32.62c-.05.1-.15.15-.32.11-.33.27-1.24.92-1.78,1.29,2.89.85,1.93,2.49,1.07,1.94a3.9,3.9,0,0,0-1.36-1.9,19.12,19.12,0,0,0,1.17-1.91Zm-.66,4a1.84,1.84,0,0,1-.72,2.26.6.6,0,0,1-.87-.19.56.56,0,0,1,.37-.66,1.69,1.69,0,0,0,1.07-1.42Zm3.38-3.93c-.05.09-.15.14-.32.1-.34.26-1.29.88-1.84,1.23,3,.78,2,2.43,1.15,1.89A4,4,0,0,0,231.25,34a18.92,18.92,0,0,0,1.27-1.86Zm2.84,0c-.05.09-.15.14-.33.1-.34.26-1.36.89-1.95,1.24,3.1.8,2.17,2.48,1.27,1.94a4.24,4.24,0,0,0-1.57-1.9,22.71,22.71,0,0,0,1.39-1.9Z"/><path class="cls-1" d="M240.08,35.19v6a1.07,1.07,0,0,1-.77.29h-.17V36.08A8,8,0,0,1,238,37.35l-.13-.09a16.47,16.47,0,0,0,2.07-5.11l1.38.44c0,.12-.17.2-.4.2a12.39,12.39,0,0,1-.93,2.05l.44.16C240.35,35.09,240.26,35.15,240.08,35.19Zm7.19,2c0,.11-.13.16-.28.16h-2.53a6.48,6.48,0,0,0,2.95,2.46l0,.11a1,1,0,0,0-.77.82,6.55,6.55,0,0,1-2.27-3.14v3.55a.92.92,0,0,1-.78.29h-.17V38.52a7.94,7.94,0,0,1-2.94,2.35l-.1-.13a8,8,0,0,0,2.55-3.37h-2.4l-.08-.29h3v-1.4h-1V36c0,.09-.41.31-.81.31h-.13V32.41l1,.41h2.82l.48-.52,1,.77a.72.72,0,0,1-.44.21v2.6a1.54,1.54,0,0,1-.79.24h-.16v-.44h-1v1.4h1.29l.57-.74S246.87,36.84,247.27,37.21Zm-4.87-4.1v2.28h3V33.11Z"/><path class="cls-1" d="M248.4,32.4l1,.42h.85l.52-.52,1,.93c-.08.09-.21.12-.45.13a22.11,22.11,0,0,1-1.45,2.33,3.06,3.06,0,0,1,1.42,2.45c0,1-.35,1.49-1.39,1.52a1.74,1.74,0,0,0-.12-.74.93.93,0,0,0-.47-.22v-.13H250a.33.33,0,0,0,.23-.06c.15-.08.24-.28.24-.63a3.33,3.33,0,0,0-.78-2.16c.22-.65.52-1.83.7-2.62h-1v8c0,.08-.29.31-.74.31h-.17V32.4Zm6.27,2.49.45-.6s.52.42.83.73c0,.11-.12.16-.26.16h-1.13v1h1.13l.41-.48.85.64a.55.55,0,0,1-.36.17v2.06a1.09,1.09,0,0,1-.73.2h-.14v-.49h-1.16c.3.92,1.12,1.73,2.86,2.2v.12a.85.85,0,0,0-.77.87,3.91,3.91,0,0,1-2.23-3c-.3,1.19-1.17,2.28-3.55,3l-.08-.13c1.88-.86,2.57-1.9,2.8-3.07h-1.06v.41c0,.07-.26.23-.69.23h-.14V35.76l.94.38h1v-1h-1.21l-.08-.29h2.29Zm-2.29,0a8.14,8.14,0,0,1-1.51.86l-.07-.12a7.39,7.39,0,0,0,2.68-3.46l1.4.31c0,.11-.12.16-.39.18a5.47,5.47,0,0,0,3,1.78v.13a1.06,1.06,0,0,0-.69.86,5.08,5.08,0,0,1-2.4-2.66A6.59,6.59,0,0,1,252.38,34.89Zm1.29,2.22v-.69h-1.15V38h1.1A5.75,5.75,0,0,0,253.67,37.11Zm2.05.84V36.42h-1.16v.68a6.06,6.06,0,0,1-.05.85Z"/><path class="cls-1" d="M258.9,33.45l1.05.44h2.14V32.16l1.36.14c0,.14-.1.24-.37.28v1.31h2.19l.48-.53,1,.78a.71.71,0,0,1-.41.21v4.4a1.44,1.44,0,0,1-.82.27h-.16v-.76h-2.29v2.82c0,.12-.42.37-.79.37h-.2V38.26h-2.22v.59c0,.1-.41.33-.82.33h-.15V33.45Zm1,.73v1.74h2.22V34.18Zm2.22,2h-2.22V38h2.22Zm1-.29h2.29V34.18h-2.29ZM265.37,38V36.21h-2.29V38Z"/><path class="cls-1" d="M270.61,34.13l.48-.62s.55.44.88.75c0,.11-.12.16-.26.16H268l-.07-.29Zm-.48-1.26.48-.62s.55.44.88.75c0,.11-.12.16-.26.16h-2.75l-.08-.29Zm.12,2.55.45-.59s.52.42.83.72c0,.1-.12.15-.26.15h-2.79l-.08-.28Zm0,1.29.45-.59s.52.42.83.72c0,.1-.12.15-.26.15h-2.79l-.08-.28Zm-1.84.94.9.39h1.08l.42-.47.92.7a.74.74,0,0,1-.39.19V40.8a1.12,1.12,0,0,1-.72.26h-.14V40.5h-1.22v.66c0,.09-.37.28-.73.28h-.12V37.65Zm.85.67v1.89h1.22V38.32Zm6-6c0,.14-.1.24-.36.27v.59h.84l.51-.65s.58.45.93.78c0,.11-.12.16-.26.16h-2v.81h.68l.48-.61s.55.43.88.74c0,.11-.12.16-.26.16h-1.78v.87h1l.52-.66s.58.46.94.78c0,.11-.12.16-.26.16h-5.33l-.08-.28h2.24v-.87H272.3l-.08-.29h1.71v-.81H272l-.07-.29h2v-1Zm-2.81,3.76,1,.41h2.15l.42-.49,1,.73a.78.78,0,0,1-.39.19v3.35c0,.67-.13,1.06-1.19,1.16a1.39,1.39,0,0,0-.18-.68,1.08,1.08,0,0,0-.69-.31V40.3l.94.05c.15,0,.19-.05.19-.18v-.91h-2.3V41.1c0,.1-.38.32-.76.32h-.15V36.09Zm3.21,1.63v-.93h-2.3v.93ZM273.32,39h2.3V38h-2.3Z"/><path class="cls-1" d="M278.21,35.29c.24.3.41.53.68.53s1.26-.1,1.86-.16a12,12,0,0,0-.07-1.44c-.05-.23-.27-.31-.72-.41v-.17a1.84,1.84,0,0,1,.69-.19c.37,0,1.07.32,1.07.67s-.14.23-.17.58c0,.18,0,.53,0,.87l2-.2a15,15,0,0,0-.05-1.8c0-.24-.27-.31-.73-.39V33a1.84,1.84,0,0,1,.73-.22c.51,0,1.17.44,1.17.73s-.2.18-.23.68l0,1.1c1-.1,1.1-.18,1.31-.18.51,0,1.13.24,1.13.64s-.13.32-.36.32-.77-.13-1.67-.13h-.41a6.1,6.1,0,0,1-.71,3.33,5.25,5.25,0,0,1-2.86,1.85l-.11-.19a5.38,5.38,0,0,0,2.24-1.9,6.35,6.35,0,0,0,.58-3c-.67,0-1.39.11-2,.18v2c0,.4-.12.58-.4.58s-.55-.53-.55-.88a12.68,12.68,0,0,0,.18-1.56,9,9,0,0,0-1.09.22,3,3,0,0,1-.7.23c-.33,0-.73-.53-.83-.75a1.77,1.77,0,0,1-.07-.64Z"/><path class="cls-1" d="M288.31,35.21c.22.29.4.49.66.48.46,0,2-.18,2.79-.27a11.47,11.47,0,0,0-.08-1.41c-.07-.27-.31-.35-.77-.43v-.19a2.36,2.36,0,0,1,.85-.2c.47,0,1.09.37,1.09.65s-.19.26-.22.54-.05.58-.06.95c1.95-.26,2-.41,2.28-.41.41,0,1,.26,1,.62s-.14.35-.41.35-.66,0-1.18,0-1.09.06-1.75.12v.86c0,.91.07,2.83.07,3.17s-.32,1-.77,1-.35-.2-.59-.56a2.62,2.62,0,0,0-.79-.69l.09-.19a8.36,8.36,0,0,0,1,.24c.11,0,.18,0,.19-.14,0-.49,0-2,0-2.88v-.76c-.63.08-1.39.19-1.88.31s-.54.28-.8.28a1.24,1.24,0,0,1-.85-.72,1.91,1.91,0,0,1-.09-.64Zm1.87,2c0,1.16-.66,2.71-1.5,2.71a.45.45,0,0,1-.47-.48c0-.36.23-.42.65-.76A3.09,3.09,0,0,0,290,37.2Zm3.46,0,.11-.16c1.14.33,2.26,1.08,2.37,2,0,.34-.13.59-.45.59s-.49-.35-.66-.68A4.88,4.88,0,0,0,293.64,37.26Zm1.62-4.91a1.1,1.1,0,1,1-1.1,1.09A1.09,1.09,0,0,1,295.26,32.35Zm0,1.82a.73.73,0,1,0-.72-.73A.72.72,0,0,0,295.26,34.17Z"/><path class="cls-1" d="M298.94,36.81c1,0,4.21-.21,4.76-.25s1.05-.13,1.3-.13c.5,0,1,.26,1,.62s-.19.37-.57.37-.73,0-1.4,0-3.18.15-3.94.24-.79.26-1.13.26-.9-.58-1.07-1a1.56,1.56,0,0,1-.05-.68l.18-.06C298.28,36.52,298.45,36.81,298.94,36.81Z"/><path class="cls-1" d="M309.17,32.84c.47,0,1.27.44,1.27.73s-.2.33-.25.68-.07,1-.09,1.62a7.22,7.22,0,0,1,2.49.79,1.09,1.09,0,0,1,.66.94.46.46,0,0,1-.47.5c-.5,0-.58-.46-1.28-1.06a6.32,6.32,0,0,0-1.4-.8c0,.88,0,2.33,0,3.28,0,.49,0,.81,0,1,0,.41-.11.58-.43.58s-.67-.55-.67-1.12c0-.24.09-.45.13-.87.08-.74.09-2.21.09-2.88a24.37,24.37,0,0,0-.09-2.47c-.05-.33-.32-.42-.78-.49v-.18A2.51,2.51,0,0,1,309.17,32.84Z"/><path class="cls-1" d="M314.7,36.49l-.07-.12a9.78,9.78,0,0,0,4.05-4.28l1.59.38c0,.14-.16.2-.46.22a8.66,8.66,0,0,0,4.26,2.54l0,.16a1.22,1.22,0,0,0-.82.93,7.26,7.26,0,0,1-3.59-3.51A10.7,10.7,0,0,1,314.7,36.49Zm2.35,3.66a22,22,0,0,0,.85-2.44h-2.65l-.09-.28h6.7l.61-.76s.7.52,1.12.89c0,.1-.13.15-.28.15h-4.15a21.06,21.06,0,0,1-1.66,2.42l4-.23a9.25,9.25,0,0,0-1.2-1.44l.1-.08c3.65,1.26,2.92,3.7,1.78,2.9a4.46,4.46,0,0,0-.53-1.14c-1.28.28-3,.61-5.41,1a.41.41,0,0,1-.28.22l-.58-1.17Zm3.12-4.49.57-.72s.65.49,1.06.84c0,.11-.13.16-.27.16h-4.59l-.08-.28Z"/><path class="cls-1" d="M326.25,34.14V32.22l1.26.11c0,.14-.11.24-.37.28v1.53h.26l.56-.53.82.88a.74.74,0,0,1-.45.12,7.33,7.33,0,0,1-1.09,1.6c2.08.54,1.5,2,.73,1.49a3.85,3.85,0,0,0-.79-1.22v4.66a.9.9,0,0,1-.76.3h-.18V37.2a8.33,8.33,0,0,1-1.63,1.1l-.1-.1a9.66,9.66,0,0,0,2.83-3.78h-2.5l-.09-.28Zm4.13,1.57V32.24l1.35.13c0,.15-.1.25-.36.28v3.06h.89l.55-.74s.62.51,1,.87c0,.11-.13.16-.27.16h-2.17v4.71h1.1L333,40s.65.53,1,.89c0,.11-.12.16-.26.16h-5.93l-.08-.29h2.59V36h-1.84l-.08-.29Z"/><path class="cls-2" d="M248.1,8.82l.19,9.11v6.32l3.23.32v.84h-6.93v-.84l2.52-.32V7.33L247,7.12l-2.37-.19V6.12h5.33l10.24,15-.08-6.93V7.25l-3.31-.32V6.12h6.93v.81l-2.57.32V25.54h-1.58Z"/><path class="cls-2" d="M265.29,18.45c0-4.67,3.23-7.29,6.88-7.29s6.9,2.6,6.9,7.29-3.05,7.38-6.9,7.38S265.29,23.15,265.29,18.45Zm10.6.06c0-4.28-1.39-6.49-3.72-6.49s-3.7,2.21-3.7,6.49,1.39,6.45,3.7,6.45S275.89,22.78,275.89,18.51Z"/><path class="cls-2" d="M282,23.91A1.87,1.87,0,0,1,283.92,22a1.89,1.89,0,0,1,1.92,1.91,1.93,1.93,0,0,1-1.92,1.92A1.91,1.91,0,0,1,282,23.91Z"/><path class="cls-2" d="M300.36,0l.53.39L300.75,6V17.18l.07,6.67,5.13.53v1H291.28v-1l5.41-.53.07-6.67V2.54L292,3.18V2Z"/><path class="cls-31" d="M354.11,50a25.24,25.24,0,0,0,4-23.72,20.67,20.67,0,0,0-4.6-7.84c0,.27,0,.3.06.31a23.81,23.81,0,0,1,5.16,13,24.65,24.65,0,0,1-1.52,11.11A21.77,21.77,0,0,1,344.62,56,23,23,0,0,1,336,57.74c-.51,0-.95.12-.87.78s.51.62,1,.56c1.44-.19,2.9-.3,4.32-.59A22.23,22.23,0,0,0,354.11,50Z"/><path class="cls-32" d="M346.15,47.56a6,6,0,0,0-1,7.26c1.82-.89,3.19-2.15,3.49-4.15a22.09,22.09,0,0,0,0-3.9,11.81,11.81,0,0,0-.27-1.52C347.49,46.14,346.79,46.83,346.15,47.56Z"/><path class="cls-33" d="M347.14,57.17a5.85,5.85,0,0,0,4.91,2.11,14,14,0,0,0,5.05-1.79c-.9-.49-1.68-1-2.5-1.36C351.66,54.72,349.52,55,347.14,57.17Z"/><path class="cls-34" d="M351.4,39.62c-.4,1.24-.85,2.41-1.15,3.61a5.39,5.39,0,0,0,2,5.72C354.61,46.5,354.21,41.87,351.4,39.62Z"/><path class="cls-35" d="M355,50.75c3.22,1.74,6.06.52,8.77-2.89C360,46.87,356.61,47.2,355,50.75Z"/><path class="cls-36" d="M359.27,42.05c3.21,1,5.74-1.23,7.24-4.93C362.52,37.37,359.92,38.44,359.27,42.05Z"/><path class="cls-37" d="M356.62,41.5c1.25-2.88-.63-6.74-3.8-7.83C352.41,37.54,353.21,40.29,356.62,41.5Z"/><path class="cls-38" d="M360.35,33.29c3,.11,5.83-3.24,5.56-6.52C361.88,28,360,30.16,360.35,33.29Z"/><path class="cls-39" d="M352.1,27.37c.59,4,2.4,6.22,5.63,6.32C358.2,30.66,356.2,28.4,352.1,27.37Z"/><path class="cls-40" d="M361,16.67c-3,2.65-4.12,5.37-2.27,8.13C361.39,23.25,361.87,21.57,361,16.67Z"/><path class="cls-41" d="M349.3,21c1.65,3.65,4,5.4,6.93,4.53C355.79,22.58,353.35,21,349.3,21Z"/><path class="cls-42" d="M349.06,14.37c-.76-3-3.59-3.88-6.7-3.52C344.08,14.05,346.54,15.34,349.06,14.37Z"/><path class="cls-43" d="M344.54,17.08c2.6,2.49,5.22,2.94,7.36,1.31C350.64,16.29,348.43,15.6,344.54,17.08Z"/><path class="cls-44" d="M353.42,16.87c2-1.68,2-4.43.09-7.48C351.48,12.45,351.47,15.19,353.42,16.87Z"/><path class="cls-45" d="M219.65,57.78c-1.2-.1-2.4-.15-3.59-.35a21.31,21.31,0,0,1-14.17-8.24,24.73,24.73,0,0,1-4.79-19.47,24.48,24.48,0,0,1,5.06-11.41c-.12.12-.26.23-.37.36a22.85,22.85,0,0,0-5.64,14,24.64,24.64,0,0,0,.91,8.66A23.39,23.39,0,0,0,208.38,56a25.19,25.19,0,0,0,11.21,3.1c.44,0,.78-.06.8-.59S220.09,57.82,219.65,57.78Z"/><path class="cls-46" d="M203.52,55.31a13,13,0,0,0-5,2.12l-.06.27a32.16,32.16,0,0,0,4.36,1.51,5.42,5.42,0,0,0,5.54-2.1A5.89,5.89,0,0,0,203.52,55.31Z"/><path class="cls-47" d="M207.35,45.42l-.35.13c-.07,1.38-.21,2.76-.2,4.13a5.47,5.47,0,0,0,3.62,5.06c1-2,1.17-4-.12-5.83A44.26,44.26,0,0,0,207.35,45.42Z"/><path class="cls-48" d="M196.89,47.55a12.66,12.66,0,0,0-5.23.22c2.56,3.29,5.44,4.86,8.92,3A5.45,5.45,0,0,0,196.89,47.55Z"/><path class="cls-49" d="M203.92,39.7c-2.67,3.54-3.13,6.5-.7,9.24C206.2,46.57,206,43.25,203.92,39.7Z"/><path class="cls-50" d="M196.26,42c-.59-3.89-4-4.83-7.26-4.9C190.51,40.93,193.17,43.08,196.26,42Z"/><path class="cls-51" d="M202.72,33.62c-3.4,1.51-5.3,5.54-3.77,7.88C202.08,40.32,203,38.32,202.72,33.62Z"/><path class="cls-52" d="M195.12,33.28c.54-3.21-1.76-5.43-5.59-6.5C190,30.54,191.72,33.31,195.12,33.28Z"/><path class="cls-53" d="M203.52,27.34c-4.09,1-6.33,3.38-5.72,6.4C201.76,33.48,202.79,30.6,203.52,27.34Z"/><path class="cls-54" d="M196.86,24.83c1.77-2.89.58-5.67-2.25-8.09C193.54,20.19,193.69,23.09,196.86,24.83Z"/><path class="cls-55" d="M199.23,25.56c3,.83,5.41-.8,7-4.58C202,21.08,200,22.37,199.23,25.56Z"/><path class="cls-56" d="M213.16,10.78c-3.39-.18-5.81.48-6.74,3.6C209.27,15.33,211.43,14,213.16,10.78Z"/><path class="cls-57" d="M210.9,17.1c-3.21-1.33-5.58-1.22-7.34,1.28C205.9,20.08,208.34,19.56,210.9,17.1Z"/><path class="cls-58" d="M202.11,16.86C204,15.14,204,12.52,202,9.42,200.06,12.27,200.1,15.22,202.11,16.86Z"/><path class="cls-1" d="M415.89,34.72c-.06.1-.15.15-.38.1a15.74,15.74,0,0,1-2.92,2.2,5.69,5.69,0,0,0,3.78,3.4l0,.11a1.09,1.09,0,0,0-.93.9c-2.49-1.17-3.32-3.22-3.62-6.32-.17,2.79-.9,4.93-4.75,6.33l-.1-.17c4.1-2.08,3.86-5,3.87-9.06l1.41.14c0,.15-.12.25-.36.29v.16a14,14,0,0,0,.66,4.05,16.56,16.56,0,0,0,2.12-2.9ZM409.06,34c.64,1.7.19,2.78-.34,3.25a.68.68,0,0,1-1.05,0,.6.6,0,0,1,.24-.8,2.85,2.85,0,0,0,1-2.47Z"/><path class="cls-1" d="M425.41,37.16c-.06.1-.15.15-.38.1a14.88,14.88,0,0,1-2.27,1.5,5.7,5.7,0,0,0,3.55,1.67v.12a1,1,0,0,0-.89.9,4.39,4.39,0,0,1-3.59-4.16c-.17,1.77-.83,3.22-4.74,4.15l-.09-.15c3.84-1.31,3.82-3.06,3.85-5.38l1.38.13c0,.14-.12.23-.34.26a4.72,4.72,0,0,0,.76,2.3,13.36,13.36,0,0,0,1.61-2.19ZM420,32.62c-.05.1-.15.15-.32.11-.33.27-1.24.92-1.78,1.29,2.89.85,1.93,2.49,1.07,1.94a3.9,3.9,0,0,0-1.36-1.9,19.12,19.12,0,0,0,1.17-1.91Zm-.66,4a1.84,1.84,0,0,1-.72,2.26.6.6,0,0,1-.87-.19.56.56,0,0,1,.37-.66,1.69,1.69,0,0,0,1.07-1.42Zm3.38-3.93c-.05.09-.15.14-.32.1-.34.26-1.29.88-1.84,1.23,3,.78,2,2.43,1.15,1.89A4,4,0,0,0,420.25,34a18.92,18.92,0,0,0,1.27-1.86Zm2.84,0c-.05.09-.15.14-.33.1-.34.26-1.36.89-2,1.24,3.1.8,2.17,2.48,1.27,1.94a4.24,4.24,0,0,0-1.57-1.9,22.71,22.71,0,0,0,1.39-1.9Z"/><path class="cls-1" d="M429.08,35.19v6a1.07,1.07,0,0,1-.77.29h-.17V36.08A8,8,0,0,1,427,37.35l-.13-.09a16.47,16.47,0,0,0,2.07-5.11l1.38.44c0,.12-.17.2-.4.2a12.39,12.39,0,0,1-.93,2.05l.44.16C429.35,35.09,429.26,35.15,429.08,35.19Zm7.19,2c0,.11-.13.16-.28.16h-2.53a6.48,6.48,0,0,0,3,2.46l0,.11a1,1,0,0,0-.77.82,6.55,6.55,0,0,1-2.27-3.14v3.55a.92.92,0,0,1-.78.29h-.17V38.52a7.94,7.94,0,0,1-2.94,2.35l-.1-.13a8,8,0,0,0,2.55-3.37h-2.4l-.08-.29h3v-1.4h-1V36c0,.09-.41.31-.81.31h-.13V32.41l1,.41h2.82l.48-.52,1,.77a.72.72,0,0,1-.44.21v2.6a1.54,1.54,0,0,1-.79.24h-.16v-.44h-1v1.4h1.29l.57-.74S435.87,36.84,436.27,37.21Zm-4.87-4.1v2.28h3V33.11Z"/><path class="cls-1" d="M437.4,32.4l1,.42h.85l.52-.52,1,.93c-.08.09-.21.12-.45.13a22.11,22.11,0,0,1-1.45,2.33,3.06,3.06,0,0,1,1.42,2.45c0,1-.35,1.49-1.39,1.52a1.74,1.74,0,0,0-.12-.74.93.93,0,0,0-.47-.22v-.13H439a.33.33,0,0,0,.23-.06c.15-.08.24-.28.24-.63a3.33,3.33,0,0,0-.78-2.16c.22-.65.52-1.83.7-2.62h-1v8c0,.08-.29.31-.74.31h-.17V32.4Zm6.27,2.49.45-.6s.52.42.83.73c0,.11-.12.16-.26.16h-1.13v1h1.13l.41-.48.85.64a.55.55,0,0,1-.36.17v2.06a1.09,1.09,0,0,1-.73.2h-.14v-.49h-1.16c.3.92,1.12,1.73,2.86,2.2v.12a.85.85,0,0,0-.77.87,3.91,3.91,0,0,1-2.23-3c-.3,1.19-1.17,2.28-3.55,3l-.08-.13c1.88-.86,2.57-1.9,2.8-3.07h-1.06v.41c0,.07-.26.23-.69.23h-.14V35.76l.94.38h1v-1h-1.21l-.08-.29h2.29Zm-2.29,0a8.14,8.14,0,0,1-1.51.86l-.07-.12a7.39,7.39,0,0,0,2.68-3.46l1.4.31c0,.11-.12.16-.39.18a5.47,5.47,0,0,0,3,1.78v.13a1.06,1.06,0,0,0-.69.86,5.08,5.08,0,0,1-2.4-2.66A6.59,6.59,0,0,1,441.38,34.89Zm1.29,2.22v-.69h-1.15V38h1.1A5.75,5.75,0,0,0,442.67,37.11Zm2.05.84V36.42h-1.16v.68a6.06,6.06,0,0,1-.05.85Z"/><path class="cls-1" d="M447.9,33.45l1.05.44h2.14V32.16l1.36.14c0,.14-.1.24-.37.28v1.31h2.19l.48-.53,1,.78a.71.71,0,0,1-.41.21v4.4a1.44,1.44,0,0,1-.82.27h-.16v-.76h-2.29v2.82c0,.12-.42.37-.79.37h-.2V38.26h-2.22v.59c0,.1-.41.33-.82.33h-.15V33.45Zm1,.73v1.74h2.22V34.18Zm2.22,2h-2.22V38h2.22Zm1-.29h2.29V34.18h-2.29ZM454.37,38V36.21h-2.29V38Z"/><path class="cls-1" d="M459.61,34.13l.48-.62s.55.44.88.75c0,.11-.12.16-.26.16H457l-.07-.29Zm-.48-1.26.48-.62s.55.44.88.75c0,.11-.12.16-.26.16h-2.75l-.08-.29Zm.12,2.55.45-.59s.52.42.83.72c0,.1-.12.15-.26.15h-2.79l-.08-.28Zm0,1.29.45-.59s.52.42.83.72c0,.1-.12.15-.26.15h-2.79l-.08-.28Zm-1.84.94.9.39h1.08l.42-.47.92.7a.74.74,0,0,1-.39.19V40.8a1.12,1.12,0,0,1-.72.26h-.14V40.5h-1.22v.66c0,.09-.37.28-.73.28h-.12V37.65Zm.85.67v1.89h1.22V38.32Zm6-6c0,.14-.1.24-.36.27v.59h.84l.51-.65s.58.45.93.78c0,.11-.12.16-.26.16h-2v.81h.68l.48-.61s.55.43.88.74c0,.11-.12.16-.26.16h-1.78v.87h1l.52-.66s.58.46.94.78c0,.11-.12.16-.26.16h-5.33l-.08-.28h2.24v-.87H461.3l-.08-.29h1.71v-.81H461l-.07-.29h2v-1Zm-2.81,3.76,1,.41h2.15l.42-.49,1,.73a.78.78,0,0,1-.39.19v3.35c0,.67-.13,1.06-1.19,1.16a1.39,1.39,0,0,0-.18-.68,1.08,1.08,0,0,0-.69-.31V40.3l.94.05c.15,0,.19-.05.19-.18v-.91h-2.3V41.1c0,.1-.38.32-.76.32h-.15V36.09Zm3.21,1.63v-.93h-2.3v.93ZM462.32,39h2.3V38h-2.3Z"/><path class="cls-1" d="M467.21,35.29c.24.3.41.53.68.53s1.26-.1,1.86-.16a12,12,0,0,0-.07-1.44c-.05-.23-.27-.31-.72-.41v-.17a1.84,1.84,0,0,1,.69-.19c.37,0,1.07.32,1.07.67s-.14.23-.17.58c0,.18,0,.53,0,.87l2-.2a15,15,0,0,0-.05-1.8c0-.24-.27-.31-.73-.39V33a1.84,1.84,0,0,1,.73-.22c.51,0,1.17.44,1.17.73s-.2.18-.23.68l0,1.1c1-.1,1.1-.18,1.31-.18.51,0,1.13.24,1.13.64s-.13.32-.36.32-.77-.13-1.67-.13h-.41a6.1,6.1,0,0,1-.71,3.33,5.25,5.25,0,0,1-2.86,1.85l-.11-.19a5.38,5.38,0,0,0,2.24-1.9,6.35,6.35,0,0,0,.58-3c-.67,0-1.39.11-2,.18v2c0,.4-.12.58-.4.58s-.55-.53-.55-.88a12.68,12.68,0,0,0,.18-1.56,9,9,0,0,0-1.09.22,3,3,0,0,1-.7.23c-.33,0-.73-.53-.83-.75a1.77,1.77,0,0,1-.07-.64Z"/><path class="cls-1" d="M477.31,35.21c.22.29.4.49.66.48.46,0,2-.18,2.79-.27a11.47,11.47,0,0,0-.08-1.41c-.07-.27-.31-.35-.77-.43v-.19a2.36,2.36,0,0,1,.85-.2c.47,0,1.09.37,1.09.65s-.19.26-.22.54-.05.58-.06.95c1.95-.26,2-.41,2.28-.41.41,0,1,.26,1,.62s-.14.35-.41.35-.66,0-1.18,0-1.09.06-1.75.12v.86c0,.91.07,2.83.07,3.17s-.32,1-.77,1-.35-.2-.59-.56a2.62,2.62,0,0,0-.79-.69l.09-.19a8.36,8.36,0,0,0,1,.24c.11,0,.18,0,.19-.14,0-.49,0-2,0-2.88v-.76c-.63.08-1.39.19-1.88.31s-.54.28-.8.28a1.24,1.24,0,0,1-.85-.72,1.91,1.91,0,0,1-.09-.64Zm1.87,2c0,1.16-.66,2.71-1.5,2.71a.45.45,0,0,1-.47-.48c0-.36.23-.42.65-.76A3.09,3.09,0,0,0,479,37.2Zm3.46,0,.11-.16c1.14.33,2.26,1.08,2.37,2,0,.34-.13.59-.45.59s-.49-.35-.66-.68A4.88,4.88,0,0,0,482.64,37.26Zm1.62-4.91a1.1,1.1,0,1,1-1.1,1.09A1.09,1.09,0,0,1,484.26,32.35Zm0,1.82a.73.73,0,1,0-.72-.73A.72.72,0,0,0,484.26,34.17Z"/><path class="cls-1" d="M487.94,36.81c1,0,4.21-.21,4.76-.25s1.05-.13,1.3-.13c.5,0,1,.26,1,.62s-.19.37-.57.37-.73,0-1.4,0-3.18.15-3.94.24-.79.26-1.13.26-.9-.58-1.07-1a1.56,1.56,0,0,1-.05-.68l.18-.06C487.28,36.52,487.45,36.81,487.94,36.81Z"/><path class="cls-1" d="M498.17,32.84c.47,0,1.27.44,1.27.73s-.2.33-.25.68-.07,1-.09,1.62a7.22,7.22,0,0,1,2.49.79,1.09,1.09,0,0,1,.66.94.46.46,0,0,1-.47.5c-.5,0-.58-.46-1.28-1.06a6.32,6.32,0,0,0-1.4-.8c0,.88,0,2.33,0,3.28,0,.49,0,.81,0,1,0,.41-.11.58-.43.58s-.67-.55-.67-1.12c0-.24.09-.45.13-.87.08-.74.09-2.21.09-2.88a24.37,24.37,0,0,0-.09-2.47c-.05-.33-.32-.42-.78-.49v-.18A2.51,2.51,0,0,1,498.17,32.84Z"/><path class="cls-1" d="M503.7,36.49l-.07-.12a9.78,9.78,0,0,0,4.05-4.28l1.59.38c0,.14-.16.2-.46.22a8.66,8.66,0,0,0,4.26,2.54l0,.16a1.22,1.22,0,0,0-.82.93,7.26,7.26,0,0,1-3.59-3.51A10.7,10.7,0,0,1,503.7,36.49Zm2.35,3.66a22,22,0,0,0,.85-2.44h-2.65l-.09-.28h6.7l.61-.76s.7.52,1.12.89c0,.1-.13.15-.28.15h-4.15a21.06,21.06,0,0,1-1.66,2.42l4-.23a9.25,9.25,0,0,0-1.2-1.44l.1-.08c3.65,1.26,2.92,3.7,1.78,2.9a4.46,4.46,0,0,0-.53-1.14c-1.28.28-3,.61-5.41,1a.41.41,0,0,1-.28.22l-.58-1.17Zm3.12-4.49.57-.72s.65.49,1.06.84c0,.11-.13.16-.27.16h-4.59l-.08-.28Z"/><path class="cls-1" d="M515.25,34.14V32.22l1.26.11c0,.14-.11.24-.37.28v1.53h.26l.56-.53.82.88a.74.74,0,0,1-.45.12,7.33,7.33,0,0,1-1.09,1.6c2.08.54,1.5,2,.73,1.49a3.85,3.85,0,0,0-.79-1.22v4.66a.9.9,0,0,1-.76.3h-.18V37.2a8.33,8.33,0,0,1-1.63,1.1l-.1-.1a9.66,9.66,0,0,0,2.83-3.78h-2.5l-.09-.28Zm4.13,1.57V32.24l1.35.13c0,.15-.1.25-.36.28v3.06h.89l.55-.74s.62.51,1,.87c0,.11-.13.16-.27.16h-2.17v4.71h1.1L522,40s.65.53,1,.89c0,.11-.12.16-.26.16h-5.93l-.08-.29h2.59V36h-1.84l-.08-.29Z"/><path class="cls-2" d="M437.1,8.82l.19,9.11v6.32l3.23.32v.84h-6.93v-.84l2.52-.32V7.33L436,7.12l-2.37-.19V6.12h5.33l10.24,15-.08-6.93V7.25l-3.31-.32V6.12h6.93v.81l-2.57.32V25.54h-1.58Z"/><path class="cls-2" d="M454.29,18.45c0-4.67,3.23-7.29,6.88-7.29s6.9,2.6,6.9,7.29-3.05,7.38-6.9,7.38S454.29,23.15,454.29,18.45Zm10.6.06c0-4.28-1.39-6.49-3.72-6.49s-3.7,2.21-3.7,6.49,1.39,6.45,3.7,6.45S464.89,22.78,464.89,18.51Z"/><path class="cls-2" d="M471,23.91A1.87,1.87,0,0,1,472.92,22a1.89,1.89,0,0,1,1.92,1.91,1.93,1.93,0,0,1-1.92,1.92A1.91,1.91,0,0,1,471,23.91Z"/><path class="cls-2" d="M489.36,0l.53.39L489.75,6V17.18l.07,6.67,5.13.53v1H480.28v-1l5.41-.53.07-6.67V2.54L481,3.18V2Z"/><path class="cls-59" d="M543.11,50a25.24,25.24,0,0,0,4-23.72,20.67,20.67,0,0,0-4.6-7.84c0,.27,0,.3.06.31a23.81,23.81,0,0,1,5.16,13,24.65,24.65,0,0,1-1.52,11.11A21.77,21.77,0,0,1,533.62,56,23,23,0,0,1,525,57.74c-.51,0-1,.12-.87.78s.51.62,1,.56c1.44-.19,2.9-.3,4.32-.59A22.23,22.23,0,0,0,543.11,50Z"/><path class="cls-60" d="M535.15,47.56a6,6,0,0,0-1,7.26c1.82-.89,3.19-2.15,3.49-4.15a22.09,22.09,0,0,0,0-3.9,11.81,11.81,0,0,0-.27-1.52C536.49,46.14,535.79,46.83,535.15,47.56Z"/><path class="cls-61" d="M536.14,57.17a5.85,5.85,0,0,0,4.91,2.11,14,14,0,0,0,5.05-1.79c-.9-.49-1.68-1-2.5-1.36C540.66,54.72,538.52,55,536.14,57.17Z"/><path class="cls-62" d="M540.4,39.62c-.4,1.24-.85,2.41-1.15,3.61a5.39,5.39,0,0,0,2,5.72C543.61,46.5,543.21,41.87,540.4,39.62Z"/><path class="cls-63" d="M544,50.75c3.22,1.74,6.06.52,8.77-2.89C549,46.87,545.61,47.2,544,50.75Z"/><path class="cls-64" d="M548.27,42.05c3.21,1,5.74-1.23,7.24-4.93C551.52,37.37,548.92,38.44,548.27,42.05Z"/><path class="cls-65" d="M545.62,41.5c1.25-2.88-.63-6.74-3.8-7.83C541.41,37.54,542.21,40.29,545.62,41.5Z"/><path class="cls-66" d="M549.35,33.29c3,.11,5.83-3.24,5.56-6.52C550.88,28,549,30.16,549.35,33.29Z"/><path class="cls-67" d="M541.1,27.37c.59,4,2.4,6.22,5.63,6.32C547.2,30.66,545.2,28.4,541.1,27.37Z"/><path class="cls-68" d="M550,16.67c-3,2.65-4.12,5.37-2.27,8.13C550.39,23.25,550.87,21.57,550,16.67Z"/><path class="cls-69" d="M538.3,21c1.65,3.65,4,5.4,6.93,4.53C544.79,22.58,542.35,21,538.3,21Z"/><path class="cls-70" d="M538.06,14.37c-.76-3-3.59-3.88-6.7-3.52C533.08,14.05,535.54,15.34,538.06,14.37Z"/><path class="cls-71" d="M533.54,17.08c2.6,2.49,5.22,2.94,7.36,1.31C539.64,16.29,537.43,15.6,533.54,17.08Z"/><path class="cls-72" d="M542.42,16.87c2-1.68,2-4.43.09-7.48C540.48,12.45,540.47,15.19,542.42,16.87Z"/><path class="cls-73" d="M408.65,57.78c-1.2-.1-2.4-.15-3.59-.35a21.31,21.31,0,0,1-14.17-8.24,24.73,24.73,0,0,1-4.79-19.47,24.48,24.48,0,0,1,5.06-11.41c-.12.12-.26.23-.37.36a22.85,22.85,0,0,0-5.64,14,24.64,24.64,0,0,0,.91,8.66A23.39,23.39,0,0,0,397.38,56a25.19,25.19,0,0,0,11.21,3.1c.44,0,.78-.06.8-.59S409.09,57.82,408.65,57.78Z"/><path class="cls-74" d="M392.52,55.31a13,13,0,0,0-5,2.12l-.06.27a32.16,32.16,0,0,0,4.36,1.51,5.42,5.42,0,0,0,5.54-2.1A5.89,5.89,0,0,0,392.52,55.31Z"/><path class="cls-75" d="M396.35,45.42l-.35.13c-.07,1.38-.21,2.76-.2,4.13a5.47,5.47,0,0,0,3.62,5.06c1-2,1.17-4-.12-5.83A44.26,44.26,0,0,0,396.35,45.42Z"/><path class="cls-76" d="M385.89,47.55a12.66,12.66,0,0,0-5.23.22c2.56,3.29,5.44,4.86,8.92,3A5.45,5.45,0,0,0,385.89,47.55Z"/><path class="cls-77" d="M392.92,39.7c-2.67,3.54-3.13,6.5-.7,9.24C395.2,46.57,395,43.25,392.92,39.7Z"/><path class="cls-78" d="M385.26,42c-.59-3.89-4-4.83-7.26-4.9C379.51,40.93,382.17,43.08,385.26,42Z"/><path class="cls-79" d="M391.72,33.62c-3.4,1.51-5.3,5.54-3.77,7.88C391.08,40.32,392,38.32,391.72,33.62Z"/><path class="cls-80" d="M384.12,33.28c.54-3.21-1.76-5.43-5.59-6.5C379,30.54,380.72,33.31,384.12,33.28Z"/><path class="cls-81" d="M392.52,27.34c-4.09,1-6.33,3.38-5.72,6.4C390.76,33.48,391.79,30.6,392.52,27.34Z"/><path class="cls-82" d="M385.86,24.83c1.77-2.89.58-5.67-2.25-8.09C382.54,20.19,382.69,23.09,385.86,24.83Z"/><path class="cls-83" d="M388.23,25.56c2.95.83,5.41-.8,7-4.58C391,21.08,389,22.37,388.23,25.56Z"/><path class="cls-84" d="M402.16,10.78c-3.39-.18-5.81.48-6.74,3.6C398.27,15.33,400.43,14,402.16,10.78Z"/><path class="cls-85" d="M399.9,17.1c-3.21-1.33-5.58-1.22-7.34,1.28C394.9,20.08,397.34,19.56,399.9,17.1Z"/><path class="cls-86" d="M391.11,16.86C393,15.14,393,12.52,391,9.42,389.06,12.27,389.1,15.22,391.11,16.86Z"/><path class="cls-2" d="M48,64.67h-.3V50.55l2,.83h8.75l1-1.13,2.07,1.62a1.67,1.67,0,0,1-1,.48V63.82a2.58,2.58,0,0,1-1.57.52h-.27v-2H49.54V64C49.54,64.24,48.82,64.67,48,64.67ZM58.67,51.9H49.54v9.92h9.13Z"/><path class="cls-2" d="M65.6,59.68a2.37,2.37,0,0,0,1.67,1c.78,0,5.12-.48,7.23-.66.32-2,.72-4.67.77-5.68q0-.21-.18-.21c-.79,0-4.86.5-6,.75a10.6,10.6,0,0,1-1.5.49c-.56,0-1.4-.92-1.6-1.51a4.32,4.32,0,0,1-.16-1.12l.3-.11c.49.47.8.94,1.43.94.93,0,5.76-.5,6.8-.65.71-.09.85-.54,1.28-.54.58,0,2.2,1,2.2,1.68,0,.46-.54.68-.69,1.26-.23.92-.63,2.82-1,4.66a1.38,1.38,0,0,1,1.22,1.17c0,.36-.23.52-.79.52s-1.49-.21-2.92-.21A23.26,23.26,0,0,0,69,62a11.85,11.85,0,0,1-1.69.45A2.59,2.59,0,0,1,65.58,61a3.21,3.21,0,0,1-.25-1.19Z"/><path class="cls-2" d="M89.51,61.86c.77.47,1.24,1,1.24,1.55s-.23.86-.92.86c-.5,0-1-.43-1.71-1a18.59,18.59,0,0,0-6.18-2.92L82,60A18.06,18.06,0,0,1,89.51,61.86Zm-1.7-5.92c.78.34,1.32.77,1.32,1.45a.75.75,0,0,1-.78.8c-.39,0-.7-.22-1.31-.63a20.79,20.79,0,0,0-4.5-2.18l.09-.35A14.22,14.22,0,0,1,87.81,55.94Zm2-1.84c-.52,0-.76-.25-1.39-.74A14.9,14.9,0,0,0,83.31,51l.08-.34a17.3,17.3,0,0,1,5.69,1c1.08.5,1.42,1,1.42,1.67A.78.78,0,0,1,89.76,54.1Z"/><path class="cls-2" d="M110.35,63.39l0,.21a2,2,0,0,0-1.73,1.64c-4.65-2.5-6.11-6.69-6.59-12.28-.34,4.49-1.66,9.08-8.27,12.36L93.52,65c6.84-4.67,6.71-10.48,6.73-16.1l2.52.25c0,.26-.19.44-.65.51C102.5,56.48,104.16,60.87,110.35,63.39Z"/><path class="cls-2" d="M118.45,49.51c-.09.21-.32.36-.72.3-.2.4-.41.76-.63,1.12h7.6l1.06-1.31s1.19.86,1.95,1.54c-.06.2-.24.29-.51.29H116.76a14.1,14.1,0,0,1-5.1,4.65l-.2-.18A18.31,18.31,0,0,0,116,48.53Zm-.22,10A14.5,14.5,0,0,0,120,56.42l2.27,1.06c-.11.2-.27.31-.72.22a15.37,15.37,0,0,1-2,2.65c3.89,2.86,2.45,5.27,1,4.17a12.68,12.68,0,0,0-2.16-3,18.05,18.05,0,0,1-6.77,3.8l-.13-.23a18.11,18.11,0,0,0,5.91-4.57,23,23,0,0,0-3.62-2.74l.12-.25A25,25,0,0,1,118.23,59.48Zm4.81-4,.92-1,1.82,1.43a1.32,1.32,0,0,1-.72.28c0,2.52.41,5.84,1.91,6.76.19.12.3.1.39-.11a15.36,15.36,0,0,0,.58-1.64l.2,0L128,63.55c.43.67.54,1.12.3,1.44-.5.61-1.48.29-2.18-.23-2.19-1.48-2.73-5-2.84-8.74h-9.55l-.16-.52Zm.51-2.34,1-1.24s1.16.85,1.84,1.48c0,.19-.23.28-.47.28H116l-.14-.52Z"/><path class="cls-2" d="M227.4,52.17l.87-1.11s1,.77,1.58,1.33c0,.2-.21.29-.47.29h-6.77l-.12-.51Zm-1-2.27.86-1.11s1,.77,1.59,1.33a.43.43,0,0,1-.47.29h-5l-.15-.51Zm.22,4.58.81-1s.93.74,1.49,1.28c-.05.2-.22.29-.47.29h-5l-.15-.52Zm0,2.32.81-1s.93.74,1.49,1.28c-.05.2-.22.29-.47.29h-5l-.15-.52Zm-3.32,1.71,1.62.68h1.95l.75-.84,1.66,1.28a1.23,1.23,0,0,1-.7.32v4.23a2.12,2.12,0,0,1-1.3.47h-.25v-1h-2.2v1.21c0,.14-.66.5-1.31.5h-.22V58.51Zm1.53,1.21v3.4h2.2v-3.4Zm5.82-.45c.63,1.9.27,3.31-.33,3.94a.93.93,0,0,1-1.45-.05,1,1,0,0,1,.43-1.23,3.44,3.44,0,0,0,1.06-2.66Zm1.67-7.37a15,15,0,0,0,.24-1.6h-2.54l-.16-.51h7l.85-.86,1.62,1.32a1.24,1.24,0,0,1-.71.3c-.1,3.87-.36,5.55-1.09,6.18a2.77,2.77,0,0,1-1.86.59,1.6,1.6,0,0,0-.25-1.1,2.64,2.64,0,0,0-1.28-.54l0-.25c.52,0,1.4.09,1.73.09a.63.63,0,0,0,.52-.16c.34-.33.52-1.93.61-5.06h-2.64a18.69,18.69,0,0,1-.45,2.11c2.1,1,1.83,2.68.5,2.43a6.82,6.82,0,0,0-1.06-1,7.64,7.64,0,0,1-4,3.69l-.16-.25A7.94,7.94,0,0,0,232.12,53a14.13,14.13,0,0,0-2.11-1l.13-.22A13,13,0,0,1,232.37,51.9Zm1.43,7a.55.55,0,0,1-.54.45v3.89c0,.22.05.29.48.29h1.06c.47,0,.85,0,1,0a.36.36,0,0,0,.33-.16,9.86,9.86,0,0,0,.52-1.71h.21l.06,1.74c.43.18.52.35.52.65,0,.61-.59,1-2.77,1h-1.35c-1.35,0-1.57-.33-1.57-1.36V58.67Zm.82.81a6.3,6.3,0,0,0-2.68-2.41l.13-.16C236.73,57,236.3,60.33,234.62,59.68Zm3.23,3.51a8.8,8.8,0,0,0-1.26-4l.19-.11C241,61.28,239.31,64.63,237.85,63.19Z"/><path class="cls-2" d="M243.13,50.25a5.1,5.1,0,0,1,.26,1.06h4.68V48.57l2.43.2c0,.25-.18.43-.65.5v2h4.81l1-1,1.69,1.61a1.05,1.05,0,0,1-.7.21A16.46,16.46,0,0,1,254.41,54c.3.23.66.52.93.76-.05.19-.23.28-.48.28h-5.05v3.44h2.81l1-1.26s1.13.89,1.81,1.5c0,.2-.23.29-.48.29h-5.12v4.12a24.8,24.8,0,0,0,3,.14c1,0,3.44,0,4.61,0v.23a1.4,1.4,0,0,0-1,1.48H252.7c-4.16,0-6.47-.78-7.84-4.22a9.65,9.65,0,0,1-4.19,4.6l-.15-.18c2.38-2.13,3.3-5.48,3.55-8.23l2.41.45c-.07.25-.27.39-.68.41a13.32,13.32,0,0,1-.74,2.47,5.06,5.06,0,0,0,3,2.52V55H243l-.14-.52h9.67l1-1.19.59.44a19.33,19.33,0,0,0,.63-1.95H243.44a2.8,2.8,0,0,1-1,2.54,1.06,1.06,0,0,1-1.59-.29,1,1,0,0,1,.63-1.26,2.87,2.87,0,0,0,1.42-2.55Z"/><path class="cls-2" d="M268.43,59c0,.21-.18.39-.62.45v1.11h4.43l1.1-1.36s1.24.93,2,1.6c-.05.2-.25.27-.51.27h-7v3.8a2.27,2.27,0,0,1-1.44.45h-.32V61.05h-7.27l-.15-.51h7.42V58.76Zm-4.38-3.59.09.22c-.86.76-2.12,1.87-3.87,3.24a.62.62,0,0,1-.32.52l-1.17-1.69C259.68,57.36,261.87,56.4,264.05,55.39Zm4.36-6.57c0,.24-.16.4-.6.47V51h3.93l1.08-1.34s1.24.92,2,1.57a.48.48,0,0,1-.51.29h-7.74l1.53.7c-.09.2-.32.32-.68.29a20.68,20.68,0,0,1-1.77,1.35c1.19,1,.22,2.39-.84,1.64a4.81,4.81,0,0,0-1.43-2.42l.18-.12a5.26,5.26,0,0,1,1.53.5c.27-.56.56-1.26.83-1.94h-6.61l-.16-.52h6.88V48.62Zm-7,6.34a6.5,6.5,0,0,0-1.6-2.93l.18-.11C264.34,53.25,262.92,56.33,261.4,55.16Zm8.67-1.28c-.11.2-.35.31-.74.24a26.67,26.67,0,0,1-3.64,3.17l3.26-.13a7.55,7.55,0,0,0-.83-1.37l.18-.11c4.21,1.32,2.56,4.36,1.08,3a4.26,4.26,0,0,0-.23-1.08c-1.16.3-2.67.66-4.72,1.13a.66.66,0,0,1-.45.38l-1-1.8,2,0A30.6,30.6,0,0,0,268.14,53Zm3.52,4.88a12.39,12.39,0,0,0-3.52-3.26l.14-.18C275.83,56,275.36,59.46,273.59,58.76Zm.85-5.74c-.11.18-.36.29-.76.2A18.21,18.21,0,0,1,270.62,55l-.19-.2a26.63,26.63,0,0,0,2-3Z"/><path class="cls-2" d="M278,55.56a5,5,0,0,0-1.53-2.38l.14-.13C280.83,53.59,279.53,56.62,278,55.56Zm.05,4.1c.35-.63.35-.63,3.17-7.42l.31.08c-.61,2.07-1.76,5.94-2,6.82a7.64,7.64,0,0,0-.22,1.6c0,.92.67,1.64.61,3.21a1.27,1.27,0,0,1-1.27,1.38c-.36,0-.71-.28-.8-.9.31-1.87.22-3.49-.18-3.76a2,2,0,0,0-.9-.27V60h.8C277.8,60,277.87,60,278.05,59.66Zm1.25-8.23a7,7,0,0,0-1.82-2.54l.16-.12C282.09,49.25,280.94,52.41,279.3,51.43Zm2.18,4.32,1.6.71h3.08V54.67h-4.88l-.15-.52h3V51.79h-2.66l-.15-.5h2.81V48.73l2.27.2c0,.25-.2.43-.67.51v1.85h2.42V48.73l2.28.2c0,.25-.2.43-.66.51v1.85h.84l.92-1.23s1,.85,1.67,1.45c0,.19-.23.28-.48.28h-3v2.36h1l.95-1.26s1.09.87,1.75,1.5c-.05.19-.23.28-.49.28h-5.16v1.79h3.15l.75-.89,1.77,1.32a1.42,1.42,0,0,1-.81.4v6.08c0,1.08-.24,1.77-2.16,1.95a1.79,1.79,0,0,0-.42-1.1,2.8,2.8,0,0,0-1.49-.56v-.25s1.8.11,2.18.11.38-.11.38-.36V57h-3.48v4.36h1.23V58l1.54.16c0,.16-.12.29-.41.34v3.87c0,.13-.5.38-.9.38h-.23v-.9H285v.92c0,.12-.49.36-.85.36H284V58l1.48.16c0,.16-.13.29-.4.34v2.85h1.24V57H283v7.81c0,.17-.63.53-1.26.53h-.23V55.75Zm4.26-1.6h2.42V51.79h-2.42Z"/><path class="cls-2" d="M300.45,57.56c-.06.25-.27.41-.69.43a14.78,14.78,0,0,1-.55,2.1,4.93,4.93,0,0,0,3,2.63V55h-3v.73c0,.17-.74.54-1.44.54h-.27V49.17l1.84.75h7.42l.84-.94,1.8,1.39a1.15,1.15,0,0,1-.73.36v4.84a2.33,2.33,0,0,1-1.44.51h-.29V55h-3v3.56h3.17l1.08-1.35s1.24.94,2,1.59c0,.19-.24.28-.51.28h-5.72v4a21.68,21.68,0,0,0,3.06.16c1,0,3.35,0,4.48,0v.23c-.58.12-.88.7-.9,1.4h-3.67c-4.2,0-6.47-.81-7.85-4.32a9.07,9.07,0,0,1-4.16,4.77l-.16-.19c2.3-2.06,3.13-5.32,3.33-8Zm-1.32-7.13v4.08h7.73V50.43Z"/><path class="cls-2" d="M314.32,50.12l2,.83h4.32V48.61l2.34.19c0,.26-.2.44-.65.49V51h4.12l1-1.33s1.15.91,1.84,1.56c-.06.18-.23.27-.49.27H316V54h2.86V52l2.23.22c0,.21-.18.37-.61.45V54h3V52l2.26.22c0,.21-.16.37-.59.45V54h1.53l.94-1.22s1,.85,1.67,1.44c-.05.2-.21.29-.48.29h-3.66v3.19c0,.16-.76.5-1.39.5h-.28v-.94h-3v.56c0,.16-.72.49-1.33.49h-.29v-3.8H316v1.06c0,3-.16,7.06-3.17,9.76l-.23-.16c1.62-2.83,1.72-6.36,1.72-9.58V50.12Zm10.09,8.82,1.08-.83,1.6,1.41c-.14.16-.34.21-.81.23a10.8,10.8,0,0,1-2.83,2.72,22.69,22.69,0,0,0,6,1.05v.19a1.94,1.94,0,0,0-1.36,1.62,16.18,16.18,0,0,1-6.09-2,22,22,0,0,1-7.33,2l-.09-.29A21.12,21.12,0,0,0,321,62.6a8.56,8.56,0,0,1-2.32-3.14h-2.07l-.16-.52Zm-.07.52h-5.19a7.14,7.14,0,0,0,2.9,2.43A9.08,9.08,0,0,0,324.34,59.46Zm-.9-2.77V54.46h-3v2.23Z"/><path class="cls-2" d="M416.4,52.17l.87-1.11s1,.77,1.58,1.33c0,.2-.21.29-.47.29h-6.77l-.12-.51Zm-.95-2.27.86-1.11s1,.77,1.59,1.33a.43.43,0,0,1-.47.29h-4.95l-.15-.51Zm.22,4.58.81-1s.93.74,1.49,1.28c-.05.2-.22.29-.47.29h-5l-.15-.52Zm0,2.32.81-1s.93.74,1.49,1.28c-.05.2-.22.29-.47.29h-5l-.15-.52Zm-3.32,1.71,1.62.68h1.95l.75-.84,1.66,1.28a1.23,1.23,0,0,1-.7.32v4.23a2.12,2.12,0,0,1-1.3.47h-.25v-1h-2.2v1.21c0,.14-.66.5-1.31.5h-.22V58.51Zm1.53,1.21v3.4h2.2v-3.4Zm5.82-.45c.63,1.9.27,3.31-.33,3.94a.93.93,0,0,1-1.45-.05,1,1,0,0,1,.43-1.23,3.44,3.44,0,0,0,1.06-2.66Zm1.67-7.37a15,15,0,0,0,.24-1.6h-2.54l-.16-.51h7l.85-.86,1.62,1.32a1.24,1.24,0,0,1-.71.3c-.1,3.87-.36,5.55-1.09,6.18a2.77,2.77,0,0,1-1.86.59,1.6,1.6,0,0,0-.25-1.1,2.64,2.64,0,0,0-1.28-.54l0-.25c.52,0,1.4.09,1.73.09a.63.63,0,0,0,.52-.16c.34-.33.52-1.93.61-5.06h-2.64a18.69,18.69,0,0,1-.45,2.11c2.1,1,1.83,2.68.5,2.43a6.82,6.82,0,0,0-1.06-1,7.64,7.64,0,0,1-4,3.69l-.16-.25A7.94,7.94,0,0,0,421.12,53a14.13,14.13,0,0,0-2.11-1l.13-.22A13,13,0,0,1,421.37,51.9Zm1.43,7a.55.55,0,0,1-.54.45v3.89c0,.22.05.29.48.29h1.06c.47,0,.85,0,1,0a.36.36,0,0,0,.33-.16,9.86,9.86,0,0,0,.52-1.71h.21l.06,1.74c.43.18.52.35.52.65,0,.61-.59,1-2.77,1h-1.35c-1.35,0-1.57-.33-1.57-1.36V58.67Zm.82.81a6.3,6.3,0,0,0-2.68-2.41l.13-.16C425.73,57,425.3,60.33,423.62,59.68Zm3.23,3.51a8.8,8.8,0,0,0-1.26-4l.19-.11C430,61.28,428.31,64.63,426.85,63.19Z"/><path class="cls-2" d="M432.13,50.25a5.1,5.1,0,0,1,.26,1.06h4.68V48.57l2.43.2c0,.25-.18.43-.65.5v2h4.81l1-1,1.69,1.61a1.05,1.05,0,0,1-.7.21A16.46,16.46,0,0,1,443.41,54c.3.23.66.52.93.76,0,.19-.23.28-.48.28h-5.05v3.44h2.81l1-1.26s1.13.89,1.81,1.5c-.05.2-.23.29-.48.29h-5.12v4.12a24.8,24.8,0,0,0,3,.14c1.05,0,3.44,0,4.61,0v.23a1.4,1.4,0,0,0-1,1.48H441.7c-4.16,0-6.47-.78-7.84-4.22a9.65,9.65,0,0,1-4.19,4.6l-.15-.18c2.38-2.13,3.3-5.48,3.55-8.23l2.41.45c-.07.25-.27.39-.68.41a13.32,13.32,0,0,1-.74,2.47,5.06,5.06,0,0,0,3,2.52V55H432l-.14-.52h9.67l1-1.19.59.44a19.33,19.33,0,0,0,.63-1.95H432.44a2.8,2.8,0,0,1-1,2.54,1.06,1.06,0,0,1-1.59-.29,1,1,0,0,1,.63-1.26,2.87,2.87,0,0,0,1.42-2.55Z"/><path class="cls-2" d="M452.69,52.51c-.05.2-.27.36-.65.35a8.32,8.32,0,0,1-.46.81h1.33l.95-.87c.09-.34.24-.88.33-1.31h-4.54c0,2.73-2.85,2-1.75.59A2.88,2.88,0,0,0,449.18,50l.25,0a6.08,6.08,0,0,1,.18,1h1.53V48.73l2.25.22c0,.23-.19.41-.64.49V51h1.33l.84-.86,1.53,1.48a1,1,0,0,1-.66.18A10.75,10.75,0,0,1,454.06,53h0l1.35,1.18c-.12.17-.3.22-.72.26a10.16,10.16,0,0,1-1.22,1.92c2.75,1.28,2.52,3,1.28,2.65a12.45,12.45,0,0,0-2.09-1.71,13.72,13.72,0,0,1-2.34,1.87l.7.29h2l.72-.77,1.54,1.17a1.08,1.08,0,0,1-.57.28v4a2.18,2.18,0,0,1-1.3.44h-.25v-.78h-2.41v1a1.35,1.35,0,0,1-1.17.46h-.26V59.68a15,15,0,0,1-1.67.74l-.14-.25a13,13,0,0,0,4.05-3.59c-.56-.34-1.12-.64-1.64-.9A8.31,8.31,0,0,1,448,57.12l-.22-.19a12.44,12.44,0,0,0,2.9-5Zm.2,1.68h-1.66a12.24,12.24,0,0,1-1,1.19,14.9,14.9,0,0,1,1.82.43A10.34,10.34,0,0,0,452.89,54.19Zm-2.14,5.74v3.3h2.41v-3.3Zm9.38,2.94c-.09.16-.29.19-.58.11a14.3,14.3,0,0,1-5.15,2.37l-.16-.23a12.81,12.81,0,0,0,3.92-3.41ZM456.44,52l1.67.7h.7c.08-.56.17-1.37.22-2h-3.26l-.14-.53h5.9l1.05-1.31s1.15.92,1.85,1.55c0,.2-.22.29-.49.29h-3.07a16.91,16.91,0,0,1-1.48,2h2.18l.79-.83L464,53.09a1.16,1.16,0,0,1-.65.31v7.88a2.18,2.18,0,0,1-1.35.49h-.27v-.65H458v.43c0,.16-.63.54-1.31.54h-.27V52Zm5.29,1.22H458v2.09h3.71ZM458,55.79v2.14h3.71V55.79Zm0,2.65V60.6h3.71V58.44Zm5,6.71A9.83,9.83,0,0,0,460.33,62l.16-.14C465.57,62.69,464.72,66,463,65.15Z"/><path class="cls-2" d="M467,55.56a5,5,0,0,0-1.53-2.38l.14-.13C469.83,53.59,468.53,56.62,467,55.56Zm.05,4.1c.35-.63.35-.63,3.17-7.42l.31.08c-.61,2.07-1.76,5.94-2,6.82a7.64,7.64,0,0,0-.22,1.6c0,.92.67,1.64.61,3.21a1.27,1.27,0,0,1-1.27,1.38c-.36,0-.71-.28-.8-.9.31-1.87.22-3.49-.18-3.76a2,2,0,0,0-.9-.27V60h.8C466.8,60,466.87,60,467.05,59.66Zm1.25-8.23a7,7,0,0,0-1.82-2.54l.16-.12C471.09,49.25,469.94,52.41,468.3,51.43Zm2.18,4.32,1.6.71h3.08V54.67h-4.88l-.15-.52h3V51.79h-2.66l-.15-.5h2.81V48.73l2.27.2c0,.25-.2.43-.67.51v1.85h2.42V48.73l2.28.2c0,.25-.2.43-.66.51v1.85h.84l.92-1.23s1,.85,1.67,1.45c0,.19-.23.28-.48.28h-3v2.36h1l.95-1.26s1.09.87,1.75,1.5c-.05.19-.23.28-.49.28h-5.16v1.79h3.15l.75-.89,1.77,1.32a1.42,1.42,0,0,1-.81.4v6.08c0,1.08-.24,1.77-2.16,1.95a1.79,1.79,0,0,0-.42-1.1,2.8,2.8,0,0,0-1.49-.56v-.25s1.8.11,2.18.11.38-.11.38-.36V57h-3.48v4.36h1.23V58l1.54.16c0,.16-.12.29-.41.34v3.87c0,.13-.5.38-.9.38h-.23v-.9H474v.92c0,.12-.49.36-.85.36H473V58l1.48.16c0,.16-.13.29-.4.34v2.85h1.24V57H472v7.81c0,.17-.63.53-1.26.53h-.23V55.75Zm4.26-1.6h2.42V51.79h-2.42Z"/><path class="cls-2" d="M489.45,57.56c-.06.25-.27.41-.69.43a14.78,14.78,0,0,1-.55,2.1,4.93,4.93,0,0,0,3,2.63V55h-3v.73c0,.17-.74.54-1.44.54h-.27V49.17l1.84.75h7.42l.84-.94,1.8,1.39a1.15,1.15,0,0,1-.73.36v4.84a2.33,2.33,0,0,1-1.44.51h-.29V55h-3v3.56h3.17l1.08-1.35s1.24.94,2,1.59c0,.19-.24.28-.51.28h-5.72v4a21.68,21.68,0,0,0,3.06.16c1,0,3.35,0,4.48,0v.23c-.58.12-.88.7-.9,1.4h-3.67c-4.2,0-6.47-.81-7.85-4.32a9.07,9.07,0,0,1-4.16,4.77l-.16-.19c2.3-2.06,3.13-5.32,3.33-8Zm-1.32-7.13v4.08h7.73V50.43Z"/><path class="cls-2" d="M503.32,50.12l2,.83h4.32V48.61l2.34.19c0,.26-.2.44-.65.49V51h4.12l1-1.33s1.16.91,1.84,1.56c-.06.18-.24.27-.49.27H505V54h2.86V52l2.24.22c0,.21-.19.37-.62.45V54h3V52l2.26.22c0,.21-.16.37-.59.45V54h1.53l.94-1.22s1,.85,1.67,1.44c0,.2-.22.29-.48.29h-3.66v3.19c0,.16-.76.5-1.39.5h-.28v-.94h-3v.56c0,.16-.72.49-1.33.49h-.29v-3.8H505v1.06c0,3-.16,7.06-3.17,9.76l-.23-.16c1.62-2.83,1.72-6.36,1.72-9.58V50.12Zm10.09,8.82,1.08-.83,1.6,1.41c-.14.16-.34.21-.81.23a10.8,10.8,0,0,1-2.83,2.72,22.69,22.69,0,0,0,6,1.05v.19a1.94,1.94,0,0,0-1.36,1.62,16.18,16.18,0,0,1-6.09-2,22,22,0,0,1-7.33,2l-.09-.29A21.12,21.12,0,0,0,510,62.6a8.56,8.56,0,0,1-2.32-3.14h-2.07l-.16-.52Zm-.07.52h-5.19a7.14,7.14,0,0,0,2.9,2.43A9.08,9.08,0,0,0,513.34,59.46Zm-.9-2.77V54.46h-3v2.23Z"/><circle class="cls-2" cx="154.45" cy="91.2" r="2.21"/><circle class="cls-2" cx="181.9" cy="91.2" r="2.21"/><circle class="cls-2" cx="209.34" cy="91.2" r="2.21"/><circle class="cls-2" cx="236.79" cy="91.2" r="2.21"/><circle class="cls-2" cx="264.24" cy="91.2" r="2.21"/><circle class="cls-2" cx="291.5" cy="91.2" r="2.21"/></g></g></svg>