<svg xmlns="http://www.w3.org/2000/svg" xmlns:xlink="http://www.w3.org/1999/xlink" viewBox="0 0 351.14 312.2"><defs><style>.cls-1{fill:#141414;}.cls-2{fill:#fc641d;}.cls-3{fill:url(#名称未設定グラデーション_12);}.cls-4{fill:url(#名称未設定グラデーション_12-2);}.cls-5{fill:url(#名称未設定グラデーション_12-3);}.cls-6{fill:url(#名称未設定グラデーション_12-4);}.cls-7{fill:url(#名称未設定グラデーション_12-5);}.cls-8{fill:url(#名称未設定グラデーション_12-6);}.cls-9{fill:url(#名称未設定グラデーション_12-7);}.cls-10{fill:url(#名称未設定グラデーション_12-8);}.cls-11{fill:url(#名称未設定グラデーション_12-9);}.cls-12{fill:url(#名称未設定グラデーション_12-10);}.cls-13{fill:url(#名称未設定グラデーション_12-11);}.cls-14{fill:url(#名称未設定グラデーション_12-12);}.cls-15{fill:url(#名称未設定グラデーション_12-13);}.cls-16{fill:url(#名称未設定グラデーション_12-14);}.cls-17{fill:url(#名称未設定グラデーション_12-15);}.cls-18{fill:url(#名称未設定グラデーション_12-16);}.cls-19{fill:url(#名称未設定グラデーション_12-17);}.cls-20{fill:url(#名称未設定グラデーション_12-18);}.cls-21{fill:url(#名称未設定グラデーション_12-19);}.cls-22{fill:url(#名称未設定グラデーション_12-20);}.cls-23{fill:url(#名称未設定グラデーション_12-21);}.cls-24{fill:url(#名称未設定グラデーション_12-22);}.cls-25{fill:url(#名称未設定グラデーション_12-23);}.cls-26{fill:url(#名称未設定グラデーション_12-24);}.cls-27{fill:url(#名称未設定グラデーション_12-25);}.cls-28{fill:url(#名称未設定グラデーション_12-26);}.cls-29{fill:url(#名称未設定グラデーション_12-27);}.cls-30{fill:url(#名称未設定グラデーション_12-28);}.cls-31{fill:url(#名称未設定グラデーション_12-29);}.cls-32{fill:url(#名称未設定グラデーション_12-30);}.cls-33{fill:url(#名称未設定グラデーション_12-31);}.cls-34{fill:url(#名称未設定グラデーション_12-32);}.cls-35{fill:url(#名称未設定グラデーション_12-33);}.cls-36{fill:url(#名称未設定グラデーション_12-34);}.cls-37{fill:url(#名称未設定グラデーション_12-35);}.cls-38{fill:url(#名称未設定グラデーション_12-36);}.cls-39{fill:url(#名称未設定グラデーション_12-37);}.cls-40{fill:url(#名称未設定グラデーション_12-38);}.cls-41{fill:url(#名称未設定グラデーション_12-39);}.cls-42{fill:url(#名称未設定グラデーション_12-40);}.cls-43{fill:url(#名称未設定グラデーション_12-41);}.cls-44{fill:url(#名称未設定グラデーション_12-42);}.cls-45{fill:url(#名称未設定グラデーション_12-43);}.cls-46{fill:url(#名称未設定グラデーション_12-44);}.cls-47{fill:url(#名称未設定グラデーション_12-45);}.cls-48{fill:url(#名称未設定グラデーション_12-46);}.cls-49{fill:url(#名称未設定グラデーション_12-47);}.cls-50{fill:url(#名称未設定グラデーション_12-48);}.cls-51{fill:url(#名称未設定グラデーション_12-49);}.cls-52{fill:url(#名称未設定グラデーション_12-50);}.cls-53{fill:url(#名称未設定グラデーション_12-51);}.cls-54{fill:url(#名称未設定グラデーション_12-52);}.cls-55{fill:url(#名称未設定グラデーション_12-53);}.cls-56{fill:url(#名称未設定グラデーション_12-54);}.cls-57{fill:url(#名称未設定グラデーション_12-55);}.cls-58{fill:url(#名称未設定グラデーション_12-56);}.cls-59{fill:url(#名称未設定グラデーション_12-57);}.cls-60{fill:url(#名称未設定グラデーション_12-58);}.cls-61{fill:url(#名称未設定グラデーション_12-59);}.cls-62{fill:url(#名称未設定グラデーション_12-60);}.cls-63{fill:url(#名称未設定グラデーション_12-61);}.cls-64{fill:url(#名称未設定グラデーション_12-62);}.cls-65{fill:url(#名称未設定グラデーション_12-63);}.cls-66{fill:url(#名称未設定グラデーション_12-64);}.cls-67{fill:url(#名称未設定グラデーション_12-65);}.cls-68{fill:url(#名称未設定グラデーション_12-66);}.cls-69{fill:url(#名称未設定グラデーション_12-67);}.cls-70{fill:url(#名称未設定グラデーション_12-68);}.cls-71{fill:url(#名称未設定グラデーション_12-69);}.cls-72{fill:url(#名称未設定グラデーション_12-70);}.cls-73{fill:url(#名称未設定グラデーション_12-71);}.cls-74{fill:url(#名称未設定グラデーション_12-72);}.cls-75{fill:url(#名称未設定グラデーション_12-73);}.cls-76{fill:url(#名称未設定グラデーション_12-74);}.cls-77{fill:url(#名称未設定グラデーション_12-75);}.cls-78{fill:url(#名称未設定グラデーション_12-76);}.cls-79{fill:url(#名称未設定グラデーション_12-77);}.cls-80{fill:url(#名称未設定グラデーション_12-78);}.cls-81{fill:url(#名称未設定グラデーション_12-79);}.cls-82{fill:url(#名称未設定グラデーション_12-80);}.cls-83{fill:url(#名称未設定グラデーション_12-81);}.cls-84{fill:url(#名称未設定グラデーション_12-82);}.cls-85{fill:url(#名称未設定グラデーション_12-83);}.cls-86{fill:url(#名称未設定グラデーション_12-84);}</style><linearGradient id="名称未設定グラデーション_12" x1="145.76" y1="161.21" x2="145.76" y2="116.88" gradientUnits="userSpaceOnUse"><stop offset="0" stop-color="#a87f4a"/><stop offset="1" stop-color="#edb154"/></linearGradient><linearGradient id="名称未設定グラデーション_12-2" x1="145.09" y1="161.21" x2="145.09" y2="116.88" xlink:href="#名称未設定グラデーション_12"/><linearGradient id="名称未設定グラデーション_12-3" x1="150.06" y1="161.21" x2="150.06" y2="116.88" xlink:href="#名称未設定グラデーション_12"/><linearGradient id="名称未設定グラデーション_12-4" x1="149.89" y1="161.21" x2="149.89" y2="116.88" xlink:href="#名称未設定グラデーション_12"/><linearGradient id="名称未設定グラデーション_12-5" x1="156.51" y1="161.21" x2="156.51" y2="116.88" xlink:href="#名称未設定グラデーション_12"/><linearGradient id="名称未設定グラデーション_12-6" x1="159.6" y1="161.21" x2="159.6" y2="116.88" xlink:href="#名称未設定グラデーション_12"/><linearGradient id="名称未設定グラデーション_12-7" x1="152.49" y1="161.21" x2="152.49" y2="116.88" xlink:href="#名称未設定グラデーション_12"/><linearGradient id="名称未設定グラデーション_12-8" x1="159.81" y1="161.21" x2="159.81" y2="116.88" xlink:href="#名称未設定グラデーション_12"/><linearGradient id="名称未設定グラデーション_12-9" x1="152.57" y1="161.21" x2="152.57" y2="116.88" xlink:href="#名称未設定グラデーション_12"/><linearGradient id="名称未設定グラデーション_12-10" x1="156.69" y1="161.21" x2="156.69" y2="116.88" xlink:href="#名称未設定グラデーション_12"/><linearGradient id="名称未設定グラデーション_12-11" x1="150.63" y1="161.21" x2="150.63" y2="116.88" xlink:href="#名称未設定グラデーション_12"/><linearGradient id="名称未設定グラデーション_12-12" x1="144.38" y1="161.21" x2="144.38" y2="116.88" xlink:href="#名称未設定グラデーション_12"/><linearGradient id="名称未設定グラデーション_12-13" x1="146.6" y1="161.21" x2="146.6" y2="116.88" xlink:href="#名称未設定グラデーション_12"/><linearGradient id="名称未設定グラデーション_12-14" x1="151.25" y1="161.21" x2="151.25" y2="116.88" xlink:href="#名称未設定グラデーション_12"/><linearGradient id="名称未設定グラデーション_12-15" x1="22.56" y1="161.21" x2="22.56" y2="116.88" xlink:href="#名称未設定グラデーション_12"/><linearGradient id="名称未設定グラデーション_12-16" x1="18.26" y1="161.21" x2="18.26" y2="116.88" xlink:href="#名称未設定グラデーション_12"/><linearGradient id="名称未設定グラデーション_12-17" x1="23.24" y1="161.21" x2="23.24" y2="116.88" xlink:href="#名称未設定グラデーション_12"/><linearGradient id="名称未設定グラデーション_12-18" x1="11.83" y1="161.21" x2="11.83" y2="116.88" xlink:href="#名称未設定グラデーション_12"/><linearGradient id="名称未設定グラデーション_12-19" x1="18.41" y1="161.21" x2="18.41" y2="116.88" xlink:href="#名称未設定グラデーション_12"/><linearGradient id="名称未設定グラデーション_12-20" x1="8.73" y1="161.21" x2="8.73" y2="116.88" xlink:href="#名称未設定グラデーション_12"/><linearGradient id="名称未設定グラデーション_12-21" x1="15.79" y1="161.21" x2="15.79" y2="116.88" xlink:href="#名称未設定グラデーション_12"/><linearGradient id="名称未設定グラデーション_12-22" x1="8.5" y1="161.21" x2="8.5" y2="116.88" xlink:href="#名称未設定グラデーション_12"/><linearGradient id="名称未設定グラデーション_12-23" x1="15.8" y1="161.21" x2="15.8" y2="116.88" xlink:href="#名称未設定グラデーション_12"/><linearGradient id="名称未設定グラデーション_12-24" x1="11.59" y1="161.21" x2="11.59" y2="116.88" xlink:href="#名称未設定グラデーション_12"/><linearGradient id="名称未設定グラデーション_12-25" x1="17.67" y1="161.21" x2="17.67" y2="116.88" xlink:href="#名称未設定グラデーション_12"/><linearGradient id="名称未設定グラデーション_12-26" x1="23.94" y1="161.21" x2="23.94" y2="116.88" xlink:href="#名称未設定グラデーション_12"/><linearGradient id="名称未設定グラデーション_12-27" x1="21.67" y1="161.21" x2="21.67" y2="116.88" xlink:href="#名称未設定グラデーション_12"/><linearGradient id="名称未設定グラデーション_12-28" x1="17.09" y1="161.21" x2="17.09" y2="116.88" xlink:href="#名称未設定グラデーション_12"/><linearGradient id="名称未設定グラデーション_12-29" x1="145.76" y1="234.79" x2="145.76" y2="190.46" xlink:href="#名称未設定グラデーション_12"/><linearGradient id="名称未設定グラデーション_12-30" x1="145.09" y1="234.79" x2="145.09" y2="190.46" xlink:href="#名称未設定グラデーション_12"/><linearGradient id="名称未設定グラデーション_12-31" x1="150.06" y1="234.79" x2="150.06" y2="190.46" xlink:href="#名称未設定グラデーション_12"/><linearGradient id="名称未設定グラデーション_12-32" x1="149.89" y1="234.79" x2="149.89" y2="190.46" xlink:href="#名称未設定グラデーション_12"/><linearGradient id="名称未設定グラデーション_12-33" x1="156.51" y1="234.79" x2="156.51" y2="190.46" xlink:href="#名称未設定グラデーション_12"/><linearGradient id="名称未設定グラデーション_12-34" x1="159.6" y1="234.79" x2="159.6" y2="190.46" xlink:href="#名称未設定グラデーション_12"/><linearGradient id="名称未設定グラデーション_12-35" x1="152.49" y1="234.79" x2="152.49" y2="190.46" xlink:href="#名称未設定グラデーション_12"/><linearGradient id="名称未設定グラデーション_12-36" x1="159.81" y1="234.79" x2="159.81" y2="190.46" xlink:href="#名称未設定グラデーション_12"/><linearGradient id="名称未設定グラデーション_12-37" x1="152.57" y1="234.79" x2="152.57" y2="190.46" xlink:href="#名称未設定グラデーション_12"/><linearGradient id="名称未設定グラデーション_12-38" x1="156.69" y1="234.79" x2="156.69" y2="190.46" xlink:href="#名称未設定グラデーション_12"/><linearGradient id="名称未設定グラデーション_12-39" x1="150.63" y1="234.79" x2="150.63" y2="190.46" xlink:href="#名称未設定グラデーション_12"/><linearGradient id="名称未設定グラデーション_12-40" x1="144.38" y1="234.79" x2="144.38" y2="190.46" xlink:href="#名称未設定グラデーション_12"/><linearGradient id="名称未設定グラデーション_12-41" x1="146.6" y1="234.79" x2="146.6" y2="190.46" xlink:href="#名称未設定グラデーション_12"/><linearGradient id="名称未設定グラデーション_12-42" x1="151.25" y1="234.79" x2="151.25" y2="190.46" xlink:href="#名称未設定グラデーション_12"/><linearGradient id="名称未設定グラデーション_12-43" x1="22.56" y1="234.79" x2="22.56" y2="190.46" xlink:href="#名称未設定グラデーション_12"/><linearGradient id="名称未設定グラデーション_12-44" x1="18.26" y1="234.79" x2="18.26" y2="190.46" xlink:href="#名称未設定グラデーション_12"/><linearGradient id="名称未設定グラデーション_12-45" x1="23.24" y1="234.79" x2="23.24" y2="190.46" xlink:href="#名称未設定グラデーション_12"/><linearGradient id="名称未設定グラデーション_12-46" x1="11.83" y1="234.79" x2="11.83" y2="190.46" xlink:href="#名称未設定グラデーション_12"/><linearGradient id="名称未設定グラデーション_12-47" x1="18.41" y1="234.79" x2="18.41" y2="190.46" xlink:href="#名称未設定グラデーション_12"/><linearGradient id="名称未設定グラデーション_12-48" x1="8.73" y1="234.79" x2="8.73" y2="190.46" xlink:href="#名称未設定グラデーション_12"/><linearGradient id="名称未設定グラデーション_12-49" x1="15.79" y1="234.79" x2="15.79" y2="190.46" xlink:href="#名称未設定グラデーション_12"/><linearGradient id="名称未設定グラデーション_12-50" x1="8.5" y1="234.79" x2="8.5" y2="190.46" xlink:href="#名称未設定グラデーション_12"/><linearGradient id="名称未設定グラデーション_12-51" x1="15.8" y1="234.79" x2="15.8" y2="190.46" xlink:href="#名称未設定グラデーション_12"/><linearGradient id="名称未設定グラデーション_12-52" x1="11.59" y1="234.79" x2="11.59" y2="190.46" xlink:href="#名称未設定グラデーション_12"/><linearGradient id="名称未設定グラデーション_12-53" x1="17.67" y1="234.79" x2="17.67" y2="190.46" xlink:href="#名称未設定グラデーション_12"/><linearGradient id="名称未設定グラデーション_12-54" x1="23.94" y1="234.79" x2="23.94" y2="190.46" xlink:href="#名称未設定グラデーション_12"/><linearGradient id="名称未設定グラデーション_12-55" x1="21.67" y1="234.79" x2="21.67" y2="190.46" xlink:href="#名称未設定グラデーション_12"/><linearGradient id="名称未設定グラデーション_12-56" x1="17.09" y1="234.79" x2="17.09" y2="190.46" xlink:href="#名称未設定グラデーション_12"/><linearGradient id="名称未設定グラデーション_12-57" x1="145.76" y1="308.37" x2="145.76" y2="264.04" xlink:href="#名称未設定グラデーション_12"/><linearGradient id="名称未設定グラデーション_12-58" x1="145.09" y1="308.37" x2="145.09" y2="264.04" xlink:href="#名称未設定グラデーション_12"/><linearGradient id="名称未設定グラデーション_12-59" x1="150.06" y1="308.37" x2="150.06" y2="264.04" xlink:href="#名称未設定グラデーション_12"/><linearGradient id="名称未設定グラデーション_12-60" x1="149.89" y1="308.37" x2="149.89" y2="264.04" xlink:href="#名称未設定グラデーション_12"/><linearGradient id="名称未設定グラデーション_12-61" x1="156.51" y1="308.37" x2="156.51" y2="264.04" xlink:href="#名称未設定グラデーション_12"/><linearGradient id="名称未設定グラデーション_12-62" x1="159.6" y1="308.37" x2="159.6" y2="264.04" xlink:href="#名称未設定グラデーション_12"/><linearGradient id="名称未設定グラデーション_12-63" x1="152.49" y1="308.37" x2="152.49" y2="264.04" xlink:href="#名称未設定グラデーション_12"/><linearGradient id="名称未設定グラデーション_12-64" x1="159.81" y1="308.37" x2="159.81" y2="264.04" xlink:href="#名称未設定グラデーション_12"/><linearGradient id="名称未設定グラデーション_12-65" x1="152.57" y1="308.37" x2="152.57" y2="264.04" xlink:href="#名称未設定グラデーション_12"/><linearGradient id="名称未設定グラデーション_12-66" x1="156.69" y1="308.37" x2="156.69" y2="264.04" xlink:href="#名称未設定グラデーション_12"/><linearGradient id="名称未設定グラデーション_12-67" x1="150.63" y1="308.37" x2="150.63" y2="264.04" xlink:href="#名称未設定グラデーション_12"/><linearGradient id="名称未設定グラデーション_12-68" x1="144.38" y1="308.37" x2="144.38" y2="264.04" xlink:href="#名称未設定グラデーション_12"/><linearGradient id="名称未設定グラデーション_12-69" x1="146.6" y1="308.37" x2="146.6" y2="264.04" xlink:href="#名称未設定グラデーション_12"/><linearGradient id="名称未設定グラデーション_12-70" x1="151.25" y1="308.37" x2="151.25" y2="264.04" xlink:href="#名称未設定グラデーション_12"/><linearGradient id="名称未設定グラデーション_12-71" x1="22.56" y1="308.37" x2="22.56" y2="264.04" xlink:href="#名称未設定グラデーション_12"/><linearGradient id="名称未設定グラデーション_12-72" x1="18.26" y1="308.37" x2="18.26" y2="264.04" xlink:href="#名称未設定グラデーション_12"/><linearGradient id="名称未設定グラデーション_12-73" x1="23.24" y1="308.37" x2="23.24" y2="264.04" xlink:href="#名称未設定グラデーション_12"/><linearGradient id="名称未設定グラデーション_12-74" x1="11.83" y1="308.37" x2="11.83" y2="264.04" xlink:href="#名称未設定グラデーション_12"/><linearGradient id="名称未設定グラデーション_12-75" x1="18.41" y1="308.37" x2="18.41" y2="264.04" xlink:href="#名称未設定グラデーション_12"/><linearGradient id="名称未設定グラデーション_12-76" x1="8.73" y1="308.37" x2="8.73" y2="264.04" xlink:href="#名称未設定グラデーション_12"/><linearGradient id="名称未設定グラデーション_12-77" x1="15.79" y1="308.37" x2="15.79" y2="264.04" xlink:href="#名称未設定グラデーション_12"/><linearGradient id="名称未設定グラデーション_12-78" x1="8.5" y1="308.37" x2="8.5" y2="264.04" xlink:href="#名称未設定グラデーション_12"/><linearGradient id="名称未設定グラデーション_12-79" x1="15.8" y1="308.37" x2="15.8" y2="264.04" xlink:href="#名称未設定グラデーション_12"/><linearGradient id="名称未設定グラデーション_12-80" x1="11.59" y1="308.37" x2="11.59" y2="264.04" xlink:href="#名称未設定グラデーション_12"/><linearGradient id="名称未設定グラデーション_12-81" x1="17.67" y1="308.37" x2="17.67" y2="264.04" xlink:href="#名称未設定グラデーション_12"/><linearGradient id="名称未設定グラデーション_12-82" x1="23.94" y1="308.37" x2="23.94" y2="264.04" xlink:href="#名称未設定グラデーション_12"/><linearGradient id="名称未設定グラデーション_12-83" x1="21.67" y1="308.37" x2="21.67" y2="264.04" xlink:href="#名称未設定グラデーション_12"/><linearGradient id="名称未設定グラデーション_12-84" x1="17.09" y1="308.37" x2="17.09" y2="264.04" xlink:href="#名称未設定グラデーション_12"/></defs><g id="レイヤー_2" data-name="レイヤー 2"><g id="contents"><path class="cls-1" d="M39.1,137.89c-.05.08-.13.13-.34.08a13.55,13.55,0,0,1-2.59,2,5.06,5.06,0,0,0,3.35,3v.1a1,1,0,0,0-.83.79c-2.21-1-2.94-2.85-3.21-5.6-.15,2.48-.8,4.37-4.21,5.61l-.09-.15c3.64-1.84,3.43-4.39,3.43-8l1.25.13c0,.13-.1.22-.31.25v.14a12.52,12.52,0,0,0,.58,3.59A14.49,14.49,0,0,0,38,137.2ZM33,137.2c.57,1.51.17,2.47-.3,2.88a.59.59,0,0,1-.93,0,.54.54,0,0,1,.21-.71,2.53,2.53,0,0,0,.9-2.19Z"/><path class="cls-1" d="M47.54,140.05c-.06.09-.14.13-.34.09a13.46,13.46,0,0,1-2,1.33A5,5,0,0,0,48.33,143v.1a.85.85,0,0,0-.78.8,3.9,3.9,0,0,1-3.19-3.69c-.15,1.57-.73,2.86-4.2,3.68l-.08-.13c3.4-1.16,3.39-2.71,3.41-4.77l1.23.12c0,.12-.11.2-.3.23a4.12,4.12,0,0,0,.67,2,12.32,12.32,0,0,0,1.43-2Zm-4.8-4a.22.22,0,0,1-.28.1c-.3.24-1.1.82-1.58,1.15,2.56.75,1.71,2.2.95,1.72a3.56,3.56,0,0,0-1.21-1.69,17.47,17.47,0,0,0,1-1.69Zm-.59,3.52a1.62,1.62,0,0,1-.63,2c-.31.16-.67.11-.78-.17a.49.49,0,0,1,.33-.58,1.49,1.49,0,0,0,1-1.26Zm3-3.49c0,.08-.13.13-.28.09-.31.23-1.15.78-1.63,1.09,2.63.69,1.8,2.15,1,1.68A3.46,3.46,0,0,0,43,137.26a17.67,17.67,0,0,0,1.13-1.65Zm2.52,0c-.05.08-.13.12-.29.09-.31.23-1.21.79-1.73,1.1,2.74.71,1.92,2.2,1.12,1.72a3.81,3.81,0,0,0-1.39-1.69,20.35,20.35,0,0,0,1.23-1.68Z"/><path class="cls-1" d="M50.78,138.3v5.29c0,.07-.35.25-.68.25H50v-4.75a7.08,7.08,0,0,1-1,1.13l-.12-.08a14.53,14.53,0,0,0,1.83-4.53l1.23.39c0,.1-.15.18-.36.18a11.07,11.07,0,0,1-.82,1.81l.39.14A.35.35,0,0,1,50.78,138.3Zm6.38,1.79a.23.23,0,0,1-.25.15H54.67a5.78,5.78,0,0,0,2.61,2.18l0,.09a.94.94,0,0,0-.68.73,5.78,5.78,0,0,1-2-2.78v3.14c0,.07-.28.26-.69.26h-.15v-2.61a7.07,7.07,0,0,1-2.61,2.09l-.09-.12a7.07,7.07,0,0,0,2.26-3H51.17l-.08-.26h2.64v-1.24h-.89v.3c0,.08-.36.27-.72.27H52v-3.47l.88.36h2.5l.43-.46.9.68a.64.64,0,0,1-.39.19v2.3a1.25,1.25,0,0,1-.7.22h-.14v-.39h-.92V140h1.14l.51-.66S56.8,139.77,57.16,140.09Zm-4.32-3.63v2h2.65v-2Z"/><path class="cls-1" d="M58.16,135.83l.92.37h.75l.46-.46.87.83c-.07.08-.18.1-.4.11a20.4,20.4,0,0,1-1.28,2.07,2.71,2.71,0,0,1,1.26,2.17c0,.84-.31,1.32-1.24,1.35a1.6,1.6,0,0,0-.1-.66.86.86,0,0,0-.42-.2v-.11h.55a.3.3,0,0,0,.2-.05c.14-.07.22-.25.22-.56a3,3,0,0,0-.69-1.92c.19-.57.46-1.62.62-2.32H59v7.14c0,.07-.25.27-.65.27h-.15v-8ZM63.71,138l.4-.54s.47.38.74.65c0,.1-.11.14-.23.14h-1v.86h1l.36-.43.76.57a.56.56,0,0,1-.32.15v1.82a1,1,0,0,1-.65.18h-.12V141h-1a3.23,3.23,0,0,0,2.53,2v.1a.76.76,0,0,0-.68.77,3.47,3.47,0,0,1-2-2.63c-.26,1.06-1,2-3.14,2.64l-.07-.11A3.76,3.76,0,0,0,62.75,141h-.94v.36c0,.06-.23.2-.61.2h-.13v-2.76l.84.34h.92v-.86H61.76l-.08-.25h2Zm-2,0a7.35,7.35,0,0,1-1.33.76l-.07-.11a6.57,6.57,0,0,0,2.38-3.06l1.24.27c0,.1-.11.14-.34.16a4.85,4.85,0,0,0,2.63,1.58v.11a.94.94,0,0,0-.61.77,4.51,4.51,0,0,1-2.13-2.36A5.87,5.87,0,0,1,61.68,138Zm1.15,2v-.61h-1v1.36h1A4.57,4.57,0,0,0,62.83,140Zm1.82.75v-1.36h-1V140a4.81,4.81,0,0,1,0,.75Z"/><path class="cls-1" d="M67.46,136.76l.93.39h1.9v-1.53l1.2.12c0,.12-.08.21-.32.25v1.16h1.94l.42-.47.9.69a.67.67,0,0,1-.36.19v3.9a1.31,1.31,0,0,1-.73.24H73.2V141h-2v2.5c0,.11-.38.33-.7.33h-.18V141h-2v.53c0,.09-.36.29-.73.29h-.13v-5.08Zm.86.65V139h2v-1.54Zm2,1.8h-2v1.57h2Zm.88-.26h2v-1.54h-2Zm2,1.83v-1.57h-2v1.57Z"/><path class="cls-1" d="M77.84,137.36l.42-.55s.49.39.78.67c0,.1-.1.14-.23.14H75.52l-.06-.26Zm-.43-1.11.43-.55s.49.39.78.66c0,.1-.11.14-.23.14H76l-.07-.25Zm.11,2.26.4-.53s.46.38.73.64c0,.09-.1.13-.23.13H76l-.07-.24Zm0,1.14.4-.52s.46.37.73.64c0,.08-.1.13-.23.13H76l-.07-.25Zm-1.63.83.8.35h1l.38-.42.81.62a.57.57,0,0,1-.34.17v2.08a1,1,0,0,1-.64.23h-.13V143H76.64v.59c0,.08-.33.24-.65.24h-.1v-3.36Zm.75.6v1.67h1.08v-1.67Zm5.28-5.31c0,.12-.08.21-.31.24v.52h.74l.45-.58s.52.4.83.7a.22.22,0,0,1-.23.14H81.61v.71h.6l.42-.54s.49.39.78.66c0,.1-.1.14-.23.14H81.61v.77h.92L83,138s.51.41.83.69c0,.1-.1.14-.23.14H78.87l-.07-.25h2v-.77H79.34l-.07-.26h1.51v-.71H79.09l-.06-.26h1.75v-.87Zm-2.49,3.33.86.36h1.9l.37-.43.89.65a.75.75,0,0,1-.35.17v3c0,.59-.11.93-1,1a1.23,1.23,0,0,0-.16-.6,1,1,0,0,0-.61-.27v-.14l.83,0c.13,0,.17,0,.17-.16v-.81h-2v1.63c0,.09-.34.29-.67.29h-.14V139.1Zm2.85,1.45v-.83h-2v.83Zm-2,1.1h2v-.85h-2Z"/><path class="cls-1" d="M84.57,138.39c.22.27.37.47.6.47s1.12-.09,1.65-.14a8.39,8.39,0,0,0-.06-1.28c0-.2-.24-.27-.64-.36v-.15a1.56,1.56,0,0,1,.61-.17c.32,0,.94.28.94.59s-.12.21-.15.52c0,.16,0,.47,0,.77l1.73-.18a13.56,13.56,0,0,0,0-1.59c0-.22-.24-.28-.65-.35v-.16a1.63,1.63,0,0,1,.65-.19c.45,0,1,.39,1,.64s-.18.16-.21.61l0,1c.88-.09,1-.16,1.16-.16.45,0,1,.21,1,.57s-.11.28-.32.28-.68-.11-1.48-.11H90a5.47,5.47,0,0,1-.63,3,4.67,4.67,0,0,1-2.54,1.64l-.09-.17a4.84,4.84,0,0,0,2-1.68,5.66,5.66,0,0,0,.52-2.7c-.6,0-1.24.1-1.73.16v1.74c0,.35-.11.51-.36.51s-.49-.47-.49-.78a9.53,9.53,0,0,0,.16-1.38,7.71,7.71,0,0,0-1,.19,2.39,2.39,0,0,1-.62.21c-.3,0-.65-.47-.74-.67a1.58,1.58,0,0,1-.06-.56Z"/><path class="cls-1" d="M93.52,138.32c.2.26.36.43.59.43.4,0,1.76-.16,2.47-.24a11.84,11.84,0,0,0-.07-1.25c-.06-.24-.28-.31-.68-.38v-.17a2,2,0,0,1,.75-.18c.42,0,1,.33,1,.58s-.17.23-.2.47,0,.52,0,.85c1.73-.23,1.8-.37,2-.37s.92.23.92.55-.12.31-.36.31-.59,0-1.05,0-1,.05-1.55.11v.76c0,.8.06,2.51.06,2.81s-.28.92-.68.92-.31-.18-.52-.5a2.41,2.41,0,0,0-.7-.61l.08-.17a8.12,8.12,0,0,0,.89.22c.1,0,.16,0,.17-.13,0-.43,0-1.8,0-2.55v-.67a16.24,16.24,0,0,0-1.67.27c-.34.07-.48.25-.71.25a1.09,1.09,0,0,1-.75-.64,1.75,1.75,0,0,1-.08-.57Zm1.66,1.8c0,1-.59,2.4-1.33,2.4a.39.39,0,0,1-.42-.42c0-.32.21-.38.58-.68a2.73,2.73,0,0,0,1-1.34Zm3.07,0,.09-.14c1,.29,2,.95,2.11,1.79,0,.3-.12.52-.4.52s-.44-.31-.59-.6A4.3,4.3,0,0,0,98.25,140.14Zm1.43-4.35a1,1,0,0,1,1,1,1,1,0,1,1-2,0A1,1,0,0,1,99.68,135.79Zm0,1.61a.65.65,0,1,0-.64-.65A.64.64,0,0,0,99.68,137.4Z"/><path class="cls-1" d="M102.94,139.74c.88,0,3.73-.19,4.22-.22s.93-.12,1.15-.12c.45,0,.89.23.89.55s-.17.33-.5.33-.65,0-1.24,0-2.82.14-3.5.22-.7.23-1,.23-.8-.52-.95-.89a1.36,1.36,0,0,1,0-.6l.16-.06C102.36,139.48,102.51,139.74,102.94,139.74Z"/><path class="cls-1" d="M112,136.22c.41,0,1.12.39,1.12.65s-.17.29-.22.6-.06.92-.08,1.44a6.18,6.18,0,0,1,2.21.7,1,1,0,0,1,.58.83.41.41,0,0,1-.41.44c-.45,0-.52-.41-1.14-.94a5.57,5.57,0,0,0-1.24-.71c0,.78,0,2.07,0,2.91,0,.44,0,.72,0,.85,0,.37-.1.52-.38.52s-.6-.49-.6-1c0-.21.08-.4.12-.77.07-.65.08-2,.08-2.55s0-1.77-.08-2.19-.29-.37-.69-.43v-.16A2.16,2.16,0,0,1,112,136.22Z"/><path class="cls-1" d="M116.91,139.46l-.07-.11a8.65,8.65,0,0,0,3.6-3.8l1.4.34c0,.13-.14.18-.4.2a7.72,7.72,0,0,0,3.77,2.25v.14a1.1,1.1,0,0,0-.73.82,6.38,6.38,0,0,1-3.18-3.11A9.54,9.54,0,0,1,116.91,139.46ZM119,142.7a17.85,17.85,0,0,0,.75-2.16h-2.35l-.08-.25h5.94l.55-.68s.62.47,1,.79a.24.24,0,0,1-.25.14h-3.68a18.35,18.35,0,0,1-1.47,2.14l3.55-.2a8.15,8.15,0,0,0-1.07-1.28l.09-.07c3.24,1.12,2.59,3.28,1.58,2.57a4.13,4.13,0,0,0-.47-1c-1.14.25-2.65.54-4.8.91a.37.37,0,0,1-.25.19l-.51-1Zm2.77-4,.5-.64s.58.44.94.75a.22.22,0,0,1-.24.14h-4.07l-.07-.25Z"/><path class="cls-1" d="M127.14,137.37v-1.7l1.12.1c0,.12-.1.21-.33.25v1.35h.23l.5-.47.73.78a.68.68,0,0,1-.4.11,6.41,6.41,0,0,1-1,1.42c1.84.48,1.33,1.75.65,1.32a3.5,3.5,0,0,0-.7-1.08v4.13a.82.82,0,0,1-.68.26h-.16v-3.76a7.19,7.19,0,0,1-1.44,1l-.09-.09a8.66,8.66,0,0,0,2.51-3.35h-2.22l-.08-.25Zm3.66,1.39v-3.07l1.2.11c0,.14-.09.22-.32.25v2.71h.79l.49-.65s.55.45.88.77c0,.1-.11.14-.23.14h-1.93v4.18h1l.5-.68s.58.47.91.79c0,.1-.11.14-.23.14h-5.26l-.07-.25h2.29V139h-1.63l-.07-.26Z"/><path class="cls-2" d="M57.89,114.94l.16,8.07v5.61l2.86.28v.74H54.77v-.74l2.24-.28v-15l-.12-.19-2.09-.16v-.72h4.72l9.07,13.3-.07-6.14v-6.16l-2.93-.28v-.72h6.14v.72l-2.28.28v16.21h-1.4Z"/><path class="cls-2" d="M73.12,123.48c0-4.14,2.86-6.47,6.09-6.47s6.12,2.31,6.12,6.47S82.63,130,79.21,130,73.12,127.64,73.12,123.48Zm9.39,0c0-3.79-1.23-5.74-3.3-5.74s-3.28,2-3.28,5.74,1.24,5.73,3.28,5.73S82.51,127.32,82.51,123.52Z"/><path class="cls-2" d="M87.93,128.32a1.66,1.66,0,0,1,1.7-1.7,1.68,1.68,0,0,1,1.7,1.7,1.71,1.71,0,0,1-1.7,1.69A1.69,1.69,0,0,1,87.93,128.32Z"/><path class="cls-2" d="M104.19,107.13l.47.34-.12,5v9.9l.06,5.91,4.54.47v.91h-13v-.91l4.79-.47.06-5.91v-13l-4.26.57v-1Z"/><path class="cls-3" d="M151.82,151.39a22.36,22.36,0,0,0,3.52-21,18.39,18.39,0,0,0-4.08-6.94c.05.24,0,.26.05.28a21,21,0,0,1,4.58,11.53,22,22,0,0,1-1.34,9.84,19.31,19.31,0,0,1-11.14,11.66,20.4,20.4,0,0,1-7.64,1.55c-.45,0-.84.11-.78.69s.46.55.87.5c1.27-.17,2.56-.27,3.82-.53A19.67,19.67,0,0,0,151.82,151.39Z"/><path class="cls-4" d="M144.77,149.27a5.31,5.31,0,0,0-.92,6.43A4.92,4.92,0,0,0,147,152a19.88,19.88,0,0,0,0-3.45,10.29,10.29,0,0,0-.24-1.35C146,148,145.34,148.62,144.77,149.27Z"/><path class="cls-5" d="M145.65,157.78a5.16,5.16,0,0,0,4.35,1.88,12.49,12.49,0,0,0,4.48-1.59c-.8-.44-1.5-.86-2.22-1.21C149.65,155.62,147.76,155.88,145.65,157.78Z"/><path class="cls-6" d="M149.42,142.24c-.35,1.09-.75,2.13-1,3.19a4.77,4.77,0,0,0,1.78,5.07C152.26,148.33,151.91,144.23,149.42,142.24Z"/><path class="cls-7" d="M152.62,152.1c2.86,1.54,5.37.46,7.77-2.56C157,148.66,154,149,152.62,152.1Z"/><path class="cls-8" d="M156.4,144.38c2.84.85,5.08-1.08,6.41-4.36C159.28,140.24,157,141.19,156.4,144.38Z"/><path class="cls-9" d="M154.05,143.9c1.11-2.56-.56-6-3.37-6.94C150.32,140.39,151,142.82,154.05,143.9Z"/><path class="cls-10" d="M157.35,136.62c2.66.1,5.17-2.87,4.93-5.77C158.71,131.94,157.06,133.85,157.35,136.62Z"/><path class="cls-11" d="M150,131.38c.52,3.54,2.13,5.51,5,5.6C155.44,134.29,153.67,132.29,150,131.38Z"/><path class="cls-12" d="M157.9,121.9c-2.62,2.35-3.64,4.75-2,7.2C158.28,127.73,158.7,126.24,157.9,121.9Z"/><path class="cls-13" d="M147.56,125.75c1.46,3.24,3.52,4.79,6.14,4C153.32,127.13,151.15,125.74,147.56,125.75Z"/><path class="cls-14" d="M147.35,119.86c-.67-2.7-3.18-3.44-5.94-3.12C142.94,119.57,145.11,120.72,147.35,119.86Z"/><path class="cls-15" d="M143.34,122.26c2.31,2.2,4.63,2.6,6.53,1.16C148.75,121.56,146.79,120.94,143.34,122.26Z"/><path class="cls-16" d="M151.21,122.07c1.77-1.49,1.81-3.92.08-6.62C149.5,118.16,149.48,120.59,151.21,122.07Z"/><path class="cls-17" d="M32.68,158.32c-1.06-.09-2.13-.13-3.18-.3a18.91,18.91,0,0,1-12.56-7.3,22,22,0,0,1-4.24-17.26,21.6,21.6,0,0,1,4.48-10.11c-.11.1-.23.2-.33.31a20.27,20.27,0,0,0-5,12.38,21.88,21.88,0,0,0,.81,7.67,20.76,20.76,0,0,0,10,13,22.46,22.46,0,0,0,9.94,2.74c.38,0,.68-.06.7-.53S33.07,158.36,32.68,158.32Z"/><path class="cls-18" d="M18.38,156.14A11.63,11.63,0,0,0,13.94,158l-.06.24a29.06,29.06,0,0,0,3.87,1.34,4.78,4.78,0,0,0,4.9-1.86A5.22,5.22,0,0,0,18.38,156.14Z"/><path class="cls-19" d="M21.77,147.37l-.3.12c-.07,1.22-.18,2.44-.18,3.66a4.85,4.85,0,0,0,3.21,4.48,4.87,4.87,0,0,0-.1-5.17C23.63,149.36,22.65,148.4,21.77,147.37Z"/><path class="cls-20" d="M12.51,149.26a11.2,11.2,0,0,0-4.64.19c2.28,2.92,4.82,4.31,7.91,2.65A4.89,4.89,0,0,0,12.51,149.26Z"/><path class="cls-21" d="M18.74,142.3c-2.37,3.14-2.77,5.77-.62,8.19C20.76,148.39,20.55,145.45,18.74,142.3Z"/><path class="cls-22" d="M12,144.37c-.53-3.44-3.55-4.28-6.43-4.34C6.85,143.39,9.21,145.3,12,144.37Z"/><path class="cls-23" d="M17.67,136.92c-3,1.33-4.69,4.91-3.33,7C17.11,142.85,18,141.08,17.67,136.92Z"/><path class="cls-24" d="M10.94,136.61c.48-2.84-1.56-4.81-4.95-5.75C6.43,134.18,7.93,136.64,10.94,136.61Z"/><path class="cls-25" d="M18.38,131.35c-3.62.87-5.6,3-5.07,5.67C16.82,136.8,17.74,134.24,18.38,131.35Z"/><path class="cls-26" d="M12.48,129.13c1.57-2.57.51-5-2-7.17C9.54,125,9.67,127.59,12.48,129.13Z"/><path class="cls-27" d="M14.58,129.77c2.62.74,4.8-.7,6.19-4.05C17.05,125.81,15.3,126.94,14.58,129.77Z"/><path class="cls-28" d="M26.93,116.68c-3-.16-5.15.43-6,3.19C23.48,120.71,25.39,119.5,26.93,116.68Z"/><path class="cls-29" d="M24.93,122.28c-2.85-1.18-4.95-1.08-6.51,1.13C20.49,124.92,22.65,124.46,24.93,122.28Z"/><path class="cls-30" d="M17.13,122.06c1.71-1.52,1.71-3.84-.06-6.59C15.32,118,15.35,120.61,17.13,122.06Z"/><path class="cls-2" d="M48.08,164.43h-.27v-12.5l1.75.73h7.75l.86-1L60,153.09a1.42,1.42,0,0,1-.87.43v10.16a2.3,2.3,0,0,1-1.39.46H57.5v-1.77H49.42v1.47C49.42,164,48.78,164.43,48.08,164.43Zm9.42-11.31H49.42v8.79H57.5Z"/><path class="cls-2" d="M63.65,160a2.07,2.07,0,0,0,1.48.86c.68,0,4.53-.43,6.39-.59.29-1.8.64-4.13.69-5,0-.13,0-.19-.16-.19a51.5,51.5,0,0,0-5.34.67c-.56.12-1,.43-1.33.43s-1.24-.82-1.42-1.34a3.81,3.81,0,0,1-.14-1l.27-.1c.43.42.7.83,1.26.83.83,0,5.1-.44,6-.57.62-.08.75-.48,1.13-.48s1.95.93,1.95,1.48-.48.61-.61,1.12c-.21.81-.56,2.5-.91,4.13a1.23,1.23,0,0,1,1.09,1c0,.32-.21.46-.71.46s-1.32-.19-2.58-.19a20.22,20.22,0,0,0-4,.48,9.83,9.83,0,0,1-1.5.39,2.27,2.27,0,0,1-1.56-1.24,2.78,2.78,0,0,1-.22-1.05Z"/><path class="cls-2" d="M84.82,161.94c.69.41,1.1.92,1.1,1.37s-.2.77-.81.77c-.44,0-.91-.39-1.51-.86a16.48,16.48,0,0,0-5.47-2.59l.08-.32A16,16,0,0,1,84.82,161.94Zm-1.49-5.25c.68.31,1.16.69,1.16,1.3a.67.67,0,0,1-.69.7c-.35,0-.62-.19-1.16-.56a18.18,18.18,0,0,0-4-1.93l.08-.3A12.73,12.73,0,0,1,83.33,156.69Zm1.72-1.62c-.47,0-.67-.23-1.23-.66a13.35,13.35,0,0,0-4.48-2.09l.06-.3a15.25,15.25,0,0,1,5,.88c1,.45,1.26.91,1.26,1.48A.69.69,0,0,1,85.05,155.07Z"/><path class="cls-2" d="M103.29,163.3l0,.19a1.76,1.76,0,0,0-1.53,1.45c-4.11-2.22-5.4-5.93-5.84-10.88-.3,4-1.46,8-7.31,10.94l-.2-.25c6.06-4.13,6-9.28,6-14.26l2.23.22c0,.23-.17.39-.57.45C96.34,157.17,97.81,161.06,103.29,163.3Z"/><path class="cls-2" d="M110.47,151c-.08.19-.28.32-.63.27-.18.35-.37.67-.56,1H116l.94-1.16s1,.76,1.72,1.37c0,.17-.21.25-.45.25H109a12.55,12.55,0,0,1-4.51,4.12l-.17-.16a16.33,16.33,0,0,0,4-6.54Zm-.19,8.84a13,13,0,0,0,1.55-2.72l2,.95c-.1.17-.24.27-.64.19a13.87,13.87,0,0,1-1.72,2.34c3.44,2.54,2.17,4.67.86,3.7a11.25,11.25,0,0,0-1.91-2.65,16.07,16.07,0,0,1-6,3.37l-.11-.21a16.13,16.13,0,0,0,5.23-4.05,19.77,19.77,0,0,0-3.21-2.42l.12-.23A22.62,22.62,0,0,1,110.28,159.84Zm4.26-3.53.81-.88,1.61,1.26a1.06,1.06,0,0,1-.63.26c0,2.23.36,5.17,1.69,6,.17.11.27.09.35-.1a14.94,14.94,0,0,0,.51-1.45l.17,0-.14,2c.38.59.48,1,.27,1.27-.45.55-1.31.26-1.93-.2-1.94-1.31-2.42-4.44-2.52-7.74h-8.45l-.14-.46Zm.45-2.07.89-1.1s1,.75,1.63,1.31c0,.17-.21.25-.42.25h-8.8l-.13-.46Z"/><path class="cls-1" d="M39.1,211.47c-.05.09-.13.13-.34.09a14,14,0,0,1-2.59,1.95,5,5,0,0,0,3.35,3v.1a1,1,0,0,0-.83.8c-2.21-1-2.94-2.86-3.21-5.6-.15,2.47-.8,4.37-4.21,5.61l-.09-.15c3.64-1.85,3.43-4.4,3.43-8l1.25.13c0,.13-.1.22-.31.26v.14a12.64,12.64,0,0,0,.58,3.59A14.49,14.49,0,0,0,38,210.79ZM33,210.79c.57,1.5.17,2.46-.3,2.88a.6.6,0,0,1-.93,0A.53.53,0,0,1,32,213a2.53,2.53,0,0,0,.9-2.19Z"/><path class="cls-1" d="M47.54,213.63c-.06.09-.14.14-.34.09a13.46,13.46,0,0,1-2,1.33,5,5,0,0,0,3.14,1.48v.11a.85.85,0,0,0-.78.8,3.9,3.9,0,0,1-3.19-3.69c-.15,1.57-.73,2.85-4.2,3.68l-.08-.14c3.4-1.16,3.39-2.71,3.41-4.77l1.23.12c0,.12-.11.2-.3.23a4.12,4.12,0,0,0,.67,2A12.75,12.75,0,0,0,46.51,213Zm-4.8-4c-.05.09-.13.13-.28.1-.3.23-1.1.81-1.58,1.14,2.56.75,1.71,2.21.95,1.72a3.56,3.56,0,0,0-1.21-1.69,15.34,15.34,0,0,0,1-1.69Zm-.59,3.51a1.61,1.61,0,0,1-.63,2c-.31.16-.67.11-.78-.17a.49.49,0,0,1,.33-.58,1.49,1.49,0,0,0,1-1.26Zm3-3.49c0,.08-.13.13-.28.09-.31.23-1.15.78-1.63,1.09,2.63.69,1.8,2.16,1,1.68A3.51,3.51,0,0,0,43,210.84a17.67,17.67,0,0,0,1.13-1.65Zm2.52,0a.23.23,0,0,1-.29.09c-.31.23-1.21.79-1.73,1.1,2.74.71,1.92,2.2,1.12,1.72a3.74,3.74,0,0,0-1.39-1.68,18.78,18.78,0,0,0,1.23-1.69Z"/><path class="cls-1" d="M50.78,211.89v5.28c0,.07-.35.26-.68.26H50v-4.75a7.46,7.46,0,0,1-1,1.12l-.12-.08a14.53,14.53,0,0,0,1.83-4.53l1.23.39c0,.11-.15.18-.36.18a11.18,11.18,0,0,1-.82,1.82l.39.14C51,211.8,50.94,211.85,50.78,211.89Zm6.38,1.79a.24.24,0,0,1-.25.14H54.67A5.78,5.78,0,0,0,57.28,216l0,.1a.93.93,0,0,0-.68.72,5.74,5.74,0,0,1-2-2.78v3.15a.84.84,0,0,1-.69.25h-.15v-2.6a7,7,0,0,1-2.61,2.08l-.09-.11a7.1,7.1,0,0,0,2.26-3H51.17l-.08-.26h2.64v-1.24h-.89v.3c0,.08-.36.28-.72.28H52v-3.48l.88.37h2.5l.43-.47.9.69a.59.59,0,0,1-.39.18v2.31a1.36,1.36,0,0,1-.7.21h-.14v-.39h-.92v1.24h1.14l.51-.65S56.8,213.35,57.16,213.68ZM52.84,210v2h2.65v-2Z"/><path class="cls-1" d="M58.16,209.41l.92.38h.75l.46-.47.87.83c-.07.08-.18.1-.4.11a20.4,20.4,0,0,1-1.28,2.07,2.73,2.73,0,0,1,1.26,2.17c0,.84-.31,1.32-1.24,1.35a1.6,1.6,0,0,0-.1-.66A.78.78,0,0,0,59,215v-.12h.55a.3.3,0,0,0,.2,0c.14-.07.22-.25.22-.56a3,3,0,0,0-.69-1.91c.19-.58.46-1.63.62-2.33H59v7.14c0,.07-.25.27-.65.27h-.15v-8Zm5.55,2.21.4-.53a9.18,9.18,0,0,1,.74.65.22.22,0,0,1-.23.14h-1v.85h1l.36-.43.76.57a.56.56,0,0,1-.32.15v1.83a1,1,0,0,1-.65.17h-.12v-.43h-1c.26.82,1,1.53,2.53,1.95v.11a.76.76,0,0,0-.68.77,3.48,3.48,0,0,1-2-2.63c-.26,1.05-1,2-3.14,2.64l-.07-.12a3.74,3.74,0,0,0,2.48-2.72h-.94V215c0,.07-.23.21-.61.21h-.13v-2.77l.84.34h.92v-.85H61.76l-.08-.26h2Zm-2,0a6.8,6.8,0,0,1-1.33.76l-.07-.1a6.6,6.6,0,0,0,2.38-3.07l1.24.27c0,.1-.11.15-.34.16a4.79,4.79,0,0,0,2.63,1.58v.12a.91.91,0,0,0-.61.76,4.51,4.51,0,0,1-2.13-2.36A5.77,5.77,0,0,1,61.68,211.62Zm1.15,2V213h-1v1.35h1A4.45,4.45,0,0,0,62.83,213.59Zm1.82.74V213h-1v.6a4.73,4.73,0,0,1,0,.75Z"/><path class="cls-1" d="M67.46,210.34l.93.39h1.9V209.2l1.2.12c0,.13-.08.22-.32.25v1.16h1.94l.42-.47.9.7a.6.6,0,0,1-.36.18V215a1.31,1.31,0,0,1-.73.24H73.2v-.67h-2v2.5c0,.1-.38.33-.7.33h-.18v-2.83h-2v.52c0,.09-.36.29-.73.29h-.13v-5.08Zm.86.65v1.54h2V211Zm2,1.8h-2v1.57h2Zm.88-.26h2V211h-2Zm2,1.83v-1.57h-2v1.57Z"/><path class="cls-1" d="M77.84,211l.42-.55s.49.39.78.66c0,.1-.1.14-.23.14H75.52l-.06-.25Zm-.43-1.12.43-.55s.49.39.78.66a.21.21,0,0,1-.23.15H76l-.07-.26Zm.11,2.26.4-.52s.46.37.73.64c0,.08-.1.13-.23.13H76l-.07-.25Zm0,1.14.4-.52s.46.37.73.64c0,.09-.1.13-.23.13H76l-.07-.25Zm-1.63.84.8.34h1L78,214l.81.62a.71.71,0,0,1-.34.17v2.07a1,1,0,0,1-.64.23h-.13v-.5H76.64v.59c0,.08-.33.25-.65.25h-.1v-3.36Zm.75.59v1.68h1.08v-1.68Zm5.28-5.31c0,.12-.08.21-.31.24v.52h.74l.45-.57s.52.4.83.69c0,.1-.11.14-.23.14H81.61v.72h.6l.42-.54s.49.38.78.65c0,.1-.1.15-.23.15H81.61v.77h.92l.46-.59s.51.41.83.69c0,.1-.1.15-.23.15H78.87l-.07-.25h2v-.77H79.34l-.07-.26h1.51v-.72H79.09l-.06-.26h1.75v-.87Zm-2.49,3.33.86.37h1.9l.37-.44.89.65a.75.75,0,0,1-.35.17v3c0,.59-.11.94-1,1a1.28,1.28,0,0,0-.16-.61,1,1,0,0,0-.61-.27v-.13l.83,0c.13,0,.17,0,.17-.16v-.81h-2v1.64c0,.08-.34.28-.67.28h-.14v-4.73Zm2.85,1.45v-.83h-2v.83Zm-2,1.11h2v-.85h-2Z"/><path class="cls-1" d="M84.57,212c.22.27.37.47.6.47s1.12-.08,1.65-.14a8.24,8.24,0,0,0-.06-1.27c0-.21-.24-.28-.64-.37v-.15a1.56,1.56,0,0,1,.61-.17c.32,0,.94.29.94.6s-.12.2-.15.51,0,.47,0,.77l1.73-.17a13.75,13.75,0,0,0,0-1.6c0-.21-.24-.27-.65-.35v-.16a1.81,1.81,0,0,1,.65-.19c.45,0,1,.39,1,.65s-.18.16-.21.6l0,1c.88-.08,1-.15,1.16-.15.45,0,1,.21,1,.56s-.11.29-.32.29-.68-.12-1.48-.12H90a5.45,5.45,0,0,1-.63,2.95,4.61,4.61,0,0,1-2.54,1.64l-.09-.17a4.76,4.76,0,0,0,2-1.68,5.66,5.66,0,0,0,.52-2.7c-.6,0-1.24.1-1.73.16v1.74c0,.36-.11.52-.36.52s-.49-.47-.49-.78a10,10,0,0,0,.16-1.39,7.46,7.46,0,0,0-1,.2,2.75,2.75,0,0,1-.62.2c-.3,0-.65-.47-.74-.66a1.66,1.66,0,0,1-.06-.57Z"/><path class="cls-1" d="M93.52,211.9c.2.26.36.44.59.43.4,0,1.76-.16,2.47-.24a11.84,11.84,0,0,0-.07-1.25c-.06-.24-.28-.31-.68-.38v-.17a2,2,0,0,1,.75-.18c.42,0,1,.33,1,.58s-.17.23-.2.48,0,.51,0,.84c1.73-.23,1.8-.36,2-.36s.92.23.92.55-.12.31-.36.31-.59,0-1.05,0-1,.06-1.55.11v.76c0,.81.06,2.51.06,2.81s-.28.92-.68.92-.31-.17-.52-.49a2.15,2.15,0,0,0-.7-.61l.08-.17a7.81,7.81,0,0,0,.89.21c.1,0,.16,0,.17-.12,0-.44,0-1.8,0-2.56v-.67c-.56.07-1.23.17-1.67.27s-.48.25-.71.25a1.09,1.09,0,0,1-.75-.64,1.73,1.73,0,0,1-.08-.56Zm1.66,1.8c0,1-.59,2.41-1.33,2.41a.4.4,0,0,1-.42-.43c0-.32.21-.37.58-.67a2.78,2.78,0,0,0,1-1.34Zm3.07,0,.09-.14c1,.29,2,1,2.11,1.79,0,.3-.12.52-.4.52s-.44-.31-.59-.6A4.3,4.3,0,0,0,98.25,213.72Zm1.43-4.35a1,1,0,1,1-1,1A1,1,0,0,1,99.68,209.37Zm0,1.61a.64.64,0,1,0-.64-.65A.63.63,0,0,0,99.68,211Z"/><path class="cls-1" d="M102.94,213.32c.88,0,3.73-.18,4.22-.22s.93-.11,1.15-.11c.45,0,.89.23.89.55s-.17.32-.5.32l-1.24,0c-.63,0-2.82.13-3.5.21s-.7.23-1,.23-.8-.51-.95-.89a1.34,1.34,0,0,1,0-.6l.16,0C102.36,213.07,102.51,213.32,102.94,213.32Z"/><path class="cls-1" d="M112,209.8c.41,0,1.12.39,1.12.65s-.17.29-.22.6-.06.92-.08,1.44a6.39,6.39,0,0,1,2.21.7,1,1,0,0,1,.58.83.42.42,0,0,1-.41.45c-.45,0-.52-.41-1.14-.94a5.57,5.57,0,0,0-1.24-.71c0,.78,0,2.06,0,2.9,0,.44,0,.72,0,.86,0,.36-.1.51-.38.51s-.6-.49-.6-1c0-.22.08-.4.12-.77.07-.66.08-2,.08-2.56s0-1.77-.08-2.19-.29-.37-.69-.43V210A2.16,2.16,0,0,1,112,209.8Z"/><path class="cls-1" d="M116.91,213l-.07-.11a8.68,8.68,0,0,0,3.6-3.79l1.4.33c0,.13-.14.18-.4.2a7.65,7.65,0,0,0,3.77,2.25v.14a1.09,1.09,0,0,0-.73.83,6.42,6.42,0,0,1-3.18-3.11A9.59,9.59,0,0,1,116.91,213Zm2.08,3.24a16.73,16.73,0,0,0,.75-2.16h-2.35l-.08-.25h5.94l.55-.67s.62.46,1,.79c0,.09-.12.13-.25.13h-3.68a19.37,19.37,0,0,1-1.47,2.15l3.55-.21a7.62,7.62,0,0,0-1.07-1.27l.09-.08c3.24,1.12,2.59,3.28,1.58,2.58a4.19,4.19,0,0,0-.47-1c-1.14.25-2.65.55-4.8.91a.32.32,0,0,1-.25.19l-.51-1Zm2.77-4,.5-.64s.58.44.94.75c0,.1-.11.14-.24.14h-4.07l-.07-.25Z"/><path class="cls-1" d="M127.14,211v-1.71l1.12.1c0,.12-.1.21-.33.25V211h.23l.5-.47.73.78c-.08.07-.19.08-.4.1a6.41,6.41,0,0,1-1,1.42c1.84.48,1.33,1.76.65,1.32A3.62,3.62,0,0,0,128,213v4.13a.81.81,0,0,1-.68.27h-.16v-3.76a7.14,7.14,0,0,1-1.44,1l-.09-.09a8.51,8.51,0,0,0,2.51-3.35h-2.22l-.08-.24Zm3.66,1.39v-3.08l1.2.12c0,.13-.09.22-.32.24v2.72h.79l.49-.66s.55.45.88.77c0,.1-.11.14-.23.14h-1.93v4.18h1l.5-.67s.58.47.91.79c0,.09-.11.14-.23.14h-5.26l-.07-.26h2.29V212.6h-1.63l-.07-.25Z"/><path class="cls-2" d="M57.89,188.53l.16,8.07v5.6l2.86.28v.74H54.77v-.74L57,202.2v-15l-.12-.18-2.09-.17v-.72h4.72l9.07,13.3-.07-6.14v-6.16l-2.93-.28v-.72h6.14v.72l-2.28.28v16.21h-1.4Z"/><path class="cls-2" d="M73.12,197.06c0-4.14,2.86-6.46,6.09-6.46s6.12,2.3,6.12,6.46-2.7,6.54-6.12,6.54S73.12,201.22,73.12,197.06Zm9.39.05c0-3.79-1.23-5.75-3.3-5.75s-3.28,2-3.28,5.75,1.24,5.72,3.28,5.72S82.51,200.9,82.51,197.11Z"/><path class="cls-2" d="M87.93,201.9a1.66,1.66,0,0,1,1.7-1.7,1.68,1.68,0,0,1,1.7,1.7,1.71,1.71,0,0,1-1.7,1.7A1.69,1.69,0,0,1,87.93,201.9Z"/><path class="cls-2" d="M104.19,180.71l.47.35-.12,5v9.9l.06,5.92,4.54.47v.9h-13v-.9l4.79-.47.06-5.92V183l-4.26.56v-1Z"/><path class="cls-31" d="M151.82,225a22.37,22.37,0,0,0,3.52-21,18.32,18.32,0,0,0-4.08-6.94c.05.23,0,.26.05.27a21,21,0,0,1,4.58,11.53,22.07,22.07,0,0,1-1.34,9.85,19.32,19.32,0,0,1-11.14,11.65,20.21,20.21,0,0,1-7.64,1.55c-.45,0-.84.11-.78.69s.46.55.87.5c1.27-.17,2.56-.26,3.82-.53A19.65,19.65,0,0,0,151.82,225Z"/><path class="cls-32" d="M144.77,222.85a5.31,5.31,0,0,0-.92,6.43,4.92,4.92,0,0,0,3.1-3.67,20,20,0,0,0,0-3.46,9.92,9.92,0,0,0-.24-1.34C146,221.6,145.34,222.21,144.77,222.85Z"/><path class="cls-33" d="M145.65,231.37a5.18,5.18,0,0,0,4.35,1.87,12.49,12.49,0,0,0,4.48-1.59c-.8-.43-1.5-.86-2.22-1.21C149.65,229.2,147.76,229.46,145.65,231.37Z"/><path class="cls-34" d="M149.42,215.82c-.35,1.09-.75,2.13-1,3.2a4.76,4.76,0,0,0,1.78,5.06C152.26,221.91,151.91,217.81,149.42,215.82Z"/><path class="cls-35" d="M152.62,225.68c2.86,1.54,5.37.46,7.77-2.56C157,222.24,154,222.53,152.62,225.68Z"/><path class="cls-36" d="M156.4,218c2.84.84,5.08-1.09,6.41-4.37C159.28,213.82,157,214.77,156.4,218Z"/><path class="cls-37" d="M154.05,217.48c1.11-2.55-.56-6-3.37-6.93C150.32,214,151,216.41,154.05,217.48Z"/><path class="cls-38" d="M157.35,210.2c2.66.1,5.17-2.87,4.93-5.77C158.71,205.52,157.06,207.43,157.35,210.2Z"/><path class="cls-39" d="M150,205c.52,3.54,2.13,5.51,5,5.61C155.44,207.88,153.67,205.88,150,205Z"/><path class="cls-40" d="M157.9,195.48c-2.62,2.35-3.64,4.75-2,7.21C158.28,201.31,158.7,199.82,157.9,195.48Z"/><path class="cls-41" d="M147.56,199.34c1.46,3.23,3.52,4.78,6.14,4C153.32,200.72,151.15,199.32,147.56,199.34Z"/><path class="cls-42" d="M147.35,193.44c-.67-2.69-3.18-3.44-5.94-3.12C142.94,193.16,145.11,194.3,147.35,193.44Z"/><path class="cls-43" d="M143.34,195.84c2.31,2.21,4.63,2.61,6.53,1.16C148.75,195.14,146.79,194.53,143.34,195.84Z"/><path class="cls-44" d="M151.21,195.66c1.77-1.49,1.81-3.93.08-6.63C149.5,191.74,149.48,194.17,151.21,195.66Z"/><path class="cls-45" d="M32.68,231.91c-1.06-.09-2.13-.14-3.18-.31a18.91,18.91,0,0,1-12.56-7.3A21.93,21.93,0,0,1,12.7,207a21.64,21.64,0,0,1,4.48-10.11c-.11.11-.23.2-.33.32a20.24,20.24,0,0,0-5,12.37,21.86,21.86,0,0,0,.81,7.67,20.76,20.76,0,0,0,10,13A22.2,22.2,0,0,0,32.63,233c.38,0,.68-.05.7-.52S33.07,231.94,32.68,231.91Z"/><path class="cls-46" d="M18.38,229.72a11.5,11.5,0,0,0-4.44,1.88l-.06.24a29.06,29.06,0,0,0,3.87,1.34,4.79,4.79,0,0,0,4.9-1.87A5.22,5.22,0,0,0,18.38,229.72Z"/><path class="cls-47" d="M21.77,221l-.3.12c-.07,1.22-.18,2.44-.18,3.66a4.83,4.83,0,0,0,3.21,4.48,4.85,4.85,0,0,0-.1-5.16A40.64,40.64,0,0,0,21.77,221Z"/><path class="cls-48" d="M12.51,222.84a11.2,11.2,0,0,0-4.64.2c2.28,2.92,4.82,4.3,7.91,2.65A4.88,4.88,0,0,0,12.51,222.84Z"/><path class="cls-49" d="M18.74,215.89c-2.37,3.13-2.77,5.76-.62,8.19C20.76,222,20.55,219,18.74,215.89Z"/><path class="cls-50" d="M12,218c-.53-3.45-3.55-4.28-6.43-4.34C6.85,217,9.21,218.88,12,218Z"/><path class="cls-51" d="M17.67,210.5c-3,1.34-4.69,4.91-3.33,7C17.11,216.43,18,214.67,17.67,210.5Z"/><path class="cls-52" d="M10.94,210.2c.48-2.84-1.56-4.82-4.95-5.76C6.43,207.77,7.93,210.22,10.94,210.2Z"/><path class="cls-53" d="M18.38,204.93c-3.62.87-5.6,3-5.07,5.68C16.82,210.38,17.74,207.82,18.38,204.93Z"/><path class="cls-54" d="M12.48,202.71c1.57-2.56.51-5-2-7.17C9.54,198.6,9.67,201.17,12.48,202.71Z"/><path class="cls-55" d="M14.58,203.36c2.62.73,4.8-.71,6.19-4.06C17.05,199.39,15.3,200.53,14.58,203.36Z"/><path class="cls-56" d="M26.93,190.26c-3-.16-5.15.43-6,3.19C23.48,194.29,25.39,193.09,26.93,190.26Z"/><path class="cls-57" d="M24.93,195.86c-2.85-1.18-4.95-1.08-6.51,1.14C20.49,198.5,22.65,198,24.93,195.86Z"/><path class="cls-58" d="M17.13,195.64c1.71-1.52,1.71-3.84-.06-6.59C15.32,191.58,15.35,194.2,17.13,195.64Z"/><path class="cls-2" d="M39.54,226.94l.77-1s.88.68,1.4,1.18c0,.17-.19.25-.41.25h-6l-.11-.45Zm-.84-2,.76-1s.88.68,1.41,1.18c0,.17-.19.25-.42.25H36.07l-.13-.44Zm.19,4.05.72-.93s.83.65,1.32,1.13c0,.18-.19.26-.41.26H36.07l-.13-.46Zm0,2,.72-.92s.83.65,1.32,1.13c0,.18-.19.25-.41.25H36.07l-.13-.46ZM36,232.56l1.43.6h1.72l.67-.75,1.47,1.14a1,1,0,0,1-.62.28v3.75a1.92,1.92,0,0,1-1.15.41h-.22v-.9H37.31v1.06c0,.13-.59.45-1.16.45H36v-6Zm1.35,1.07v3h1.95v-3Zm5.15-.4c.56,1.69.24,2.93-.28,3.49a.83.83,0,0,1-1.3-.05.84.84,0,0,1,.39-1.08,3.11,3.11,0,0,0,.94-2.36ZM44,226.71a12.45,12.45,0,0,0,.2-1.42H41.9l-.14-.45H48l.75-.77,1.44,1.17a1,1,0,0,1-.62.27c-.1,3.43-.32,4.91-1,5.47a2.39,2.39,0,0,1-1.64.52,1.43,1.43,0,0,0-.22-1,2.39,2.39,0,0,0-1.13-.48v-.22c.46,0,1.25.08,1.53.08s.37,0,.47-.14c.3-.29.46-1.71.54-4.48H45.76a17,17,0,0,1-.39,1.86c1.86.88,1.62,2.38.44,2.15a6.19,6.19,0,0,0-.94-.87,6.77,6.77,0,0,1-3.56,3.27l-.14-.23a7,7,0,0,0,2.55-3.81,12.76,12.76,0,0,0-1.86-.92l.11-.19A11.32,11.32,0,0,1,44,226.71Zm1.26,6.17a.51.51,0,0,1-.48.4v3.44c0,.19,0,.25.43.25H47a.31.31,0,0,0,.29-.14,8.49,8.49,0,0,0,.46-1.52h.19l0,1.55c.38.16.46.3.46.57,0,.54-.52.85-2.45.85h-1.2c-1.2,0-1.39-.29-1.39-1.2V232.7Zm.73.71a5.63,5.63,0,0,0-2.38-2.13l.11-.15C47.8,231.22,47.42,234.17,45.94,233.59Zm2.85,3.11a7.61,7.61,0,0,0-1.11-3.58l.17-.1C51.58,235,50.08,238,48.79,236.7Z"/><path class="cls-2" d="M53.49,225.24a4.52,4.52,0,0,1,.22.94h4.14v-2.42l2.16.17c0,.22-.16.38-.58.45v1.8h4.26l.86-.86,1.5,1.42c-.13.13-.3.16-.62.19a15.54,15.54,0,0,1-2,1.63c.27.2.59.46.83.66,0,.18-.21.26-.43.26H59.4v3.05h2.49l.86-1.12s1,.78,1.61,1.32c0,.18-.21.26-.43.26H59.4v3.65a21.25,21.25,0,0,0,2.65.13c.92,0,3,0,4.08,0v.2a1.23,1.23,0,0,0-.84,1.31H62c-3.68,0-5.72-.69-6.93-3.73a8.55,8.55,0,0,1-3.72,4.06l-.13-.15c2.11-1.89,2.92-4.85,3.14-7.29l2.14.4c-.06.22-.24.35-.6.36a11.85,11.85,0,0,1-.66,2.19,4.49,4.49,0,0,0,2.7,2.23v-6.84H53.34l-.13-.46h8.57l.89-1.05.53.38c.19-.5.41-1.18.55-1.72h-10a2.49,2.49,0,0,1-.93,2.24A.84.84,0,1,1,52,227.5a2.58,2.58,0,0,0,1.26-2.26Z"/><path class="cls-2" d="M75.89,233c0,.19-.16.35-.54.4v1h3.92l1-1.21s1.1.83,1.78,1.42c0,.17-.22.24-.44.24H75.35v3.36a2,2,0,0,1-1.27.4h-.29v-3.76H67.35l-.13-.45h6.57v-1.58ZM72,229.8l.08.19c-.77.67-1.88,1.66-3.43,2.87a.56.56,0,0,1-.29.46l-1-1.5C68.14,231.54,70.09,230.69,72,229.8ZM75.88,224c0,.21-.15.35-.53.41v1.49h3.48l1-1.18s1.1.81,1.79,1.38c0,.18-.22.26-.45.26H74.27l1.35.62a.54.54,0,0,1-.6.26,19.63,19.63,0,0,1-1.57,1.19c1.06.93.2,2.12-.74,1.45a4.31,4.31,0,0,0-1.26-2.13l.15-.12a5.52,5.52,0,0,1,1.36.45c.24-.49.49-1.12.73-1.72H67.84l-.14-.46h6.09V223.8Zm-6.21,5.61a5.92,5.92,0,0,0-1.41-2.6l.16-.09C72.27,227.9,71,230.63,69.67,229.59Zm7.67-1.13c-.09.17-.3.27-.65.21a22.22,22.22,0,0,1-3.22,2.8l2.89-.11a6.71,6.71,0,0,0-.74-1.21l.16-.1c3.73,1.17,2.27,3.86,1,2.7a3.86,3.86,0,0,0-.21-1c-1,.27-2.36.59-4.18,1a.55.55,0,0,1-.39.33l-.85-1.59,1.74,0a26.75,26.75,0,0,0,2.79-3.87Zm3.13,4.32a11,11,0,0,0-3.13-2.89l.13-.15C82.45,230.36,82,233.4,80.47,232.78Zm.75-5.09a.58.58,0,0,1-.67.18,15.85,15.85,0,0,1-2.71,1.58l-.18-.18a21.26,21.26,0,0,0,1.74-2.68Z"/><path class="cls-2" d="M84.38,229.94a4.47,4.47,0,0,0-1.35-2.1l.12-.11C86.88,228.2,85.74,230.88,84.38,229.94Zm.05,3.64c.3-.56.3-.56,2.81-6.57l.27.06c-.55,1.84-1.57,5.26-1.76,6.05a7,7,0,0,0-.19,1.41c0,.82.59,1.46.54,2.84A1.13,1.13,0,0,1,85,238.6c-.32,0-.62-.25-.7-.8.27-1.65.19-3.09-.16-3.33a1.68,1.68,0,0,0-.8-.24v-.32H84C84.21,233.91,84.27,233.9,84.43,233.58Zm1.1-7.29A6.09,6.09,0,0,0,83.92,224l.14-.11C88,224.36,87,227.15,85.53,226.29Zm1.93,3.83,1.42.62H91.6v-1.58H87.28l-.12-.46h2.66v-2.09H87.46l-.13-.45h2.49V223.9l2,.17c0,.23-.18.39-.59.45v1.64h2.14V223.9l2,.17c0,.23-.18.39-.59.45v1.64h.75l.81-1.08s.93.75,1.49,1.27c0,.18-.21.26-.44.26H94.81v2.09h.85l.84-1.12s1,.77,1.55,1.33c0,.17-.21.25-.43.25H93v1.58h2.79l.67-.78,1.56,1.16a1.12,1.12,0,0,1-.71.35v5.39c0,1-.21,1.57-1.92,1.72a1.65,1.65,0,0,0-.36-1,2.59,2.59,0,0,0-1.33-.49v-.23s1.6.1,1.93.1.34-.1.34-.32V231.2H92.93v3.86H94v-3l1.37.14c0,.14-.11.25-.36.3V236c0,.11-.45.33-.8.33H94v-.79H90.62v.81c0,.11-.43.32-.75.32h-.21V232.1l1.31.14c0,.14-.11.25-.35.3v2.52h1.1V231.2H88.78v6.92c0,.15-.56.46-1.11.46h-.21v-8.46Zm3.78-1.42h2.14v-2.09H91.24Z"/><path class="cls-2" d="M104.27,231.71c0,.23-.24.37-.61.39a12.77,12.77,0,0,1-.49,1.86,4.39,4.39,0,0,0,2.62,2.33v-6.83h-2.68v.66c0,.14-.66.48-1.28.48h-.24v-6.32l1.63.67h6.57l.75-.83,1.59,1.23a1,1,0,0,1-.65.32V230a2.1,2.1,0,0,1-1.28.44H110v-.94h-2.63v3.16h2.8l1-1.19s1.1.82,1.75,1.4c0,.17-.2.25-.44.25h-5.07v3.56a20,20,0,0,0,2.71.14c.89,0,3,0,4,0V237a1.18,1.18,0,0,0-.8,1.24H110c-3.72,0-5.73-.72-7-3.82a8.11,8.11,0,0,1-3.69,4.22l-.14-.17c2-1.82,2.77-4.71,3-7.08Zm-1.16-6.31V229H110V225.4Z"/><path class="cls-2" d="M116.57,225.13l1.74.73h3.82v-2.07l2.08.17c0,.23-.18.39-.58.43v1.47h3.65l.9-1.18s1,.81,1.62,1.39c0,.16-.2.24-.43.24H118.05v2.21h2.54V226.8l2,.19c0,.19-.15.34-.54.4v1.13h2.62V226.8l2,.19c0,.19-.15.34-.53.4v1.13h1.36l.82-1.08s.93.75,1.49,1.27c0,.18-.19.26-.43.26h-3.24v2.82c0,.15-.67.45-1.23.45h-.25v-.83H122v.49c0,.15-.64.43-1.18.43h-.25V229h-2.54v.94c0,2.7-.14,6.25-2.8,8.64l-.21-.14c1.43-2.5,1.53-5.63,1.53-8.48v-4.8Zm8.93,7.81,1-.73,1.41,1.24c-.12.14-.3.19-.71.21a9.46,9.46,0,0,1-2.51,2.41A19.9,19.9,0,0,0,130,237v.18a1.7,1.7,0,0,0-1.22,1.43,14.5,14.5,0,0,1-5.39-1.78,19.21,19.21,0,0,1-6.49,1.76l-.08-.25a19.07,19.07,0,0,0,5.7-2.15,7.69,7.69,0,0,1-2.06-2.78h-1.83l-.15-.46Zm-.07.46h-4.59a6.42,6.42,0,0,0,2.57,2.16A8.09,8.09,0,0,0,125.43,233.4Zm-.79-2.45v-2H122v2Z"/><path class="cls-1" d="M39.1,285.05c-.06.09-.14.14-.34.09a13.54,13.54,0,0,1-2.59,1.95,5.05,5.05,0,0,0,3.35,3v.09a1,1,0,0,0-.83.8c-2.21-1-2.94-2.85-3.21-5.6-.15,2.47-.8,4.37-4.21,5.61l-.09-.15c3.64-1.84,3.42-4.4,3.43-8l1.25.12c0,.14-.1.22-.32.26v.14a12.49,12.49,0,0,0,.59,3.59A14.49,14.49,0,0,0,38,284.37ZM33,284.37c.57,1.51.17,2.47-.3,2.88a.61.61,0,0,1-.93,0,.53.53,0,0,1,.21-.71,2.53,2.53,0,0,0,.9-2.19Z"/><path class="cls-1" d="M47.53,287.22c-.05.09-.13.13-.33.09a13.89,13.89,0,0,1-2,1.32,5.13,5.13,0,0,0,3.15,1.49v.1a.86.86,0,0,0-.79.8,3.9,3.9,0,0,1-3.18-3.69c-.15,1.57-.73,2.86-4.2,3.68l-.08-.13c3.4-1.16,3.39-2.72,3.41-4.77l1.23.11c0,.13-.11.21-.31.23a4.19,4.19,0,0,0,.68,2,12.27,12.27,0,0,0,1.43-1.94Zm-4.79-4c-.05.09-.14.13-.29.1-.29.24-1.1.81-1.57,1.14,2.56.76,1.71,2.21.94,1.72a3.4,3.4,0,0,0-1.2-1.68,18.3,18.3,0,0,0,1-1.7Zm-.59,3.51a1.62,1.62,0,0,1-.64,2,.53.53,0,0,1-.77-.17.5.5,0,0,1,.33-.59,1.5,1.5,0,0,0,1-1.26Zm3-3.48c0,.08-.13.12-.28.09-.31.23-1.15.78-1.64,1.09,2.64.69,1.8,2.15,1,1.67A3.56,3.56,0,0,0,43,284.42a15.66,15.66,0,0,0,1.12-1.65Zm2.52,0c-.05.08-.14.12-.3.08-.3.23-1.2.79-1.72,1.1,2.74.71,1.92,2.2,1.12,1.72a3.79,3.79,0,0,0-1.39-1.68,18.78,18.78,0,0,0,1.23-1.69Z"/><path class="cls-1" d="M50.78,285.47v5.28a.94.94,0,0,1-.68.26H50v-4.75a6.62,6.62,0,0,1-1.05,1.12l-.11-.07a14.49,14.49,0,0,0,1.83-4.54l1.23.39c0,.11-.15.18-.36.18a10.81,10.81,0,0,1-.82,1.82l.39.14C51,285.38,50.94,285.43,50.78,285.47Zm6.38,1.79c0,.1-.12.14-.25.14H54.67a5.66,5.66,0,0,0,2.61,2.18l0,.1a.91.91,0,0,0-.68.73,5.77,5.77,0,0,1-2-2.79v3.15a.83.83,0,0,1-.69.26h-.15v-2.61a7.17,7.17,0,0,1-2.61,2.09l-.09-.12a7,7,0,0,0,2.26-3H51.16l-.07-.25h2.64V285.9h-.89v.31c0,.08-.36.27-.72.27H52V283l.88.36h2.5l.43-.46.9.68a.64.64,0,0,1-.39.19v2.3a1.39,1.39,0,0,1-.7.21h-.14v-.39h-.92v1.25h1.14l.51-.66S56.8,286.93,57.16,287.26Zm-4.32-3.63v2h2.65v-2Z"/><path class="cls-1" d="M58.16,283l.92.37h.75l.46-.46.87.82c-.07.08-.19.11-.4.12a20.29,20.29,0,0,1-1.28,2.06,2.74,2.74,0,0,1,1.26,2.18c0,.84-.32,1.32-1.24,1.34a1.55,1.55,0,0,0-.1-.65.91.91,0,0,0-.42-.2v-.11h.55a.25.25,0,0,0,.2-.06c.14-.07.22-.25.22-.56a2.92,2.92,0,0,0-.7-1.91c.2-.58.47-1.62.63-2.32H59v7.13c0,.07-.25.28-.65.28h-.15v-8Zm5.55,2.2.4-.53s.46.37.74.65c0,.1-.11.14-.23.14h-1v.85h1l.36-.42.76.56a.51.51,0,0,1-.32.15v1.83a1,1,0,0,1-.65.18h-.13v-.44h-1a3.2,3.2,0,0,0,2.53,1.95v.11a.76.76,0,0,0-.68.77,3.48,3.48,0,0,1-2-2.63c-.26,1.05-1,2-3.14,2.64l-.07-.11a3.77,3.77,0,0,0,2.48-2.73h-.94v.37c0,.06-.23.2-.61.2h-.13V286l.84.33h.92v-.85H61.75l-.07-.26h2Zm-2,0a6.64,6.64,0,0,1-1.34.77l-.06-.11a6.55,6.55,0,0,0,2.38-3.07l1.24.28c0,.09-.11.14-.35.16a4.86,4.86,0,0,0,2.64,1.57v.12a.94.94,0,0,0-.61.76,4.47,4.47,0,0,1-2.13-2.36A5.67,5.67,0,0,1,61.68,285.2Zm1.15,2v-.61h-1v1.36h1A4.57,4.57,0,0,0,62.83,287.17Zm1.81.75v-1.36h-1v.6a4.85,4.85,0,0,1,0,.76Z"/><path class="cls-1" d="M67.46,283.93l.93.39h1.9v-1.54l1.2.13c0,.12-.08.21-.32.25v1.16h1.94l.42-.47.9.69a.66.66,0,0,1-.37.19v3.9a1.24,1.24,0,0,1-.72.24H73.2v-.68h-2v2.5c0,.11-.38.33-.71.33h-.17v-2.83h-2v.52c0,.09-.36.3-.73.3h-.13v-5.08Zm.86.64v1.55h2v-1.55Zm2,1.8h-2v1.57h2Zm.88-.25h2v-1.55h-2Zm2,1.82v-1.57h-2v1.57Z"/><path class="cls-1" d="M77.84,284.53l.42-.55s.49.39.78.67c0,.09-.1.14-.23.14H75.52l-.06-.26Zm-.43-1.12.43-.55s.49.39.78.67c0,.1-.11.14-.23.14H76l-.07-.26Zm.11,2.26.4-.52s.46.37.73.64c0,.09-.1.13-.23.13H76l-.07-.25Zm0,1.15.4-.53s.46.38.73.64c0,.09-.1.14-.23.14H76l-.07-.25Zm-1.63.83.79.35h1l.37-.42.82.62a.7.7,0,0,1-.35.17v2.07c0,.07-.38.23-.63.23h-.13v-.49H76.64v.58c0,.08-.33.25-.65.25h-.1v-3.36Zm.75.59v1.68h1.08v-1.68Zm5.28-5.31c0,.13-.08.22-.32.24v.53h.75l.45-.58s.52.4.83.69c0,.1-.11.14-.23.14H81.6v.72h.61l.42-.54s.49.38.78.66c0,.09-.1.14-.23.14H81.6v.77h.93l.46-.58s.51.4.83.69c0,.09-.11.14-.23.14H78.87l-.08-.25h2v-.77H79.33l-.07-.26h1.52V284H79.09L79,283.7h1.75v-.87Zm-2.49,3.34.85.36h1.91l.37-.43.89.64a.6.6,0,0,1-.35.17v3c0,.6-.11.94-1,1a1.2,1.2,0,0,0-.16-.6.94.94,0,0,0-.61-.28V290l.83,0c.13,0,.17,0,.17-.16v-.8h-2v1.63c0,.09-.34.28-.67.28h-.14v-4.72Zm2.85,1.44v-.82h-2v.82Zm-2,1.11h2V288h-2Z"/><path class="cls-1" d="M84.57,285.56c.21.26.36.47.6.47s1.12-.09,1.65-.14a9.84,9.84,0,0,0-.06-1.28c0-.2-.24-.27-.64-.36v-.15a1.65,1.65,0,0,1,.62-.17c.32,0,.94.28.94.59s-.12.21-.15.52c0,.15,0,.47,0,.77l1.72-.18a14.33,14.33,0,0,0,0-1.6c0-.21-.24-.27-.65-.34v-.16a1.61,1.61,0,0,1,.65-.2c.45,0,1,.39,1,.65s-.18.16-.21.6l0,1c.88-.09,1-.16,1.16-.16.45,0,1,.21,1,.57s-.12.28-.32.28-.68-.12-1.48-.12H90a5.51,5.51,0,0,1-.63,3,4.72,4.72,0,0,1-2.54,1.64l-.1-.17a4.83,4.83,0,0,0,2-1.69,5.5,5.5,0,0,0,.51-2.69c-.59,0-1.23.1-1.72.16v1.74c0,.35-.11.51-.36.51s-.49-.47-.49-.78a9.76,9.76,0,0,0,.16-1.38,7.71,7.71,0,0,0-1,.19,2.83,2.83,0,0,1-.62.21c-.3,0-.65-.47-.74-.67a1.61,1.61,0,0,1-.06-.57Z"/><path class="cls-1" d="M93.52,285.49c.2.25.36.43.59.42.4,0,1.76-.16,2.47-.24a11.84,11.84,0,0,0-.07-1.25c-.06-.24-.28-.31-.68-.38v-.17a2.23,2.23,0,0,1,.75-.17c.42,0,1,.32,1,.57s-.17.23-.2.48,0,.52,0,.84c1.73-.23,1.8-.36,2-.36s.92.23.92.55-.12.31-.36.31-.59,0-1.05,0-1,.05-1.55.1v.76c0,.81.06,2.51.06,2.82s-.28.92-.68.92-.31-.18-.52-.5a2.55,2.55,0,0,0-.7-.61l.08-.17a5.84,5.84,0,0,0,.89.21c.1,0,.16,0,.17-.12,0-.44,0-1.8,0-2.55v-.68a16.09,16.09,0,0,0-1.67.28c-.34.07-.48.25-.71.25s-.6-.32-.75-.64a1.75,1.75,0,0,1-.08-.57Zm1.66,1.8c0,1-.59,2.4-1.33,2.4a.4.4,0,0,1-.42-.43c0-.32.21-.37.58-.67a2.64,2.64,0,0,0,1-1.34Zm3.07,0,.09-.15c1,.3,2,1,2.11,1.79,0,.31-.12.53-.4.53s-.44-.31-.59-.61A4.3,4.3,0,0,0,98.25,287.31ZM99.68,283a1,1,0,1,1,0,1.94,1,1,0,0,1,0-1.94Zm0,1.62a.64.64,0,0,0,.64-.65.64.64,0,0,0-1.28,0A.65.65,0,0,0,99.68,284.57Z"/><path class="cls-1" d="M102.94,286.91c.88,0,3.73-.19,4.22-.23s.93-.11,1.15-.11c.45,0,.89.23.89.55s-.17.33-.51.33-.64,0-1.24,0-2.82.13-3.49.21-.7.23-1,.23-.8-.51-.95-.88a1.39,1.39,0,0,1,0-.61l.16-.05C102.36,286.65,102.51,286.91,102.94,286.91Z"/><path class="cls-1" d="M112,283.39c.41,0,1.12.39,1.12.64s-.17.3-.22.61-.06.92-.08,1.43a6.61,6.61,0,0,1,2.21.7,1,1,0,0,1,.58.84.41.41,0,0,1-.41.44c-.45,0-.52-.41-1.14-.94a5.57,5.57,0,0,0-1.24-.71c0,.78,0,2.07,0,2.91,0,.43,0,.72,0,.85,0,.36-.1.51-.38.51s-.6-.48-.6-1c0-.21.08-.4.12-.77.07-.66.08-2,.08-2.55s0-1.78-.08-2.19-.29-.38-.69-.44v-.16A2.13,2.13,0,0,1,112,283.39Z"/><path class="cls-1" d="M116.91,286.62l-.07-.1a8.57,8.57,0,0,0,3.59-3.8l1.41.34c0,.12-.14.18-.4.19a7.62,7.62,0,0,0,3.77,2.26v.14a1.06,1.06,0,0,0-.73.82,6.42,6.42,0,0,1-3.18-3.11A9.46,9.46,0,0,1,116.91,286.62Zm2.08,3.25a17.41,17.41,0,0,0,.75-2.17h-2.35l-.08-.24h5.94l.54-.68s.63.46,1,.79c0,.09-.12.13-.25.13h-3.68a19.81,19.81,0,0,1-1.47,2.15l3.54-.2a7.22,7.22,0,0,0-1.06-1.28l.09-.07c3.24,1.11,2.59,3.28,1.58,2.57a4,4,0,0,0-.47-1c-1.14.25-2.65.54-4.8.9a.36.36,0,0,1-.25.2l-.51-1Zm2.77-4,.5-.64s.58.43.94.74c0,.1-.12.14-.24.14h-4.07l-.07-.24Z"/><path class="cls-1" d="M127.14,284.54v-1.7l1.12.09c0,.13-.1.22-.33.25v1.36h.23l.5-.47.72.78a.65.65,0,0,1-.39.11,6.72,6.72,0,0,1-1,1.41c1.84.48,1.33,1.76.65,1.32a3.62,3.62,0,0,0-.7-1.08v4.13c0,.07-.28.27-.68.27h-.16v-3.76a7.63,7.63,0,0,1-1.44,1l-.09-.09a8.66,8.66,0,0,0,2.51-3.35h-2.22l-.08-.25Zm3.66,1.39v-3.08l1.2.12c0,.13-.09.22-.32.25v2.71h.79l.49-.66s.55.46.88.78c0,.09-.11.14-.24.14h-1.92v4.17h1l.5-.67s.58.47.91.79c0,.1-.11.14-.24.14h-5.25l-.07-.26h2.29v-4.17h-1.63l-.07-.26Z"/><path class="cls-2" d="M57.89,262.11l.16,8.07v5.6l2.86.28v.75H54.77v-.75l2.23-.28v-15l-.11-.19-2.09-.16v-.72h4.72L68.59,273l-.07-6.14v-6.16l-2.93-.28v-.72h6.14v.72l-2.28.28v16.2h-1.4Z"/><path class="cls-2" d="M73.12,270.65c0-4.14,2.86-6.47,6.09-6.47s6.12,2.3,6.12,6.47-2.7,6.53-6.12,6.53S73.12,274.81,73.12,270.65Zm9.39,0c0-3.79-1.23-5.74-3.3-5.74s-3.28,1.95-3.28,5.74,1.23,5.72,3.28,5.72S82.51,274.48,82.51,270.69Z"/><path class="cls-2" d="M87.93,275.48a1.7,1.7,0,1,1,3.39,0,1.7,1.7,0,1,1-3.39,0Z"/><path class="cls-2" d="M104.19,254.29l.47.35-.12,5v9.89l.06,5.92,4.54.47v.91h-13v-.91l4.79-.47.06-5.92v-13l-4.26.56v-1Z"/><path class="cls-59" d="M151.82,298.56a22.36,22.36,0,0,0,3.52-21,18.39,18.39,0,0,0-4.08-6.94c.05.23,0,.26.05.28a21,21,0,0,1,4.58,11.53,22,22,0,0,1-1.34,9.84,19.36,19.36,0,0,1-11.14,11.66,20.2,20.2,0,0,1-7.64,1.54c-.45,0-.84.11-.78.69s.46.56.87.5c1.27-.16,2.56-.26,3.82-.52A19.67,19.67,0,0,0,151.82,298.56Z"/><path class="cls-60" d="M144.77,296.44a5.3,5.3,0,0,0-.92,6.43,5,5,0,0,0,3.1-3.68,20,20,0,0,0,0-3.46,10.2,10.2,0,0,0-.24-1.34C146,295.18,145.34,295.79,144.77,296.44Z"/><path class="cls-61" d="M145.65,305a5.18,5.18,0,0,0,4.35,1.87,12.47,12.47,0,0,0,4.48-1.58c-.8-.44-1.5-.86-2.22-1.21C149.65,302.78,147.76,303,145.65,305Z"/><path class="cls-62" d="M149.42,289.4c-.35,1.1-.75,2.13-1,3.2a4.75,4.75,0,0,0,1.78,5.06C152.26,295.5,151.91,291.39,149.42,289.4Z"/><path class="cls-63" d="M152.62,299.26c2.86,1.55,5.37.46,7.77-2.55C157,295.82,154,296.12,152.62,299.26Z"/><path class="cls-64" d="M156.4,291.55c2.84.85,5.08-1.09,6.41-4.36C159.28,287.4,157,288.36,156.4,291.55Z"/><path class="cls-65" d="M154.05,291.07c1.11-2.56-.56-6-3.37-6.94C150.32,287.56,151,290,154.05,291.07Z"/><path class="cls-66" d="M157.35,283.79c2.66.09,5.17-2.87,4.93-5.78C158.71,279.1,157.06,281,157.35,283.79Z"/><path class="cls-67" d="M150,278.54c.52,3.54,2.13,5.52,5,5.61C155.44,281.46,153.67,279.46,150,278.54Z"/><path class="cls-68" d="M157.9,269.06c-2.62,2.35-3.64,4.76-2,7.21C158.28,274.9,158.7,273.41,157.9,269.06Z"/><path class="cls-69" d="M147.56,272.92c1.46,3.23,3.52,4.79,6.14,4C153.32,274.3,151.15,272.91,147.56,272.92Z"/><path class="cls-70" d="M147.35,267c-.67-2.7-3.18-3.45-5.94-3.12C142.94,266.74,145.11,267.88,147.35,267Z"/><path class="cls-71" d="M143.34,269.43c2.31,2.2,4.63,2.6,6.53,1.16C148.75,268.72,146.79,268.11,143.34,269.43Z"/><path class="cls-72" d="M151.21,269.24c1.77-1.49,1.81-3.92.08-6.63C149.5,265.32,149.48,267.75,151.21,269.24Z"/><path class="cls-73" d="M32.68,305.49c-1.06-.09-2.13-.14-3.18-.31a18.83,18.83,0,0,1-12.56-7.3,21.92,21.92,0,0,1-4.24-17.25,21.6,21.6,0,0,1,4.48-10.11c-.11.1-.23.2-.33.31a20.27,20.27,0,0,0-5,12.38,21.88,21.88,0,0,0,.81,7.67,20.74,20.74,0,0,0,10,13,22.34,22.34,0,0,0,9.94,2.75c.38,0,.68-.06.7-.53S33.07,305.52,32.68,305.49Z"/><path class="cls-74" d="M18.38,303.3a11.5,11.5,0,0,0-4.44,1.88l-.06.24a29.06,29.06,0,0,0,3.87,1.34,4.8,4.8,0,0,0,4.9-1.86A5.26,5.26,0,0,0,18.38,303.3Z"/><path class="cls-75" d="M21.77,294.54l-.3.12c-.07,1.22-.18,2.44-.18,3.66a4.85,4.85,0,0,0,3.21,4.48,4.87,4.87,0,0,0-.1-5.17A38.65,38.65,0,0,0,21.77,294.54Z"/><path class="cls-76" d="M12.51,296.43a11,11,0,0,0-4.64.19c2.28,2.92,4.82,4.31,7.91,2.65A4.87,4.87,0,0,0,12.51,296.43Z"/><path class="cls-77" d="M18.74,289.47c-2.37,3.14-2.77,5.76-.62,8.19C20.76,295.56,20.55,292.61,18.74,289.47Z"/><path class="cls-78" d="M12,291.54c-.53-3.44-3.55-4.28-6.43-4.34C6.85,290.56,9.21,292.46,12,291.54Z"/><path class="cls-79" d="M17.67,284.09c-3,1.33-4.69,4.9-3.33,7C17.11,290,18,288.25,17.67,284.09Z"/><path class="cls-80" d="M10.94,283.78C11.42,280.94,9.38,279,6,278,6.43,281.35,7.93,283.81,10.94,283.78Z"/><path class="cls-81" d="M18.38,278.51c-3.62.88-5.6,3-5.07,5.68C16.82,284,17.74,281.4,18.38,278.51Z"/><path class="cls-82" d="M12.48,276.29c1.57-2.56.51-5-2-7.17C9.54,272.18,9.67,274.76,12.48,276.29Z"/><path class="cls-83" d="M14.58,276.94c2.62.73,4.8-.71,6.19-4.06C17.05,273,15.3,274.11,14.58,276.94Z"/><path class="cls-84" d="M26.93,263.84c-3-.16-5.15.43-6,3.2C23.48,267.87,25.39,266.67,26.93,263.84Z"/><path class="cls-85" d="M24.93,269.45c-2.85-1.18-4.95-1.08-6.51,1.13C20.49,272.09,22.65,271.62,24.93,269.45Z"/><path class="cls-86" d="M17.13,269.23c1.71-1.52,1.71-3.85-.06-6.59C15.32,265.16,15.35,267.78,17.13,269.23Z"/><path class="cls-2" d="M39.54,300.53l.77-1s.88.69,1.4,1.18c0,.17-.19.25-.41.25h-6l-.11-.44Zm-.84-2,.76-1s.88.69,1.41,1.18c0,.18-.19.26-.42.26H36.07l-.13-.45Zm.19,4.05.72-.93s.83.66,1.32,1.14c0,.17-.19.25-.41.25H36.07l-.13-.46Zm0,2.06.72-.93s.83.66,1.32,1.13c0,.18-.19.26-.41.26H36.07l-.13-.46ZM36,306.14l1.43.61h1.72l.67-.75,1.47,1.13a1.12,1.12,0,0,1-.62.29v3.74a1.85,1.85,0,0,1-1.15.42h-.22v-.91H37.31v1.07c0,.13-.59.44-1.16.44H36v-6Zm1.35,1.07v3h1.95v-3Zm5.15-.4c.56,1.69.24,2.93-.29,3.49a.82.82,0,0,1-1.29-.05.85.85,0,0,1,.39-1.08,3.07,3.07,0,0,0,.94-2.36Zm1.48-6.52a12.42,12.42,0,0,0,.21-1.42H41.9l-.14-.45H48l.75-.76,1.44,1.16a1.06,1.06,0,0,1-.62.27c-.1,3.43-.32,4.91-1,5.47a2.41,2.41,0,0,1-1.64.53,1.42,1.42,0,0,0-.22-1,2.21,2.21,0,0,0-1.14-.48l0-.23c.46,0,1.24.08,1.53.08s.37,0,.46-.14c.31-.29.47-1.71.55-4.48H45.76a15.06,15.06,0,0,1-.4,1.87c1.87.87,1.63,2.37.45,2.15a6.22,6.22,0,0,0-.94-.88,6.7,6.7,0,0,1-3.56,3.27l-.14-.22a7.05,7.05,0,0,0,2.55-3.81,11.93,11.93,0,0,0-1.86-.93l.11-.19A11.12,11.12,0,0,1,43.94,300.29Zm1.26,6.17c0,.21-.17.35-.47.4v3.44c0,.19,0,.26.43.26h.94c.41,0,.75,0,.89,0a.31.31,0,0,0,.29-.14,8.22,8.22,0,0,0,.46-1.52h.19l0,1.55c.38.16.46.3.46.57,0,.55-.52.85-2.45.85h-1.2c-1.2,0-1.39-.29-1.39-1.2v-4.37Zm.74.72A5.58,5.58,0,0,0,43.56,305l.11-.14C47.8,304.8,47.42,307.75,45.94,307.18Zm2.85,3.11a7.76,7.76,0,0,0-1.11-3.59l.17-.1C51.58,308.6,50.08,311.56,48.79,310.29Z"/><path class="cls-2" d="M53.48,298.82a4.26,4.26,0,0,1,.23.94h4.14v-2.42l2.16.17c0,.23-.16.39-.58.45v1.8h4.26l.86-.86,1.5,1.42c-.13.13-.3.16-.62.19a14.74,14.74,0,0,1-2,1.63c.27.21.59.46.83.67,0,.17-.21.25-.43.25H59.4v3.05h2.49l.86-1.12s1,.78,1.61,1.33c0,.17-.21.25-.43.25H59.4v3.65a21.25,21.25,0,0,0,2.65.13c.92,0,3,0,4.08,0v.21a1.23,1.23,0,0,0-.85,1.3H62c-3.68,0-5.72-.68-6.93-3.73a8.57,8.57,0,0,1-3.72,4.07l-.13-.16c2.11-1.88,2.92-4.85,3.14-7.29l2.14.4c-.06.22-.24.35-.61.37a11.71,11.71,0,0,1-.65,2.18,4.46,4.46,0,0,0,2.7,2.23v-6.84H53.34l-.13-.46h8.57l.89-1.05.53.38a17.3,17.3,0,0,0,.55-1.72h-10a2.51,2.51,0,0,1-.93,2.25.93.93,0,0,1-1.4-.26.9.9,0,0,1,.56-1.11,2.61,2.61,0,0,0,1.26-2.27Z"/><path class="cls-2" d="M71.7,300.83c0,.18-.24.32-.58.3a6.59,6.59,0,0,1-.41.72h1.18l.85-.76c.08-.31.2-.78.28-1.17H69c0,2.43-2.51,1.79-1.54.53a2.54,2.54,0,0,0,1.13-1.88h.22a4.76,4.76,0,0,1,.16.9h1.36v-2l2,.19c0,.21-.17.37-.57.43v1.38h1.18l.75-.77L75,300a.93.93,0,0,1-.59.16,10.06,10.06,0,0,1-1.53,1.05l0,0,1.2,1.06c-.12.14-.28.19-.64.22a9.85,9.85,0,0,1-1.09,1.71c2.44,1.13,2.23,2.61,1.14,2.34A12.12,12.12,0,0,0,71.64,305a11.85,11.85,0,0,1-2.08,1.66l.62.26H72l.63-.69,1.38,1a1,1,0,0,1-.51.25v3.53a2,2,0,0,1-1.15.38h-.23v-.68H70v.84c0,.1-.4.41-1,.41h-.22v-4.84a12.63,12.63,0,0,1-1.49.65l-.12-.22a11.45,11.45,0,0,0,3.58-3.18,15,15,0,0,0-1.45-.79,7.24,7.24,0,0,1-1.67,1.27l-.19-.17A11.06,11.06,0,0,0,70,300.27Zm.18,1.48H70.41a11,11,0,0,1-.88,1.06,14.28,14.28,0,0,1,1.61.38A9.81,9.81,0,0,0,71.88,302.31ZM70,307.4v2.92h2.13V307.4Zm8.31,2.6c-.08.14-.26.18-.52.1a12.69,12.69,0,0,1-4.56,2.1l-.14-.21a11.51,11.51,0,0,0,3.48-3ZM75,300.34l1.48.62h.62c.06-.5.14-1.21.19-1.82H74.43l-.13-.46h5.23l.92-1.17s1,.82,1.65,1.38c0,.17-.2.25-.43.25H78.94A15.8,15.8,0,0,1,77.63,301h1.93l.7-.73,1.45,1.11a1,1,0,0,1-.57.27v7a2,2,0,0,1-1.2.43H79.7v-.58H76.42v.39c0,.14-.56.47-1.17.47H75v-9Zm4.68,1.08H76.42v1.85H79.7Zm-3.28,2.31v1.9H79.7v-1.9Zm0,2.35V308H79.7v-1.91ZM80.84,312a8.66,8.66,0,0,0-2.38-2.8l.14-.13C83.1,309.84,82.35,312.81,80.84,312Z"/><path class="cls-2" d="M84.38,303.53A4.49,4.49,0,0,0,83,301.42l.12-.11C86.88,301.79,85.74,304.47,84.38,303.53Zm.05,3.63c.3-.56.3-.56,2.8-6.57l.28.07c-.55,1.83-1.57,5.26-1.76,6a7,7,0,0,0-.19,1.42c0,.81.59,1.45.54,2.84A1.13,1.13,0,0,1,85,312.18c-.32,0-.62-.25-.7-.79.27-1.66.19-3.1-.16-3.34a1.68,1.68,0,0,0-.8-.23v-.32H84C84.21,307.5,84.27,307.48,84.43,307.16Zm1.1-7.29a6.17,6.17,0,0,0-1.61-2.24l.14-.12C88,297.94,87,300.74,85.53,299.87Zm1.93,3.83,1.42.62H91.6v-1.58H87.28l-.12-.46h2.66v-2.09H87.46l-.13-.44h2.49v-2.27l2,.18c0,.22-.18.38-.59.44v1.65h2.13v-2.27l2,.18c0,.22-.18.38-.59.44v1.65h.75l.81-1.09s.93.75,1.48,1.28c0,.17-.2.25-.43.25H94.81v2.09h.84l.85-1.11s1,.76,1.55,1.32c0,.17-.21.25-.43.25H93v1.58h2.79l.67-.78,1.56,1.17a1.23,1.23,0,0,1-.72.35v5.39c0,.95-.2,1.56-1.91,1.72a1.54,1.54,0,0,0-.37-1,2.42,2.42,0,0,0-1.32-.5v-.22s1.59.09,1.93.09.33-.09.33-.32v-5.46H92.93v3.85H94v-3l1.37.14c0,.15-.11.26-.36.31v3.42c0,.11-.45.34-.8.34H94v-.8H90.62v.81c0,.12-.44.32-.75.32h-.21v-4.54l1.31.14c0,.15-.12.26-.35.31v2.51h1.1v-3.85H88.78v6.92c0,.14-.56.46-1.11.46h-.21V303.7Zm3.78-1.42h2.13v-2.09H91.24Z"/><path class="cls-2" d="M104.27,305.3c0,.22-.24.36-.61.38a12.77,12.77,0,0,1-.49,1.86,4.4,4.4,0,0,0,2.61,2.33v-6.82h-2.67v.65c0,.14-.66.48-1.28.48h-.24v-6.31l1.63.67h6.57l.75-.83,1.59,1.22a1,1,0,0,1-.65.32v4.29a2.1,2.1,0,0,1-1.28.45H110v-.94h-2.64v3.15h2.81l1-1.19s1.1.83,1.75,1.4c0,.18-.21.26-.44.26h-5.08v3.55a20,20,0,0,0,2.72.15c.89,0,3,0,4,0v.21a1.17,1.17,0,0,0-.8,1.25H110c-3.72,0-5.73-.72-7-3.83a8,8,0,0,1-3.68,4.22l-.14-.17c2-1.82,2.77-4.7,3-7.08ZM103.11,299v3.62H110V299Z"/><path class="cls-2" d="M116.57,298.71l1.74.73h3.82v-2.07l2.08.18c0,.22-.18.38-.58.43v1.46h3.65l.9-1.18s1,.82,1.62,1.39c-.05.16-.2.24-.43.24H118.05v2.22h2.54v-1.73l2,.2c0,.19-.16.33-.54.39v1.14h2.62v-1.73l2,.2c0,.19-.15.33-.53.39v1.14h1.35l.83-1.09s.93.75,1.49,1.28c0,.17-.19.25-.43.25h-3.24v2.83c0,.14-.67.44-1.23.44h-.25V305H122v.5c0,.14-.64.43-1.18.43h-.25v-3.37h-2.54v.94c0,2.7-.14,6.25-2.81,8.65L115,312c1.43-2.5,1.53-5.63,1.53-8.48v-4.8Zm8.93,7.81,1-.73,1.42,1.24c-.12.15-.3.2-.71.21a9.46,9.46,0,0,1-2.51,2.41,19.89,19.89,0,0,0,5.34.92v.18a1.7,1.7,0,0,0-1.21,1.43,14.32,14.32,0,0,1-5.39-1.78,19.44,19.44,0,0,1-6.49,1.77l-.08-.26a18.8,18.8,0,0,0,5.7-2.15,7.54,7.54,0,0,1-2.06-2.77h-1.84l-.14-.47Zm-.07.47h-4.59a6.47,6.47,0,0,0,2.57,2.15A8,8,0,0,0,125.43,307Zm-.79-2.46v-2H122v2Z"/><path class="cls-1" d="M15.47,10.31c-.1.17-.26.26-.66.17a27.1,27.1,0,0,1-5.05,3.81c1.09,2.78,3.06,4.65,6.54,5.88l0,.19a1.88,1.88,0,0,0-1.61,1.56c-4.31-2-5.75-5.57-6.27-10.94-.29,4.83-1.56,8.53-8.22,11L0,21.64C7.09,18,6.68,13.06,6.7,6l2.44.24c0,.26-.21.43-.63.5V7a24,24,0,0,0,1.15,7,28.47,28.47,0,0,0,3.66-5ZM3.65,9c1.11,2.94.33,4.81-.59,5.62a1.16,1.16,0,0,1-1.81.05,1,1,0,0,1,.41-1.38A5,5,0,0,0,3.41,9Z"/><path class="cls-1" d="M31.94,14.53c-.11.17-.26.26-.66.17a25,25,0,0,1-3.93,2.6c1.14,1.38,3,2.32,6.14,2.89v.21A1.65,1.65,0,0,0,31.94,22c-4.36-1.22-5.73-3.66-6.22-7.19-.29,3.06-1.43,5.57-8.2,7.18l-.15-.26C24,19.41,24,16.38,24,12.37l2.39.22c-.06.25-.21.4-.59.45a8.13,8.13,0,0,0,1.31,4,22.8,22.8,0,0,0,2.79-3.79ZM22.57,6.68c-.08.17-.26.25-.55.19-.57.46-2.14,1.59-3.08,2.23,5,1.47,3.34,4.31,1.85,3.35a6.73,6.73,0,0,0-2.35-3.28,32.59,32.59,0,0,0,2-3.31Zm-1.14,6.85c.57,2.14-.34,3.48-1.24,3.91a1,1,0,0,1-1.51-.33A1,1,0,0,1,19.32,16a2.93,2.93,0,0,0,1.85-2.46Zm5.85-6.8a.45.45,0,0,1-.55.17c-.59.45-2.23,1.52-3.19,2.13,5.14,1.35,3.52,4.2,2,3.27A6.88,6.88,0,0,0,23,9.08,31.47,31.47,0,0,0,25.2,5.86Zm4.92,0c-.09.16-.26.24-.58.17-.58.45-2.35,1.54-3.37,2.15,5.36,1.38,3.75,4.29,2.2,3.36a7.4,7.4,0,0,0-2.72-3.29,40.32,40.32,0,0,0,2.41-3.29Z"/><path class="cls-1" d="M38.28,11.12V21.44a1.9,1.9,0,0,1-1.33.5h-.3V12.66a13.47,13.47,0,0,1-2,2.2l-.22-.16A28.82,28.82,0,0,0,38,5.86l2.39.76c-.07.21-.3.35-.7.35a20.93,20.93,0,0,1-1.61,3.55l.77.27C38.75,11,38.59,11.05,38.28,11.12Zm12.44,3.5c0,.19-.22.27-.48.27H45.86A11.15,11.15,0,0,0,51,19.15l0,.19a1.78,1.78,0,0,0-1.33,1.42,11.27,11.27,0,0,1-3.93-5.43v6.14a1.61,1.61,0,0,1-1.35.5H44V16.88A13.68,13.68,0,0,1,38.94,21l-.18-.22a14,14,0,0,0,4.42-5.84H39l-.14-.5H44V12H42.29v.59c0,.15-.71.53-1.4.53h-.22V6.31L42.4,7h4.88l.83-.9,1.76,1.33a1.23,1.23,0,0,1-.76.37v4.5a2.74,2.74,0,0,1-1.37.41h-.27V12h-1.8v2.42H47.9l1-1.28S50,14,50.72,14.62Zm-8.43-7.1v4h5.18v-4Z"/><path class="cls-1" d="M52.67,6.29l1.8.73h1.47l.9-.9,1.7,1.61c-.14.16-.37.21-.78.23a40,40,0,0,1-2.51,4,5.28,5.28,0,0,1,2.46,4.24c0,1.64-.61,2.57-2.41,2.63a3,3,0,0,0-.21-1.28,1.53,1.53,0,0,0-.81-.38V17h1.07a.61.61,0,0,0,.4-.1c.26-.14.42-.49.42-1.09A5.74,5.74,0,0,0,54.81,12c.39-1.13.9-3.17,1.22-4.53H54.24V21.44c0,.13-.5.53-1.28.53h-.29V6.29ZM63.52,10.6l.78-1s.9.73,1.43,1.27c0,.19-.2.27-.45.27h-2v1.67h2l.71-.83L67.46,13a.93.93,0,0,1-.62.3V16.9a1.87,1.87,0,0,1-1.26.35h-.25V16.4h-2c.52,1.59,1.94,3,5,3.81l0,.2a1.47,1.47,0,0,0-1.33,1.51,6.74,6.74,0,0,1-3.86-5.14c-.52,2.06-2,3.95-6.14,5.16l-.14-.23c3.25-1.49,4.44-3.29,4.84-5.31H59.8v.71c0,.12-.45.4-1.2.4h-.24v-5.4l1.63.66h1.8V11.1h-2.1l-.13-.5h4Zm-4,0a14,14,0,0,1-2.62,1.49l-.12-.21a12.79,12.79,0,0,0,4.64-6l2.42.53c0,.19-.21.28-.67.31,1.05,1.56,3.23,2.53,5.14,3.08l0,.23a1.85,1.85,0,0,0-1.2,1.49A8.83,8.83,0,0,1,63,6.93,11.37,11.37,0,0,1,59.56,10.6Zm2.23,3.84V13.25h-2V15.9h1.9A9.87,9.87,0,0,0,61.79,14.44Zm3.54,1.46V13.25h-2v1.18a10.45,10.45,0,0,1-.09,1.47Z"/><path class="cls-1" d="M71.44,7.25A3.36,3.36,0,0,1,74,9.89c0,.44-.26.77-.68,1.66A11,11,0,0,0,72,16.16a3.39,3.39,0,0,0,.24,1.45c.1.23.27.26.43,0C73.1,17,74,15,74.46,14.06l.4.19c-.33.92-1,2.72-1.17,3.34a6.26,6.26,0,0,0-.25,1.28c0,.58.3,1.15.3,1.63s-.26.78-.71.78a1.34,1.34,0,0,1-1-.73A7.6,7.6,0,0,1,71,16.35a19.06,19.06,0,0,1,.8-4.74,8.78,8.78,0,0,0,.41-2.18,3.15,3.15,0,0,0-.93-2Zm7.44.5a3.31,3.31,0,0,1,1.43-.52c1,0,2,.54,2,1s-.17.51-.27,1.21a9,9,0,0,0-.16,1.26l.43-.16c1-.34,1.39-.58,1.53-.58.5,0,1.14.26,1.14.71s-.26.6-1,.88a16.81,16.81,0,0,1-2.2.57v.38c0,1.63.14,3.06.24,4.2a6.5,6.5,0,0,1,2.88,1.6,1.55,1.55,0,0,1,.57,1.07c0,.48-.24.76-.64.76s-.57-.24-1-.69a8.26,8.26,0,0,0-1.64-1.23v.28c0,1.5-1,2.4-3.19,2.4-1.56,0-2.87-.78-2.87-2.16,0-1.61,1.64-2.32,3.6-2.32.34,0,.67,0,1,.05,0-1.14-.13-2.68-.15-4v-.15a15.81,15.81,0,0,1-1.78.12c-1.09,0-1.91-.19-2.79-1.85l.23-.21a4,4,0,0,0,2.37.83,11.76,11.76,0,0,0,2-.17v-2c0-.59-.11-.66-.4-.77a4.91,4.91,0,0,0-1.23-.22Zm.05,9.65c-1,0-2.06.44-2.06,1.2s.76,1,1.68,1c1.8,0,2.2-.64,2.2-1.92v-.05A6.57,6.57,0,0,0,78.93,17.4Z"/><path class="cls-1" d="M92.82,6.59a.64.64,0,0,1-.7.34,22.1,22.1,0,0,1-1.71,3.67l.78.28c0,.17-.21.28-.52.33V21.44a1.88,1.88,0,0,1-1.31.5h-.3v-9.3a14,14,0,0,1-2,2.2l-.24-.15a28.42,28.42,0,0,0,3.67-8.83Zm5.83-.47c0,.24-.18.42-.61.49V8.42h2.18l1-1.33s1.14.92,1.87,1.54c0,.19-.24.28-.48.28H98v1.85h2.23l.82-.87,1.69,1.28a1.2,1.2,0,0,1-.71.37V15.4a2.3,2.3,0,0,1-1.35.46h-.27V15H98a7.08,7.08,0,0,1-1.23,3.72,16.11,16.11,0,0,0,6.52,1.41v.19A2,2,0,0,0,102,21.92a11.77,11.77,0,0,1-6-2.3,11,11,0,0,1-5,2.32l-.12-.25a8.84,8.84,0,0,0,4.29-2.87,8.61,8.61,0,0,1-1.63-2.7l.23-.12a6.07,6.07,0,0,0,1.9,2A7.3,7.3,0,0,0,96.4,15H93.94v.54c0,.14-.69.5-1.35.5h-.22V10.07l1.67.69h2.38V8.91H92l-.14-.49h4.52V5.91Zm-2.23,8.34v-3.2H93.94v3.2Zm4-3.2H98v3.2h2.41Z"/><path class="cls-1" d="M107.12,13.32a2.16,2.16,0,0,1-1.64-1.44,2.22,2.22,0,0,1-.06-.81l.26-.1c.3.46.54.72.9.72a12.79,12.79,0,0,0,2.88-1.07c.12-1.12.22-2.06.22-2.53a.54.54,0,0,0-.41-.62,6.63,6.63,0,0,0-1-.33V6.83a3.41,3.41,0,0,1,1.25-.28c.88,0,1.9.89,1.9,1.47A7.46,7.46,0,0,1,111,9.24a7.49,7.49,0,0,0-.28,1l.09,0c.34.18.72.54.72.77s-.17.39-.41.65-.57.61-.87,1v.05a9.73,9.73,0,0,1,5-1.64,4.27,4.27,0,0,1,4.5,4.08c0,2.5-1.73,4.81-6.85,5.85l-.16-.34c4.41-1.73,5.24-4.09,5.24-6a2.85,2.85,0,0,0-3-3,8,8,0,0,0-4.81,2,34.46,34.46,0,0,0,.17,4.61c.05.58.12.91.12,1.36,0,.83-.4,1.72-1,1.72s-.69-.26-.78-.73a6.1,6.1,0,0,0-.34-1.28,9.27,9.27,0,0,0-1-1.72l-.78,1.13c-.26.4-.46.74-.83.74s-.64-.29-.64-.81a1.44,1.44,0,0,1,.47-1.09A43,43,0,0,0,109.23,13l.1-1.13c-.51.3-1,.59-1.36.8S107.47,13.32,107.12,13.32Zm.5,4,1.13,1.22c.19.19.31.15.33-.16,0-.68,0-2,0-3.29Z"/><path class="cls-1" d="M125.78,6.92a3.48,3.48,0,0,1,1.25-.3,2.59,2.59,0,0,1,1.45.4c.35.23.19.68-.36,2.48,1.42-.47,1.82-.83,2.09-.83a.73.73,0,0,1,.78.69c0,.34-.31.57-.55.74a11,11,0,0,1-2.8.94,31.7,31.7,0,0,1-3.07,6.9c-.36.55-.64.92-1,.92s-.75-.47-.75-.95a1.58,1.58,0,0,1,.38-1,18.56,18.56,0,0,0,3.17-5.66,9.74,9.74,0,0,1-1.28.09c-1.38,0-2-.45-2.51-2.08l.26-.19a3.27,3.27,0,0,0,2.37,1,8.21,8.21,0,0,0,1.56-.19A9.67,9.67,0,0,0,127,8.25a.7.7,0,0,0-.4-.73,3.55,3.55,0,0,0-.78-.34Zm6.32,3a5,5,0,0,1,2.56.05c1.13.37,1.78,1.11,1.78,2,0,.5-.19.83-.64.83s-1-.43-1.81-.4a2.07,2.07,0,0,0-1.44.62,2.28,2.28,0,0,0-.26,1.61c.05.5.22,1.46.38,2.43a8.36,8.36,0,0,1,2.39,1c1,.57,1.57,1.17,1.57,1.81s-.29.78-.64.78-.67-.4-1.21-.88a7.12,7.12,0,0,0-1.95-1.33l0,.67c0,1.49-1.14,2.32-3,2.32s-2.92-.93-2.92-2.11c0-1.35,1.38-2.51,3.8-2.51l.65,0c0-.63-.09-1.27-.09-1.82a3.18,3.18,0,0,1,.76-2.34,6.06,6.06,0,0,1,2-1.29c.21-.14.14-.33-.09-.52a3.38,3.38,0,0,0-1.85-.56Zm-2.22,7.87c-1.48,0-2.21.66-2.21,1.23s.52,1,1.75,1c1.43,0,2-.67,2-1.68v-.43A7.26,7.26,0,0,0,129.88,17.78Z"/><path class="cls-1" d="M140.05,8.77l.12-.23a4.32,4.32,0,0,1,1.41.25c.76.34,1.74,1.22,1.74,2s-.78,1.83-.78,3.84a3.27,3.27,0,0,0,1.53,3.09.45.45,0,0,0,.64-.13,28.35,28.35,0,0,0,1.73-3.12l.39.17a26,26,0,0,0-.89,3.31c-.09.92.19.93.19,1.4,0,.66-.66,1-1.6.62a5.5,5.5,0,0,1-3.2-5.12c-.07-1.31.07-2.7.07-3.72A2.59,2.59,0,0,0,140.05,8.77Zm9.55,1.4a5.46,5.46,0,0,1,3.6,1.68,5.6,5.6,0,0,1,1.53,3.82c0,.92-.32,1.39-1,1.39a.76.76,0,0,1-.74-.64,14.31,14.31,0,0,0-.8-3.29,5,5,0,0,0-2.72-2.61Z"/><path class="cls-1" d="M159.38,7c1,0,2,.71,2,1.22,0,.32-.12.62-.1,1a8.86,8.86,0,0,0,.33,2.37,2.32,2.32,0,0,0,.88,1.18c1.25-.76,2.79-1.58,3.29-1.87a.37.37,0,0,0,.19-.5,2,2,0,0,0-.78-.75l.12-.22a3.67,3.67,0,0,1,1.45.28A2.31,2.31,0,0,1,168,11.33c0,.38-.36.55-1.14.83a26.62,26.62,0,0,0-4.52,2c-1.47.87-3,2.19-3,3.6,0,1,1,1.68,3.34,1.68a21.65,21.65,0,0,0,4.17-.5c.86,0,1.6.19,1.6.9,0,.31-.31.62-.72.78a17,17,0,0,1-4.43.45c-3,0-5-1-5-3s1.89-3.67,3.15-4.6a2.77,2.77,0,0,1-1-1.3,17.25,17.25,0,0,1-.76-3.56.86.86,0,0,0-.52-.73,6.09,6.09,0,0,0-1-.35V7.28A4.16,4.16,0,0,1,159.38,7Z"/><path class="cls-1" d="M173.32,13.94V10.4h-2.2L171,9.89h2.34v-4l2.21.23c-.05.24-.22.41-.64.48V9.89h.31L176,8.7s.93.85,1.47,1.42c-.05.19-.23.28-.47.28h-2.11v3.11l2.35-.69.07.22c-.64.4-1.45.89-2.42,1.44v5.43c0,1.18-.24,1.85-2.08,2a2.07,2.07,0,0,0-.34-1.15,2,2,0,0,0-1.26-.53V20s1.45.1,1.76.1.35-.08.35-.31V15.36l-1.48.78a.63.63,0,0,1-.43.45l-.66-2C171.27,14.48,172.19,14.25,173.32,13.94Zm8.44,5.9c-.12.16-.28.23-.66.14a13.76,13.76,0,0,1-5.52,2l-.14-.24a11.74,11.74,0,0,0,4.42-3.08Zm-4-9.1,1.66.69h5l.78-.83,1.62,1.25a1.09,1.09,0,0,1-.64.31v6.16a2.34,2.34,0,0,1-1.35.45h-.26v-.64h-5.27v.35c0,.15-.66.52-1.32.52h-.24V10.74Zm.45-4.62,1.64.69H184L184.8,6l1.65,1.23a1.12,1.12,0,0,1-.64.31v2.55a2.18,2.18,0,0,1-1.33.46h-.28V9.91h-4.46v.33c0,.14-.7.48-1.34.48h-.22V6.12Zm6.38,7.37V11.94h-5.27v1.55Zm-5.27,2.08h5.27V14h-5.27Zm0,2.06h5.27V16.07h-5.27Zm4.91-8.2V7.32h-4.46V9.43Zm1.63,12.47A15,15,0,0,0,182.45,19l.16-.16C188,19.19,187.63,22.46,185.83,21.9Z"/><path class="cls-1" d="M191.17,19.58a1.17,1.17,0,1,1,1.17,1.13A1.15,1.15,0,0,1,191.17,19.58Zm.66-6.09a40.46,40.46,0,0,1-.56-5.05,1.08,1.08,0,1,1,2.15,0,36.75,36.75,0,0,1-.56,5.05l-.26,3.13h-.52Z"/><path class="cls-1" d="M10.19,50.47c.85.52,1.36,1.15,1.36,1.7s-.26.95-1,.95c-.55,0-1.13-.47-1.88-1.07a20.44,20.44,0,0,0-6.78-3.2l.1-.39A19.7,19.7,0,0,1,10.19,50.47ZM8.33,44c.85.37,1.44.85,1.44,1.6a.83.83,0,0,1-.85.87c-.44,0-.77-.24-1.44-.69a22.62,22.62,0,0,0-5-2.4l.1-.37A15.75,15.75,0,0,1,8.33,44Zm2.13-2c-.57,0-.83-.28-1.52-.81a16.26,16.26,0,0,0-5.56-2.59l.08-.38a18.9,18.9,0,0,1,6.25,1.09c1.19.55,1.56,1.13,1.56,1.84A.85.85,0,0,1,10.46,42Z"/><path class="cls-1" d="M17.54,48a2.39,2.39,0,0,0,1.78,1c.77,0,3.06-.22,5.51-.46.08-1.34.12-3.2.12-4.19a3.07,3.07,0,0,0-.49-1.86c-1.33.18-2.26.38-2.81.38a2,2,0,0,1-1.4-.91,4.56,4.56,0,0,1-.78-1.42l.28-.2a3.34,3.34,0,0,0,2.08.93,30.86,30.86,0,0,0,4.35-.44c2.79-.43,2.69-1,3.18-1,.95,0,2.37.6,2.37,1.15s-.21.75-.87.81-2.78.26-4.84.5c.67.29,1.21.67,1.21,1.08a13.5,13.5,0,0,1-.38,1.33c-.14.85-.28,2.35-.36,3.7,1.39-.14,2.71-.24,3.74-.3a9.93,9.93,0,0,0,1.56-.32c1,0,2.73.95,2.73,1.7a.72.72,0,0,1-.77.77A42.11,42.11,0,0,0,29,49.62a35.43,35.43,0,0,0-7.58.79,10.33,10.33,0,0,1-1.94.58c-.69,0-1.74-1.05-2-1.61a3.34,3.34,0,0,1-.24-1.22Z"/><path class="cls-1" d="M41.73,41.28A3.64,3.64,0,0,1,43.1,41c.83,0,2.45.91,2.45,1.62,0,.48-.42.75-.51,1.25a12.88,12.88,0,0,1-6.59,8.7l-.3-.36c3.07-2.61,5-6.78,5-9.43,0-.63-.85-.95-1.45-1.15Zm5.56-2.55c1,0,2.43.89,2.43,1.46s-.45.53-.53,1.23c-.14,1-.28,5.73-.26,7.17,0,.28.14.36.38.26a25.08,25.08,0,0,0,7.27-5l.36.27a23.79,23.79,0,0,1-7.06,6.65c-.45.3-.77.91-1.26.91S47,50.41,47,49.92s.24-.61.32-1.39c.08-1,.18-6.21.06-8.1,0-.54-.55-.81-1.52-1l0-.36A3,3,0,0,1,47.29,38.73Z"/><path class="cls-1" d="M61.22,44.6a2.28,2.28,0,0,0,1.47.73c1,0,3.28-.36,5.12-.59v-1.9a2.14,2.14,0,0,0-.49-1.42h0c-.7.07-1.47.33-2.06.33a2.35,2.35,0,0,1-1.66-1.24,4.86,4.86,0,0,1-.36-1l.28-.12a2.59,2.59,0,0,0,1.6.77,41.65,41.65,0,0,0,5.32-.65c1.4-.3,2.08-.72,2.35-.72,1.21,0,2.1.54,2.1,1s-.22.66-1,.77l-5.26.62c.77.29,1.29.71,1.29,1s-.26.57-.32,1-.1.8-.14,1.31L73.49,44c1.1-.18,1.5-.38,1.83-.38.72,0,2.24.53,2.24,1.27a.68.68,0,0,1-.75.75c-.73,0-2-.22-3.19-.22a38.31,38.31,0,0,0-4.29.38c-.06,1.32-.1,2.72-.08,3.5,0,1,.34,1.32,1.94,1.32a13.67,13.67,0,0,0,3.36-.37c1.15,0,1.8.57,1.8,1s-.35.72-1,.85a20.64,20.64,0,0,1-3.91.32c-3,0-3.68-.79-3.72-2.57,0-.81,0-2.37,0-3.86a24.6,24.6,0,0,0-3.1.68c-1,.31-1.33.61-1.86.61a2.47,2.47,0,0,1-1.74-1.5A2.61,2.61,0,0,1,61,44.7Z"/><path class="cls-1" d="M91.59,41.77a10.15,10.15,0,0,1-.65,3.36c-.85,2.45-3.11,6.15-5.34,6.15-1.48,0-2.91-2.27-2.91-4.8a7.76,7.76,0,0,1,2.79-5.74,8.74,8.74,0,0,1,5.91-2.09c4.33,0,7.54,2.94,7.54,7.06,0,3.54-2.39,6.8-8.94,7.14l-.08-.42c4.92-1,7-3.68,7-7.18a5.52,5.52,0,0,0-5.69-5.87c-.24,0-.5,0-.76,0A4,4,0,0,1,91.59,41.77Zm-5.54-.16A6.28,6.28,0,0,0,84.18,46c0,1.72.75,3.17,1.56,3.17,1.2,0,3-2.89,3.68-4.47a9.2,9.2,0,0,0,.81-3.34,3.27,3.27,0,0,0-.58-1.76A7.43,7.43,0,0,0,86.05,41.61Z"/><path class="cls-1" d="M120.89,41c-.12.2-.3.3-.75.2a31.51,31.51,0,0,1-5.77,4.35c1.24,3.18,3.5,5.32,7.47,6.72l0,.22A2.16,2.16,0,0,0,120,54.25c-4.92-2.31-6.56-6.37-7.16-12.5-.33,5.52-1.78,9.75-9.39,12.52l-.2-.34c8.11-4.11,7.64-9.81,7.66-17.91l2.78.27c0,.3-.23.5-.71.58v.31a27.76,27.76,0,0,0,1.31,8,32.85,32.85,0,0,0,4.19-5.73Zm-13.51-1.52c1.27,3.36.38,5.49-.67,6.42a1.33,1.33,0,0,1-2.07.06,1.18,1.18,0,0,1,.47-1.58,5.62,5.62,0,0,0,2-4.88Z"/><path class="cls-1" d="M141.69,45.81c-.12.19-.3.29-.75.19a29.6,29.6,0,0,1-4.49,3c1.3,1.58,3.48,2.65,7,3.3l0,.24a1.91,1.91,0,0,0-1.76,1.78c-5-1.41-6.55-4.19-7.1-8.23-.34,3.5-1.64,6.37-9.38,8.21L125,54c7.59-2.59,7.55-6,7.61-10.64l2.73.26c-.06.28-.24.46-.67.51a9.34,9.34,0,0,0,1.5,4.55,25.67,25.67,0,0,0,3.18-4.33Zm-10.7-9c-.1.19-.3.29-.63.21-.66.54-2.46,1.82-3.52,2.56,5.71,1.68,3.81,4.92,2.11,3.83a7.64,7.64,0,0,0-2.69-3.76,36.45,36.45,0,0,0,2.32-3.77Zm-1.31,7.83c.66,2.45-.39,4-1.42,4.47a1.19,1.19,0,0,1-1.72-.38,1.1,1.1,0,0,1,.73-1.3,3.36,3.36,0,0,0,2.12-2.81Zm6.69-7.77a.52.52,0,0,1-.63.19c-.68.52-2.56,1.74-3.64,2.44,5.87,1.54,4,4.8,2.27,3.73a7.81,7.81,0,0,0-2.89-3.67A37.24,37.24,0,0,0,134,35.9Zm5.61,0c-.09.17-.29.27-.65.19-.67.52-2.69,1.76-3.85,2.46,6.13,1.58,4.29,4.9,2.51,3.83a8.31,8.31,0,0,0-3.11-3.75,44.43,44.43,0,0,0,2.75-3.76Z"/><path class="cls-1" d="M150.92,41.91V53.7a2.19,2.19,0,0,1-1.53.57h-.33V43.67a16.12,16.12,0,0,1-2.34,2.51l-.25-.18a32.62,32.62,0,0,0,4.09-10.1l2.73.87c-.08.24-.34.39-.79.39a25.14,25.14,0,0,1-1.84,4.06l.87.31C151.45,41.71,151.27,41.83,150.92,41.91Zm14.21,4c-.06.22-.25.32-.55.32h-5a12.79,12.79,0,0,0,5.83,4.87l0,.21a2,2,0,0,0-1.52,1.62,12.93,12.93,0,0,1-4.49-6.21v7a1.84,1.84,0,0,1-1.54.57h-.34V48.49a15.6,15.6,0,0,1-5.81,4.65l-.2-.26a15.85,15.85,0,0,0,5-6.66h-4.74l-.16-.57h5.87V42.88h-2v.67c0,.18-.81.61-1.6.61h-.26V36.41l2,.81h5.58l1-1,2,1.53a1.44,1.44,0,0,1-.88.41v5.14a3,3,0,0,1-1.56.48h-.31v-.87h-2.06v2.77h2.55L163,44.18S164.34,45.17,165.13,45.9Zm-9.63-8.1v4.5h5.92V37.8Z"/><path class="cls-1" d="M169.34,36.39l2,.83h1.69l1-1L176,38c-.16.18-.41.24-.89.26a44.84,44.84,0,0,1-2.86,4.61,6.05,6.05,0,0,1,2.8,4.84c0,1.88-.69,2.95-2.75,3a3.57,3.57,0,0,0-.23-1.46,1.87,1.87,0,0,0-.93-.44v-.26h1.22a.66.66,0,0,0,.46-.12c.29-.15.47-.55.47-1.24A6.54,6.54,0,0,0,171.79,43c.44-1.29,1-3.62,1.38-5.18h-2V53.7a1.65,1.65,0,0,1-1.47.61h-.33V36.39Zm12.4,4.93.89-1.19s1,.83,1.64,1.44c-.06.22-.24.32-.52.32h-2.23v1.9h2.23l.82-.95,1.68,1.26a1.1,1.1,0,0,1-.72.34v4.07a2.13,2.13,0,0,1-1.44.4h-.28v-1h-2.29c.59,1.82,2.21,3.42,5.66,4.35l0,.24a1.68,1.68,0,0,0-1.53,1.72,7.75,7.75,0,0,1-4.41-5.87c-.59,2.35-2.31,4.5-7,5.89L174,54c3.72-1.7,5.09-3.76,5.54-6.07h-2.09v.81c0,.14-.52.46-1.37.46h-.28V43l1.86.75h2.06v-1.9h-2.39l-.16-.57h4.53Zm-4.53,0a16.51,16.51,0,0,1-3,1.7l-.14-.24c2.34-1.6,4.73-4.67,5.3-6.84l2.77.61c0,.22-.23.32-.77.36,1.21,1.78,3.7,2.88,5.87,3.52l0,.25a2.1,2.1,0,0,0-1.36,1.7,10,10,0,0,1-4.75-5.26A13,13,0,0,1,177.21,41.32Zm2.55,4.39V44.34h-2.27v3h2.17A11.3,11.3,0,0,0,179.76,45.71Zm4.05,1.66v-3h-2.29v1.35a11.93,11.93,0,0,1-.1,1.68Z"/><path class="cls-1" d="M192.07,38.47l2.08.87h4.23V35.92l2.69.27c0,.28-.2.48-.73.56v2.59h4.33l1-1.05,2,1.54a1.42,1.42,0,0,1-.81.42V49a2.85,2.85,0,0,1-1.63.53h-.31V48h-4.53v5.58c0,.23-.83.73-1.56.73h-.4V48H194v1.17c0,.19-.81.65-1.62.65h-.3V38.47ZM194,39.91v3.44h4.39V39.91Zm4.39,4H194v3.5h4.39Zm2-.58h4.53V39.91h-4.53Zm4.53,4.08v-3.5h-4.53v3.5Z"/><path class="cls-1" d="M217.2,39.81l1-1.22s1.09.87,1.74,1.48c0,.22-.24.32-.51.32H212l-.14-.58Zm-.95-2.49.95-1.22s1.09.87,1.74,1.48c-.06.22-.24.32-.51.32H213l-.16-.58Zm.24,5,.89-1.16s1,.83,1.64,1.42c-.06.2-.24.3-.52.3H213l-.16-.56Zm0,2.56.89-1.17s1,.83,1.64,1.42c-.06.2-.24.3-.52.3H213l-.16-.55Zm-3.64,1.85,1.78.78h2.13l.84-.93L219.41,48a1.4,1.4,0,0,1-.77.38V53a2.2,2.2,0,0,1-1.42.52h-.28V52.41h-2.41v1.31c0,.17-.73.55-1.44.55h-.24v-7.5Zm1.68,1.33v3.74h2.41V48.1Zm11.79-11.85c0,.28-.2.48-.72.54V38h1.67l1-1.28s1.15.89,1.84,1.54c-.06.22-.23.32-.51.32h-4v1.6H227l1-1.21s1.09.85,1.74,1.47c0,.21-.24.31-.52.31H225.6v1.72h2.06l1-1.3s1.15.91,1.86,1.54c0,.22-.24.32-.52.32H219.49l-.15-.56h4.43V40.7h-3.23l-.16-.57h3.39v-1.6H220l-.14-.58h3.92V36Zm-5.56,7.44,1.9.81h4.25l.83-1,2,1.44a1.57,1.57,0,0,1-.77.38V52c0,1.32-.26,2.09-2.36,2.29a2.78,2.78,0,0,0-.35-1.35,2.21,2.21,0,0,0-1.37-.61V52s1.53.1,1.86.1.38-.1.38-.35V50h-4.55V53.6c0,.19-.75.63-1.5.63h-.3V43.69Zm6.35,3.22V45.07h-4.55v1.84Zm-4.55,2.47h4.55V47.49h-4.55Z"/><path class="cls-1" d="M234.2,42.11c.47.59.81,1,1.34,1,.71,0,2.5-.2,3.68-.32a23.6,23.6,0,0,0-.14-2.85c-.1-.45-.53-.61-1.42-.81l0-.34a3.75,3.75,0,0,1,1.36-.37c.74,0,2.12.63,2.12,1.32,0,.44-.28.46-.34,1.15,0,.36,0,1.05,0,1.72l3.86-.39a29.19,29.19,0,0,0-.1-3.56c-.06-.48-.53-.62-1.44-.78v-.35a3.59,3.59,0,0,1,1.44-.44c1,0,2.32.87,2.32,1.45s-.4.35-.46,1.34l-.06,2.18c2-.2,2.18-.36,2.59-.36,1,0,2.24.48,2.24,1.27,0,.51-.26.63-.72.63s-1.52-.26-3.3-.26l-.81,0c-.08,2.61-.24,5-1.4,6.59a10.47,10.47,0,0,1-5.66,3.66l-.22-.38a10.54,10.54,0,0,0,4.43-3.76c.87-1.4,1.13-3.71,1.15-6-1.32.08-2.75.22-3.86.36v3.87c0,.79-.23,1.15-.79,1.15s-1.08-1-1.08-1.74a25.73,25.73,0,0,0,.35-3.09,17.26,17.26,0,0,0-2.15.44,5.85,5.85,0,0,1-1.39.45c-.65,0-1.44-1-1.64-1.48a3.45,3.45,0,0,1-.14-1.26Z"/><path class="cls-1" d="M256.14,42c.44.57.79,1,1.31.95.91,0,3.93-.36,5.51-.54a21,21,0,0,0-.15-2.78c-.14-.54-.62-.7-1.53-.85l0-.38A4.66,4.66,0,0,1,263,38c.92,0,2.15.74,2.15,1.29s-.38.51-.43,1.07-.1,1.14-.12,1.88c3.85-.52,4-.81,4.51-.81.81,0,2.05.51,2.05,1.22,0,.5-.28.69-.81.69s-1.3-.1-2.33-.1c-.77,0-2.16.12-3.46.24v1.7c0,1.8.14,5.6.14,6.27,0,1-.64,2.06-1.53,2.06-.71,0-.69-.4-1.16-1.11A5.16,5.16,0,0,0,260.39,51l.18-.38a16.08,16.08,0,0,0,2,.48c.22,0,.35,0,.38-.28.07-1,.07-4,.05-5.7l0-1.5c-1.24.16-2.74.38-3.71.61-.77.16-1.07.56-1.59.56A2.49,2.49,0,0,1,256,43.35a4,4,0,0,1-.17-1.26Zm3.7,4c-.06,2.3-1.3,5.36-3,5.36a.89.89,0,0,1-.93-1c0-.71.46-.83,1.29-1.5a6,6,0,0,0,2.15-3Zm6.84,0,.22-.31c2.25.65,4.47,2.13,4.69,4,.08.67-.26,1.17-.89,1.17s-1-.69-1.31-1.35A9.64,9.64,0,0,0,266.68,46Zm3.21-9.71a2.17,2.17,0,1,1-2.18,2.16A2.17,2.17,0,0,1,269.89,36.29Zm0,3.6a1.44,1.44,0,1,0-1.43-1.44A1.42,1.42,0,0,0,269.89,39.89Z"/><path class="cls-1" d="M279.13,45.11c2,0,8.33-.41,9.42-.49,1.32-.1,2.07-.26,2.57-.26,1,0,2,.52,2,1.23,0,.47-.38.73-1.13.73s-1.44-.06-2.77-.06-6.29.3-7.79.47c-1.31.14-1.56.52-2.24.52s-1.78-1.15-2.11-2a3,3,0,0,1-.1-1.34l.35-.12C277.83,44.54,278.17,45.11,279.13,45.11Z"/><path class="cls-1" d="M301.33,37.26c.93,0,2.52.87,2.52,1.45s-.4.65-.5,1.34-.14,2.06-.18,3.2a14.22,14.22,0,0,1,4.93,1.57,2.14,2.14,0,0,1,1.3,1.86.91.91,0,0,1-.93,1c-1,0-1.14-.91-2.53-2.09A12,12,0,0,0,303.17,44c0,1.74,0,4.6,0,6.48,0,1,.06,1.6.06,1.9,0,.81-.21,1.15-.85,1.15-.85,0-1.32-1.09-1.32-2.22,0-.47.18-.89.25-1.72.16-1.46.18-4.37.18-5.69a47.79,47.79,0,0,0-.18-4.89c-.09-.65-.63-.83-1.54-1l0-.35A5,5,0,0,1,301.33,37.26Z"/><path class="cls-1" d="M319.33,37.1a4.06,4.06,0,0,1,1.42-.33,3,3,0,0,1,1.66.45c.4.26.22.77-.42,2.83,1.63-.53,2.08-.95,2.4-.95a.85.85,0,0,1,.89.79c0,.4-.36.65-.64.85a12.06,12.06,0,0,1-3.2,1.07,35.59,35.59,0,0,1-3.5,7.89c-.41.63-.73,1-1.21,1s-.85-.53-.85-1.09a1.76,1.76,0,0,1,.44-1.15,21.4,21.4,0,0,0,3.62-6.46,13,13,0,0,1-1.47.1c-1.58,0-2.29-.52-2.86-2.38l.29-.21a3.77,3.77,0,0,0,2.71,1.12,9.52,9.52,0,0,0,1.78-.21,11,11,0,0,0,.28-1.84.78.78,0,0,0-.46-.83,4.07,4.07,0,0,0-.88-.4Zm7.21,3.43a5.63,5.63,0,0,1,2.93,0,2.55,2.55,0,0,1,2,2.24c0,.57-.22,1-.73,1s-1.09-.5-2.08-.46a2.32,2.32,0,0,0-1.64.72,2.52,2.52,0,0,0-.3,1.83c.06.58.26,1.67.44,2.77a9.77,9.77,0,0,1,2.72,1.17c1.13.65,1.8,1.34,1.8,2.08s-.33.89-.73.89-.77-.46-1.38-1a8.18,8.18,0,0,0-2.24-1.53l0,.78c0,1.7-1.3,2.65-3.46,2.65s-3.34-1.07-3.34-2.42c0-1.54,1.58-2.86,4.35-2.86l.73,0c0-.72-.1-1.45-.1-2.08a3.63,3.63,0,0,1,.87-2.67,7,7,0,0,1,2.3-1.48c.24-.16.16-.38-.1-.6a3.92,3.92,0,0,0-2.12-.63Zm-2.53,9c-1.7,0-2.53.75-2.53,1.41s.59,1.18,2,1.18c1.64,0,2.27-.77,2.27-1.91v-.5A7.88,7.88,0,0,0,324,49.52Z"/><path class="cls-1" d="M340.58,37.18a7,7,0,0,1,3.81.85,2.65,2.65,0,0,1,1.49,2.32c0,.53-.24.83-.8.83s-.92-.18-1.81-.22a15.26,15.26,0,0,0-2.83.3c-.34.06-.44.21-.44.39s.28.77.3,1.27a6.66,6.66,0,0,1-.22,1.66,12.72,12.72,0,0,0-.37,2.49c0,.22.09.24.25.14,1.74-1.31,4.16-2.67,6.59-2.67,3.06,0,4.59,2.06,4.59,4.13,0,3.72-5.52,5.24-10.31,4.87l-.06-.46a19.56,19.56,0,0,0,3.9-.75c3.52-1.13,4.53-2.71,4.53-4.25a2.7,2.7,0,0,0-2.83-2.77c-2.21,0-4.57,2.12-5.87,3.7-.42.53-.66,1.24-1.21,1.24a1.23,1.23,0,0,1-.93-.55,1.67,1.67,0,0,1-.47-1.11,13.44,13.44,0,0,1,.23-1.44c.14-1,.48-2.89.6-3.84a8.77,8.77,0,0,0,.06-1.56,1,1,0,0,1,.87-1.11,27,27,0,0,0,3.54-1c.25-.12.27-.3,0-.58a5.25,5.25,0,0,0-2.75-1.54Z"/><path class="cls-2" d="M14.22,63.45,15.46,62s1.39,1,2.24,1.74c-.06.22-.26.32-.53.32H10.26v8.19h4.81l1.22-1.53s1.41,1,2.26,1.78c-.06.22-.28.32-.55.32H10.26v6.86c0,.16-.61.59-1.6.59H8.33V72.78h-8l-.16-.57H8.33V64H1.27l-.16-.57Zm-9.77,7a13.78,13.78,0,0,0-1.66-5.21L3,65.17C8.19,68.15,6.31,72.27,4.45,70.49Zm12.16-4.37c-.08.21-.32.37-.75.33A21.26,21.26,0,0,1,12,71.16L11.73,71A39.85,39.85,0,0,0,14,65.13Z"/><path class="cls-2" d="M24.3,74V68H22l-.16-.57H24.3V62.26l2.57.26c0,.27-.22.47-.74.53v4.33h.34l.93-1.46s.89.87,1.46,1.52a21.93,21.93,0,0,0,2.06-5.58l2.65.79a.71.71,0,0,1-.73.4,16.81,16.81,0,0,1-1.27,2.45h6.07l1.07-1.13L40.59,66a1.31,1.31,0,0,1-.87.35c-.32,7-1,11.49-2.21,12.76a3.69,3.69,0,0,1-2.89,1,1.86,1.86,0,0,0-.46-1.39A6.1,6.1,0,0,0,31.81,78l0-.32c1.09.1,2.75.24,3.3.24a1.09,1.09,0,0,0,.89-.3c.93-.79,1.51-5.37,1.82-11.54H31.22a13.71,13.71,0,0,1-3.48,3.63l-.24-.19A12,12,0,0,0,28.59,68H26.13v5.36l3.35-1.24.08.22c-1.41,1-3.48,2.47-6.37,4.21a.81.81,0,0,1-.44.55l-1.08-2.19C22.22,74.7,23.15,74.38,24.3,74Zm11.9-2,.06.26c-1.44.87-3.58,2.09-6.56,3.61a.88.88,0,0,1-.44.54l-1.17-2.16C29.48,74,32.8,73,36.2,72ZM33.1,69.4,34.16,68s1.21,1,1.92,1.71c-.06.19-.25.29-.53.29H29.34l-.16-.55Z"/><path class="cls-2" d="M49.7,64.34l.3.21-.08,3.15V74l0,3.73,2.87.3v.57H44.62V78l3-.3,0-3.73V65.76L45,66.12v-.66Z"/><path class="cls-2" d="M66.56,71.57c0,5.14-2.23,7.3-4.7,7.3s-4.71-2.16-4.71-7.3,2.24-7.33,4.71-7.33S66.56,66.41,66.56,71.57Zm-4.7,6.65c1.32,0,2.57-1.52,2.57-6.65s-1.25-6.7-2.57-6.7-2.55,1.54-2.55,6.7S60.53,78.22,61.86,78.22Z"/><path class="cls-2" d="M79.83,71.57c0,5.14-2.24,7.3-4.71,7.3s-4.7-2.16-4.7-7.3,2.23-7.33,4.7-7.33S79.83,66.41,79.83,71.57Zm-4.71,6.65c1.33,0,2.57-1.52,2.57-6.65s-1.24-6.7-2.57-6.7-2.55,1.54-2.55,6.7S73.8,78.22,75.12,78.22Z"/><path class="cls-2" d="M98.33,64.16l1.21-1.53s1.34,1,2.2,1.78c0,.2-.26.3-.56.3H91.81c0,1.42-.12,2.87-.3,4.27h5l1-1,1.86,1.59a1.41,1.41,0,0,1-.83.33c-.31,4.85-1,8.23-2,9.22a3.91,3.91,0,0,1-2.73.85,1.64,1.64,0,0,0-.46-1.33A6.22,6.22,0,0,0,91,77.82l0-.31c1.08.11,2.85.25,3.36.25a1.15,1.15,0,0,0,.83-.25c.71-.6,1.25-3.8,1.5-8H91.41c-.63,4-2.37,7.77-7.65,10.69l-.24-.31c5.88-4.61,6.07-10.11,6.13-15.23H83.72l-.16-.55Z"/><path class="cls-2" d="M106.63,62.75l2.06.87h11.37l.91-1.06,2,1.56a1.56,1.56,0,0,1-.83.41V77.72c0,1.33-.34,2.14-2.93,2.36a1.79,1.79,0,0,0-.59-1.29,5,5,0,0,0-2.18-.67v-.28s2.71.18,3.24.18.54-.16.54-.49V71.34H108.53v8.12c0,.24-.73.72-1.56.72h-.34V62.75Zm6.73,8V64.2h-4.83v6.56Zm1.89-6.56v6.56h5V64.2Z"/><path class="cls-2" d="M137.06,67.72a10.2,10.2,0,0,1-.65,3.36c-.85,2.45-3.11,6.15-5.34,6.15-1.49,0-2.91-2.28-2.91-4.81A7.76,7.76,0,0,1,131,66.69a8.7,8.7,0,0,1,5.91-2.1c4.33,0,7.54,3,7.54,7.06,0,3.54-2.4,6.81-8.94,7.14l-.08-.41c4.92-1,7-3.68,7-7.18a5.54,5.54,0,0,0-5.7-5.88c-.23,0-.49,0-.75,0A4,4,0,0,1,137.06,67.72Zm-5.54-.16a6.27,6.27,0,0,0-1.88,4.37c0,1.72.76,3.16,1.57,3.16,1.2,0,3-2.88,3.67-4.47a8.93,8.93,0,0,0,.82-3.34,3.33,3.33,0,0,0-.58-1.76A7.53,7.53,0,0,0,131.52,67.56Z"/><path class="cls-2" d="M156,70c1.32,1.56.1,3-1,2.06a5.21,5.21,0,0,0-.28-1.27l-1.13.32v8.64c0,.12-.55.51-1.42.51h-.3V73.75a.61.61,0,0,1-.67.41,11.62,11.62,0,0,1-2.33,4.53l-.32-.16a19.36,19.36,0,0,0,1.17-5.3l2.15.5v-2.2l-1.95.48a.75.75,0,0,1-.54.43l-.71-1.88,2.18,0c1.14-1.9,2.39-4.34,3.2-6.08l2.33.93c-.1.24-.37.38-.81.3a44.89,44.89,0,0,1-4,4.81l3-.16a9.54,9.54,0,0,0-.81-1.6l.22-.1a5.81,5.81,0,0,1,1.76,1.12,18.47,18.47,0,0,0,4.65-7.87l2.55.56c-.06.21-.26.31-.73.35A12.06,12.06,0,0,0,167.47,68l0,.24a1.84,1.84,0,0,0-1.29,1.46A13.15,13.15,0,0,1,161.93,63,16.55,16.55,0,0,1,156,70Zm-5.38-4.25c.47-1.07,1-2.55,1.44-3.88l2.43.89a.7.7,0,0,1-.77.36A20.86,20.86,0,0,1,151.07,66c1.68,1.22.62,2.92-.59,2a6.26,6.26,0,0,0-1.72-2.79l.2-.13A5.4,5.4,0,0,1,150.6,65.72Zm4.39,11a10.82,10.82,0,0,0-1-3.71l.26-.08C158,75.25,156.35,78.12,155,76.77Zm2.35-5.34,2,.82h4.29l.91-1,1.8,1.4a1.12,1.12,0,0,1-.75.34v6.58A2.33,2.33,0,0,1,164,80h-.31V78.63h-4.59v1c0,.16-.57.5-1.5.5h-.3V71.43Zm4.81-2.33,1-1.32s1.1.91,1.78,1.58c-.06.22-.26.31-.54.31h-6.19L158,69.1Zm1.58,9V72.82h-4.59v5.24Z"/><path class="cls-2" d="M177.37,62.67c-.08.26-.34.44-.78.42a27.13,27.13,0,0,1-2.07,4.37l1,.36c-.06.17-.24.31-.6.37V79.66a2.34,2.34,0,0,1-1.56.57H173V69.64a18.14,18.14,0,0,1-2.44,2.57l-.25-.18a31.61,31.61,0,0,0,4.31-10.19Zm9-.29c-.06.29-.23.47-.73.53V67h.56l1-1.52s1.21,1.07,1.9,1.78c-.06.2-.25.3-.53.3h-3v10c0,1.45-.33,2.32-3,2.6a2.07,2.07,0,0,0-.66-1.45A5.19,5.19,0,0,0,179.6,78v-.28s3,.2,3.52.2.55-.14.55-.47V67.6h-7.51L176,67h7.67V62.1ZM179.6,74.3a12.59,12.59,0,0,0-2.41-4.68l.22-.12C183,71.83,181.48,75.75,179.6,74.3Z"/><path class="cls-2" d="M192.15,70.92l-.12-.26c3.32-2,7.2-6.11,8.15-8.92l3.08.78c0,.25-.31.37-.9.41,1.79,2.43,5.31,4.11,8.52,5.18l0,.32a2.36,2.36,0,0,0-1.62,1.78c-3.05-1.58-5.9-4-7.2-7A24,24,0,0,1,192.15,70.92ZM200.28,79V72.86h-6.59l-.17-.56h6.76v-3h-3.62l-.16-.57h6.63l1.06-1.31s1.19.91,1.94,1.56c-.06.22-.25.32-.53.32h-3.38v3h4.05l1.15-1.44s1.28,1,2.07,1.68c-.06.22-.25.32-.53.32h-6.74V79h4.7l1.21-1.58s1.38,1.06,2.25,1.82c-.06.21-.27.31-.57.31H192.72l-.15-.55Zm-3.48-1.25a9.27,9.27,0,0,0-1.23-4l.24-.1C200.48,75.88,198.44,79.4,196.8,77.76Zm10.95-3.24c-.08.22-.33.38-.77.34a21.79,21.79,0,0,1-3.28,3.5l-.28-.18a36.47,36.47,0,0,0,1.72-4.65Z"/><path class="cls-1" d="M219.49,63.72a3.49,3.49,0,0,1,1.58-.37c.87,0,2.54.73,2.54,1.34s-.5.77-.74,1.37l-.71,1.72a10.08,10.08,0,0,1,1.46-.14c1.53,0,2.5.91,2.5,3.4s-.66,5.28-2,6.82a3.26,3.26,0,0,1-2.49,1.21c-.73,0-.95-.3-1.19-1.11-.12-.36-.26-.55-1.26-1.54l.17-.3a6.48,6.48,0,0,0,2.34,1,1.56,1.56,0,0,0,1.44-.85,11.72,11.72,0,0,0,1.44-5.81c0-1.23-.33-1.8-1.32-1.8a6.77,6.77,0,0,0-1.58.27c-.56,1.31-1.19,2.77-1.74,3.94-1,2.07-2.12,4.37-2.89,5.59-.38.64-.65.8-1.09.8a.92.92,0,0,1-.81-1,1.55,1.55,0,0,1,.4-1.13,27.06,27.06,0,0,0,3-4.86c.44-.85.85-1.8,1.23-2.73-.6.21-1.13.43-1.52.59a4.14,4.14,0,0,1-1.61.53c-.55,0-1.38-.91-1.54-1.64a2.42,2.42,0,0,1,.16-1.26l.32-.08c.29.61.49,1.12,1,1.12a28.68,28.68,0,0,0,3.72-.69,13.63,13.63,0,0,0,.91-3.08.56.56,0,0,0-.29-.56,5.73,5.73,0,0,0-1.49-.39Zm7.79,3.88a5.44,5.44,0,0,1,3.54,1.52,5.29,5.29,0,0,1,1.43,3.8c0,1-.36,1.8-1.11,1.8s-.63-.6-1.25-.77a9.5,9.5,0,0,0-2.23-.14l-.1-.4a20,20,0,0,0,2.2-.59c.43-.16.57-.38.55-.89a4.59,4.59,0,0,0-.73-2.29A3.8,3.8,0,0,0,227.12,68Zm.62-3,.23-.31a7.08,7.08,0,0,1,2.48,1.26,1.54,1.54,0,0,1,.63,1.15.6.6,0,0,1-.61.63c-.34,0-.58-.35-.93-.83A8.21,8.21,0,0,0,227.9,64.59Zm1.84-1.32.19-.3a7.28,7.28,0,0,1,2.46,1,1.54,1.54,0,0,1,.71,1.23.56.56,0,0,1-.58.63c-.35,0-.57-.4-1-.87A8.34,8.34,0,0,0,229.74,63.27Z"/><path class="cls-1" d="M247.68,70.29c0,.25-.23.47-.67.53,0,.71-.1,1.37-.16,2h4L252,71.45s1.22,1,1.95,1.63c-.06.21-.25.31-.53.31h-6.29c.69,2.26,2.67,3.94,7.32,4.81v.26a1.78,1.78,0,0,0-1.68,1.77,7.88,7.88,0,0,1-6-6.72c-.52,3.2-2,5.32-8.19,6.71l-.16-.36c4.63-1.62,6-3.56,6.39-6.47h-4.89A10.3,10.3,0,0,1,236,80.14l-.22-.18c2.27-3.15,2.57-7,2.57-10.46V64.79l2.16.83h9.69l.89-1,2,1.45a1.34,1.34,0,0,1-.77.41v3.58a3.07,3.07,0,0,1-1.58.47h-.32v-1H240.19a24.28,24.28,0,0,1-.2,3.3h4.89c.08-.85.12-1.76.14-2.77Zm3.39-7.24,1.06-1.31s1.21.91,2,1.57c0,.21-.26.31-.53.31H236.73l-.18-.57Zm-10.88,3.12v2.77h10.16V66.17Z"/><path class="cls-1" d="M259.33,72a2.2,2.2,0,0,0,1-.3c1.75-.77,4-2.21,6.47-2.21,2.75,0,4.41,1.86,4.41,3.81a4.38,4.38,0,0,1-2.73,4,13,13,0,0,1-6.4.91l0-.38c3.91-.37,7.41-1.78,7.41-4.82a2.57,2.57,0,0,0-2.69-2.71c-2,0-4,1.88-4.9,2.53s-1.31,1.05-1.8,1.05a2.32,2.32,0,0,1-1.76-1.29,2.68,2.68,0,0,1-.14-1.11l.22-.1A1.4,1.4,0,0,0,259.33,72Z"/><path class="cls-1" d="M276,65.86c.32.51.79,1,1.27,1,1.12,0,4.41-.93,7.79-1.72a30.42,30.42,0,0,1,4.66-.93,4.11,4.11,0,0,1,1.57.27c.47.22.79.52.79,1s-.36.71-.89.71-1.09-.05-1.74-.05a5.76,5.76,0,0,0-3.23.79c-.79.51-2.59,2.23-2.59,5.83,0,2.23.95,3,1.7,3.48a7.54,7.54,0,0,0,3.52.55c.6,0,1.37.52,1.37,1.15s-.79.93-1.7.93a7.55,7.55,0,0,1-4.31-1c-1.31-.89-2.1-2.17-2.1-4.57a8.19,8.19,0,0,1,3.3-6.76c.16-.12.14-.24-.08-.18a33,33,0,0,0-6.23,2.12c-.41.22-.81.61-1.3.61a2.76,2.76,0,0,1-2.16-2,3.89,3.89,0,0,1,.06-1.1Z"/><path class="cls-1" d="M302.21,62.56a4.08,4.08,0,0,1,1.46.37c.95.5,1.8,1.5,1.8,2.12s-.5.67-1.29,1.24a60.94,60.94,0,0,0-4.66,4c-.56.55-.72.79-.72,1s.28.53.7.85a28.32,28.32,0,0,1,5.34,4.49,3.55,3.55,0,0,1,1,2.11,1,1,0,0,1-1.11,1.15,1.13,1.13,0,0,1-1-.61c-.24-.42-.44-.89-1-1.72a24.49,24.49,0,0,0-4.69-4.79,1.47,1.47,0,0,1-.17-2.45c1-1.23,3.89-4.16,4.72-5.2.32-.4.44-.6.44-.85,0-.4-.38-.85-1.05-1.39Z"/><path class="cls-1" d="M321.6,64.08c.63-.2.65-.46,1-.46.79,0,2.15,1.07,2.15,1.78,0,.48-.59.6-1.26,1.11a45.35,45.35,0,0,0-4.51,4c-.18.17-.08.33.1.25a10.29,10.29,0,0,1,3.36-.67c2.61,0,4.83,1.68,4.79,4.55,0,2.57-2.32,4.67-6.25,4.67-2.28,0-3.9-1-3.9-2.56a2.21,2.21,0,0,1,2.47-2,3.34,3.34,0,0,1,3.34,2.77,3.56,3.56,0,0,0,2.62-3.39c0-1.74-1.19-3.24-3.54-3.24-2.75,0-4.69,1.88-6.37,4-.4.53-.6.67-1,.65s-.73-.44-.69-1.07c0-.47.27-.83.85-1.38,2.43-2.48,6.34-6.19,7.27-7.56.28-.35.1-.47-.17-.43A16.45,16.45,0,0,0,319,66.27c-.38.2-.69.52-1.07.52A2.31,2.31,0,0,1,316,65a3.15,3.15,0,0,1,.08-1.21l.32,0c.3.6.69,1.19,1.21,1.19A22.06,22.06,0,0,0,321.6,64.08Zm-2.47,11.49c-.73,0-1.23.39-1.23,1s.87,1.26,2.55,1.26c.32,0,.62,0,.91,0C321.11,76.38,320.24,75.57,319.13,75.57Z"/><path class="cls-1" d="M340.63,63.46l.33.33-3.8,3.8L341,71.4l-.33.33-3.81-3.8L333,71.74l-.33-.33,3.81-3.82-3.8-3.8.33-.33,3.8,3.8Zm-7.95,4.13a.87.87,0,0,1,1.73,0,.87.87,0,1,1-1.73,0Zm4.14-4.14a.86.86,0,1,1-.86.86A.87.87,0,0,1,336.82,63.45Zm0,8.29a.87.87,0,1,1,.87-.86A.87.87,0,0,1,336.82,71.74ZM341,67.59a.87.87,0,1,1-.86-.86A.87.87,0,0,1,341,67.59Z"/><path class="cls-1" d="M347.68,63.69l.17.12,0,1.84v3.64l0,2.17,1.67.18V72h-4.78v-.33l1.76-.18,0-2.17V64.52l-1.57.2v-.38Z"/><circle class="cls-2" cx="94.81" cy="1.37" r="1.37"/><circle class="cls-2" cx="111.76" cy="1.37" r="1.37"/><circle class="cls-2" cx="128.72" cy="1.37" r="1.37"/><circle class="cls-2" cx="145.68" cy="1.37" r="1.37"/><circle class="cls-2" cx="162.63" cy="1.37" r="1.37"/><circle class="cls-2" cx="179.47" cy="1.37" r="1.37"/></g></g></svg>