<svg xmlns="http://www.w3.org/2000/svg" xmlns:xlink="http://www.w3.org/1999/xlink" viewBox="0 0 162.75 49.98"><defs><style>.cls-1{fill:none;}.cls-2{clip-path:url(#clip-path);}.cls-3{fill:#568ab6;}.cls-4{fill:#eeb718;}.cls-5{fill:#3e3a39;}</style><clipPath id="clip-path" transform="translate(-0.02)"><rect class="cls-1" width="162.77" height="50"/></clipPath></defs><g id="レイヤー_2" data-name="レイヤー 2"><g id="contents"><g class="cls-2"><path class="cls-3" d="M55.82,21.73,40.6,9a3.15,3.15,0,0,0-4,0L31.32,13.4l10,8.33A4.61,4.61,0,0,1,42.8,25V47.11A2.87,2.87,0,0,1,39.93,50H54.49a2.87,2.87,0,0,0,2.87-2.87h0V25a4.61,4.61,0,0,0-1.5-3.22" transform="translate(-0.02)"/><path class="cls-3" d="M19.84,25V46.62H39.41V25a1.4,1.4,0,0,0-.32-.63L28.7,15.61l-7.35,6.12A4.58,4.58,0,0,0,19.84,25" transform="translate(-0.02)"/><path class="cls-4" d="M26,9a3.15,3.15,0,0,0-4,0L6.79,21.73A4.62,4.62,0,0,0,5.28,25V47.11A2.88,2.88,0,0,0,8.15,50H19.84v-3.4H8.68V25A1.29,1.29,0,0,1,9,24.33L24,11.76l4.65,3.85,2.63-2.2Z" transform="translate(-0.02)"/><path class="cls-4" d="M10.74,5.14c3.43,4.59,2,11.48,2,11.48s-7-.56-10.43-5.14S.32,0,.32,0s7,.56,10.42,5.14" transform="translate(-0.02)"/><path class="cls-5" d="M85.22,35.45A138.53,138.53,0,0,0,66,33.81V31.22a148.47,148.47,0,0,1,19.18,1.54ZM84.13,18.9q-8.53-.84-17-.84V15.47q10.43.1,17,.73Zm-1,7.66a141.57,141.57,0,0,0-15.4-1V23q9.24.16,15.4.91Z" transform="translate(-0.02)"/><path class="cls-5" d="M111.57,34.44H90.71V32H99.6V18.9H92.15V16.48H110.1V18.9h-7.87V32h9.34Z" transform="translate(-0.02)"/><path class="cls-5" d="M122.49,21.45a23.29,23.29,0,0,1-1.82,10,12.91,12.91,0,0,1-4.2,4.87V33.25a12,12,0,0,0,2.52-4.2,23.6,23.6,0,0,0,1-7.42V15.26h2.52Zm15.33.07q-1,12.7-11.9,14.14V15.26h2.52V32.37q6-1.89,6.86-10.85Z" transform="translate(-0.02)"/><path class="cls-5" d="M162.77,25.44h-12v4.27a3.61,3.61,0,0,0,.63,2.45,4,4,0,0,0,2.8.81h7.66v2.45h-8.29q-5.5,0-5.5-5.15V25.44H141.6V23h6.51V18h-5.36V15.64h18.73V18H150.77v5h12Z" transform="translate(-0.02)"/><path class="cls-5" d="M88.54,47V42.31a.34.34,0,0,1,.11-.28.43.43,0,0,1,.56,0,.42.42,0,0,1,.14.28v.39h0a2.32,2.32,0,0,1,1.68-1,1.44,1.44,0,0,1,1.47,1h.11a2.45,2.45,0,0,1,1.71-1c1.1,0,1.65.72,1.65,2.17v3a.48.48,0,0,1-.46.45.43.43,0,0,1-.31-.14.5.5,0,0,1-.14-.31V44a2,2,0,0,0-.24-1.12.89.89,0,0,0-.77-.35,1.94,1.94,0,0,0-1.3.77.29.29,0,0,0-.07.18V46.9a.48.48,0,0,1-.45.45.43.43,0,0,1-.32-.14.5.5,0,0,1-.14-.31V44a2,2,0,0,0-.24-1.12.89.89,0,0,0-.77-.35,1.94,1.94,0,0,0-1.3.77.29.29,0,0,0-.07.18V46.9a.43.43,0,0,1-.14.31.41.41,0,0,1-.31.14.45.45,0,0,1-.45-.46" transform="translate(-0.02)"/><path class="cls-5" d="M101.14,40.21a.54.54,0,0,1,.18-.45.69.69,0,0,1,.91,0,.63.63,0,0,1,0,.87.67.67,0,0,1-.91,0,.56.56,0,0,1-.18-.42m.18,6.79V42.38a.45.45,0,0,1,.45-.45.4.4,0,0,1,.31.14.41.41,0,0,1,.14.31V47a.45.45,0,0,1-.14.32.4.4,0,0,1-.31.14.46.46,0,0,1-.45-.46" transform="translate(-0.02)"/><path class="cls-5" d="M109.72,47.56a2.46,2.46,0,0,1-1.86-.77,2.94,2.94,0,0,1-.73-2.1,3.25,3.25,0,0,1,.21-1.19,2.7,2.7,0,0,1,.56-.91,2.67,2.67,0,0,1,.77-.56,2.17,2.17,0,0,1,.91-.21,1.93,1.93,0,0,1,1.5.6,2.56,2.56,0,0,1,.63,1.64v.07a.71.71,0,0,1-.24.56,1,1,0,0,1-.63.25h-2.77V45a2.07,2.07,0,0,0,.56,1.33,1.71,1.71,0,0,0,1.23.49,2.26,2.26,0,0,0,1-.28h.24a.26.26,0,0,1,.21.14.38.38,0,0,1,0,.28.31.31,0,0,1-.18.21,3.12,3.12,0,0,1-1.5.38M108,44.17h2.87V44.1a1.89,1.89,0,0,0-.39-1.19,1.21,1.21,0,0,0-1-.42,1.33,1.33,0,0,0-1,.42A1.64,1.64,0,0,0,108,44.1" transform="translate(-0.02)"/><path class="cls-5" d="M117.52,47.56c-.65,0-1-.41-1-1.23v-6.5a.43.43,0,0,1,.14-.32.45.45,0,0,1,.63,0,.48.48,0,0,1,.14.34v6.58a.37.37,0,0,0,.14.35h.1l.11.07.07.07.07.07v.17a.38.38,0,0,1-.07.21.32.32,0,0,1-.25.14Z" transform="translate(-0.02)"/><path class="cls-5" d="M122.87,47V42.31A.37.37,0,0,1,123,42a.43.43,0,0,1,.56,0,.42.42,0,0,1,.14.28v.39h0a2.31,2.31,0,0,1,1.68-1,1.45,1.45,0,0,1,1.47,1h.1a2.45,2.45,0,0,1,1.72-1c1.09,0,1.64.72,1.64,2.17v3a.48.48,0,0,1-.45.45.43.43,0,0,1-.32-.14.5.5,0,0,1-.14-.31V44a2,2,0,0,0-.24-1.12.89.89,0,0,0-.77-.35,1.94,1.94,0,0,0-1.3.77.29.29,0,0,0-.07.18V46.9a.45.45,0,0,1-.45.45.46.46,0,0,1-.46-.45V44a2,2,0,0,0-.24-1.12.89.89,0,0,0-.77-.35,1.94,1.94,0,0,0-1.3.77.29.29,0,0,0-.07.18V46.9a.43.43,0,0,1-.14.31.41.41,0,0,1-.31.14.45.45,0,0,1-.45-.46" transform="translate(-0.02)"/><path class="cls-5" d="M135.23,44.69a3.37,3.37,0,0,1,.21-1.22,2.52,2.52,0,0,1,.56-.91,2.58,2.58,0,0,1,.81-.57,2.46,2.46,0,0,1,1.92,0,2.54,2.54,0,0,1,.81.57,2.67,2.67,0,0,1,.56.91,3.81,3.81,0,0,1,0,2.45,2.67,2.67,0,0,1-.56.91,2.42,2.42,0,0,1-3.41.09l-.09-.09a2.69,2.69,0,0,1-.57-.91,3.7,3.7,0,0,1-.21-1.23m4.1,0a2.5,2.5,0,0,0-.46-1.54,1.35,1.35,0,0,0-1.15-.59,1.32,1.32,0,0,0-1.12.59,2.57,2.57,0,0,0-.42,1.54,2.46,2.46,0,0,0,.42,1.54,1.33,1.33,0,0,0,1.12.6,1.36,1.36,0,0,0,1.15-.6,2.4,2.4,0,0,0,.42-1.54" transform="translate(-0.02)"/></g></g></g></svg>