<svg xmlns="http://www.w3.org/2000/svg" viewBox="0 0 56.32 55.21"><defs><style>.cls-1{fill:#09c;}</style></defs><g id="レイヤー_2" data-name="レイヤー 2"><g id="contents"><path class="cls-1" d="M0,24.73A10,10,0,0,0,1,24c2.47-2.46,4.89-5,7.41-7.38a3.37,3.37,0,0,0,1.09-2.73c-.07-3.31,0-6.63,0-10H16.8V7.7L24.44,0,36.55,11.81l-1.18,1.11L25.1,2.74,2.73,24.92l3,3L24.61,9.17l5.21,5-1.33,1.27-3.61-3.73c-2.94,2.93-5.86,5.82-8.76,8.72-2.53,2.52-5.06,5-7.55,7.61a2.39,2.39,0,0,0-.7,1.46c0,5.78,0,11.55,0,17.32a8,8,0,0,0,.09.83H33.78v1.74H6V48c0-5.4,0-10.8,0-16.19a2.48,2.48,0,0,0-.67-1.58C3.56,28.44,1.77,26.72,0,25ZM11.34,5.63v7.76c2.65-2,4.63-4.13,3.39-7.76Z"/><path class="cls-1" d="M56.32,30c-.18,1.23-.28,2.47-.57,3.67A14.39,14.39,0,0,1,52,40.51a1,1,0,0,0-.24,1.39c.49,1,.9,2,1.38,3l-1.08.7,3,6.71-1.64.76-3.1-6.76-2.94,1.35,3,6.79-1.64.78-3.07-6.72-1.19.38c-.58-1.22-.87-2.82-1.82-3.47s-2.49-.12-3.75-.27a15.32,15.32,0,1,1,17.2-16.37,7.6,7.6,0,0,0,.19.95Zm-2-.18A13.43,13.43,0,0,0,41.16,16.35a13.5,13.5,0,1,0-.25,27A13.44,13.44,0,0,0,54.37,29.78ZM45.43,46.49,50.69,44,50,42.53,44.72,45Z"/><path class="cls-1" d="M12.81,32h9.55V42.62H12.81Zm2,8.86c1.74,0,3.35,0,4.95,0a1,1,0,0,0,.71-.72c.07-1.82.06-3.65,0-5.46,0-.27-.35-.75-.56-.76-1.68-.06-3.36,0-5.11,0Z"/></g></g></svg>