<svg xmlns="http://www.w3.org/2000/svg" viewBox="0 0 87.78 51.07"><defs><style>.cls-1{fill:#09c;}</style></defs><g id="レイヤー_2" data-name="レイヤー 2"><g id="contents"><path class="cls-1" d="M31.2,12.16c.08-.57.17-1.14.23-1.71a1.3,1.3,0,0,1,1.69-1.29l.52.08,11.59,1.51c2.58.34,5.16.7,7.74,1.05,3.59.48,7.19.94,10.79,1.43,3.36.45,6.73.95,10.09,1.4,4.07.53,8.14,1,12.21,1.56a1.7,1.7,0,0,1,1.69,2.22c-.55,4.27-1.12,8.54-1.68,12.81L83.7,49.3c-.18,1.36-.81,1.91-2.18,1.73-5.61-.72-11.21-1.48-16.82-2.22L47.29,46.52l-12-1.59-6.63-.86c-1.13-.15-1.55-.61-1.44-1.59.12-1.19.12-1.19-1-1.56a2,2,0,0,1-.35-.11c-1.55-.68-3.3-1.08-3.82-3.09A10.24,10.24,0,0,1,17.49,39a27.5,27.5,0,0,1-9.32-1.75.78.78,0,0,1-.46-.51c-.06-.66,0-1.32,0-2.1L8.8,35c2.84.81,5.65,1.71,8.66,1.48A7.65,7.65,0,0,0,22.73,34c1.44-1.56,2.88-3.13,4.22-4.78a6.13,6.13,0,0,1,5.18-2.32c4,0,7.95-.25,11.93-.43a3.79,3.79,0,0,0,1.49-.45A2.55,2.55,0,0,0,47,23.34a2.3,2.3,0,0,0-2.08-2.05,8.62,8.62,0,0,0-1.34-.17c-4.43-.23-8.86-.43-13.29-.66-1.77-.09-3.54-.22-5.32-.33a1,1,0,0,1-1.07-.76A1.18,1.18,0,0,1,24.46,18a2.4,2.4,0,0,1,1.21-.25c1.4,0,2.8.17,4.2.22.21,0,.57-.18.6-.31.16-1,.25-1.93.37-2.91a3.43,3.43,0,0,0-.33-.1,64.1,64.1,0,0,0-12.23-.3,6.5,6.5,0,0,0-2.18.47c-2.61,1.2-5.18,2.48-7.77,3.73a4.36,4.36,0,0,1-.69.22,11.31,11.31,0,0,0,0-1.32,1.16,1.16,0,0,1,.79-1.34c1.39-.67,2.72-1.49,4.14-2.11a17,17,0,0,1,4.68-1.7,85.63,85.63,0,0,1,9.07-.25c1.59,0,3.19.21,4.78.32A1.12,1.12,0,0,0,31.2,12.16Zm50.7,28.9,2-15.14C79.8,24.85,77.83,22.23,78,18L41,13.07a7.36,7.36,0,0,1-3.61,5.28l2.84.19c1.55.1,3.11.1,4.64.32,2,.3,3.73,1.18,4.39,3.45a12,12,0,0,1,10.31-3.9,11.47,11.47,0,0,1,6.67,3A12,12,0,0,1,55.05,42a12.19,12.19,0,0,1-8.81-13.52c-3.05.83-6.2.66-9.31.86-1.52.1-3,.09-4.58.18-.21,0-.57.24-.6.42-.23,1.45-.4,2.91-.59,4.36,4.63,1.69,5.71,3.12,6,8l37,4.9A7.23,7.23,0,0,1,81.9,41.06ZM28.22,35a18.43,18.43,0,0,0-1.88-.38,1.72,1.72,0,0,0-1.92,1.3A1.78,1.78,0,0,0,25.53,38a7,7,0,0,0,.84.3c.43.13.86.23,1.35.36Z"/><path class="cls-1" d="M0,27v9.69c0,1.18.44,1.62,1.64,1.62,1,0,2,0,3,0A1.35,1.35,0,0,0,6.13,36.8q0-9.84,0-19.68a1.34,1.34,0,0,0-1.51-1.47H1.47A1.31,1.31,0,0,0,0,17.14Z"/><path class="cls-1" d="M78.67,8H71.49l-26.88.16a4.11,4.11,0,0,0-1,.23,3.48,3.48,0,0,0,.9.42c3.93.5,7.85,1,11.77,1.44,1.82.23,3.63.46,5.44.67a15.2,15.2,0,0,0,1.65.09l18.24-.3c1,0,1,0,1,1,0,1.71,0,1.71,1.71,2,1,.17,1.16,0,1.15-1s0-2.06-.06-3.08a1.68,1.68,0,0,0-1.93-1.8H78.67Z"/><path class="cls-1" d="M56.29,6.32c2.2-.07,4.41,0,6.6-.26,2-.22,4-.71,6-1.1,3.08-.59,6.17-1.18,9.24-1.8.5-.1.7,0,.78.49s.14.63.2.95c.21,1.08.2,1.08,1.34,1.06,1.73,0,1.84.14,1.39-1.82-.18-.77-.3-1.57-.47-2.35A1.6,1.6,0,0,0,79.22.05c-1.89.33-3.77.73-5.66,1.1l-8.65,1.7L52.77,5.22c-1.13.22-2.26.43-3.38.68-.19,0-.34.27-.51.41a2,2,0,0,0,.58.21h6.83Z"/></g></g></svg>