<svg xmlns="http://www.w3.org/2000/svg" viewBox="0 0 57.21 49.62"><defs><style>.cls-1{fill:#09c;}</style></defs><g id="レイヤー_2" data-name="レイヤー 2"><g id="contents"><path class="cls-1" d="M37.12,1.78H35.84c-7.85,0-15.7,0-23.55,0C11.3,1.76,11,2,11,3c.07,2.36,0,4.73,0,7.09,0,1-.44,1.42-1.44,1.41-2.54,0-5.09,0-7.72,0V47.75H37.12V42.83a2.36,2.36,0,0,1,.06-1.07,1.42,1.42,0,0,1,.9-.72c.24,0,.75.45.76.7.06,2.36.06,4.73,0,7.09,0,.24-.4.59-.68.69a4.3,4.3,0,0,1-1.3.09h-35C.11,49.62,0,49.52,0,47.78Q0,29.24,0,10.71A2.71,2.71,0,0,1,.64,9.07C3.27,6.21,6,3.39,8.65.6A2.11,2.11,0,0,1,10,0c9.2,0,18.39,0,27.59,0,1,0,1.36.39,1.35,1.36,0,5.06,0,10.11,0,15.16,0,.65,0,1.34-.88,1.34s-.9-.68-.9-1.33V1.78ZM9.17,2.64l-6.62,7H9.17Z"/><path class="cls-1" d="M25.29,42c-.66-.08-1.1-.44-.92-1.15q.93-3.64,2-7.25a2.32,2.32,0,0,1,.68-.84L49.82,10c1.11-1.1,1.29-1.1,2.38,0,1.52,1.56,3,3.14,4.55,4.69a1.15,1.15,0,0,1,0,1.87L35.82,37.39a2.91,2.91,0,0,0-.46.47C33,41.63,28.92,41.24,25.29,42Zm1.16-2c1.4-.23,2.61-.47,3.82-.61a3.6,3.6,0,0,0,2.25-1.16q8.68-8.73,17.42-17.42c1.72-1.7,3.48-3.36,5.41-5.21l-4.51-4.06a1.37,1.37,0,0,0-.24.19q-11,11-22,22a2.63,2.63,0,0,0-.65,1C27.4,36.38,27,38.07,26.45,40Z"/><path class="cls-1" d="M19.42,17H29.65c.61,0,1.25,0,1.31.82s-.57,1-1.24,1H23.4c-4.64,0-9.29,0-13.93,0a2.21,2.21,0,0,1-1-.06c-.3-.17-.68-.52-.69-.8s.34-.68.64-.86a2,2,0,0,1,1-.08Z"/><path class="cls-1" d="M17,26.45h7.74c.65,0,1.35.05,1.37.87s-.72.95-1.4,1c-5.2,0-10.39,0-15.59,0-.65,0-1.35,0-1.37-.88s.71-.95,1.4-.95Z"/><path class="cls-1" d="M15.1,37.69h-6c-.65,0-1.32,0-1.34-.89s.64-.92,1.3-.92H21c.65,0,1.35.06,1.35.89s-.73.93-1.42.93Z"/></g></g></svg>